<?xml version="1.0" encoding="utf-8"?>
<!-- Generator: Adobe Illustrator 16.0.0, SVG Export Plug-In . SVG Version: 6.00 Build 0)  -->
<!DOCTYPE svg PUBLIC "-//W3C//DTD SVG 1.1//EN" "http://www.w3.org/Graphics/SVG/1.1/DTD/svg11.dtd">
<svg version="1.1" id="Calque_2" xmlns="http://www.w3.org/2000/svg" xmlns:xlink="http://www.w3.org/1999/xlink" x="0px" y="0px"
	 width="292px" height="292px" viewBox="0 0 292 292" enable-background="new 0 0 292 292" xml:space="preserve">
<g>
	<path fill-rule="evenodd" clip-rule="evenodd" fill="#EAECEC" d="M283.621,173.709l-0.151,0.361
		c-2.196,0.76-3.237,2.822-4.819,4.275c-6.382,5.855-13.037,11.086-22.515,9.894c-0.219-2.038,1.597-4.038,0.334-6.228
		c-2.344,0.582-3.382,2.432-4.777,3.775c-9.654,9.282-25.837,11.438-37.468,5.023c-3.367-1.857-4.924-3.364-0.246-5.637
		c2.813-1.366,5.384-3.283,6.694-7.838c-10.837,5.609-20.461,3.109-30.925-1.877c2.186,4.926,4.535,7.951,8.371,9.615
		c3.324,1.443,3.035,2.82,0.465,4.979c-8.941,7.509-23,7.809-32.921,0.514c-8.007-5.886-8.221-6.764-3.122-14.368
		c-6.418-0.107-12.702,0.978-19.639-2.14c3.65,6.62-0.309,6.662-3.946,6.519c-4.528-0.181-9.042-0.729-13.562-1.12l-0.086-0.295
		c-0.694-4.242-3.253-4.763-7.134-4.308c-18.2,2.128-29.76-10.024-27.166-28.197c0.305-2.133,0.199-4.326,0.282-6.492
		c0,0-0.033,0.047-0.032,0.047c1.593-0.578,2.142-1.823,2.17-3.399l-0.062,0.078c1.144-0.521,2.454-0.835,3.403-1.599
		c6.331-5.073,14.458-7.064,21.062-4.283c7.819,3.294,12.531-0.339,18.228-3.295c0.805-0.417,1.601-0.878,2.446-1.199
		c8.303-3.147,16.742-4.808,25.535-2.16c1.554,0.467,3.404,0.737,4.004,2.479c0.719,2.081-1.329,2.625-2.438,3.73
		c-1.398,1.395-2.693,2.932-3.803,4.564c-0.763,1.12-2.073,2.634-0.615,3.859c1.203,1.01,2.25-0.564,3.254-1.212
		c5.161-3.332,10.73-5.194,16.941-5.214c2.006-0.005,4.174,1.03,6.504-0.375c-2.837-3.858-6.494-4.966-10.62-5.02
		c-2.616-0.034-5.128-0.277-6.85-2.583c-2.325-3.116-5.26-5.496-8.688-7.286c-3.267-1.708-3.51-3.768-1.752-7.083
		c10.564-19.912,28.221-31.515,53.566-26.528c20.98,4.129,39.604,23.455,42.462,42.47c1.285,8.562,1.139,8.583,9.565,9.975
		c11.016,1.818,15.634,7.279,18.4,17.731C285.817,160.834,283.497,167.115,283.621,173.709z"/>
	<path fill-rule="evenodd" clip-rule="evenodd" fill="#CFD9DB" d="M125.395,179.457c4.519,0.391,9.033,0.939,13.562,1.12
		c3.637,0.144,7.596,0.102,3.946-6.519c6.937,3.117,13.221,2.032,19.639,2.14c-5.099,7.604-4.885,8.482,3.122,14.368
		c9.921,7.295,23.979,6.995,32.921-0.514c2.57-2.158,2.859-3.535-0.465-4.979c-3.836-1.664-6.186-4.689-8.371-9.615
		c10.464,4.986,20.088,7.486,30.925,1.877c-1.311,4.555-3.882,6.472-6.694,7.838c-4.678,2.272-3.121,3.779,0.246,5.637
		c11.631,6.415,27.813,4.259,37.468-5.023c1.396-1.344,2.434-3.193,4.777-3.775c1.263,2.189-0.553,4.189-0.333,6.229
		c-0.338,0.707-0.677,1.414-1.015,2.121c-12.707,10.767-26.87,14.617-42.996,8.987c-2.013-0.702-3.448,0.312-5.021,1.262
		c-19.76,11.936-38.348,9.427-53.78-7.367c-1.757-1.911-3.704-2.562-6.128-2.931C138.8,189.029,131.102,186.205,125.395,179.457z"/>
	<path fill-rule="evenodd" clip-rule="evenodd" fill="#EAECEC" d="M57.2,167.541c-8.648,0.066-15.708-6.834-15.769-15.412
		c-0.06-8.467,7.036-15.597,15.609-15.684c8.61-0.088,15.572,6.822,15.634,15.518C72.736,160.686,65.994,167.473,57.2,167.541z"/>
	<path fill-rule="evenodd" clip-rule="evenodd" fill="#EAECEC" d="M13.711,143.43c4.959-0.114,8.752,3.449,8.881,8.343
		c0.127,4.845-3.57,8.804-8.342,8.938c-4.81,0.134-8.787-3.604-8.935-8.4C5.166,147.467,8.877,143.542,13.711,143.43z"/>
	<path fill-rule="evenodd" clip-rule="evenodd" fill="#E9F4F5" d="M93.43,136.813c-0.029,1.577-0.577,2.821-2.17,3.399
		C91.437,138.731,92.198,137.622,93.43,136.813z"/>
</g>
</svg>
