<?xml version="1.0" encoding="utf-8"?>
<!-- Generator: Adobe Illustrator 16.0.0, SVG Export Plug-In . SVG Version: 6.00 Build 0)  -->
<!DOCTYPE svg PUBLIC "-//W3C//DTD SVG 1.1//EN" "http://www.w3.org/Graphics/SVG/1.1/DTD/svg11.dtd">
<svg version="1.1" id="Calque_2" xmlns="http://www.w3.org/2000/svg" xmlns:xlink="http://www.w3.org/1999/xlink" x="0px" y="0px"
	 width="292px" height="292px" viewBox="0 0 292 292" enable-background="new 0 0 292 292" xml:space="preserve">
<path fill-rule="evenodd" clip-rule="evenodd" fill="#EAECEC" d="M76.213,116.462c-0.103-0.194-0.054-0.337,0.147-0.428
	c1.06-0.663,1.788-1.594,2.373-2.695c3.466-6.54,8.145-8.226,15.075-5.447c2.142,0.86,4.456,1.494,4.061,4.691
	c-0.253,2.057,1.097,1.382,2.101,0.901c2.61-1.252,5.063-2.907,8.2-2.583c0.848,0.087,2.253,0.334,2.292-1.044
	c0.032-1.133-1.258-1.286-2.155-1.62c-0.961-0.359-2.551,0.175-2.763-1.199c-0.208-1.35,1.255-1.918,2.176-2.672
	c6.314-5.171,13.846-5.814,21.402-4.952c9.739,1.11,19.225,3.205,24.591,12.98c2.593,4.721,2.711,4.703-1.896,7.577
	c-2.567,1.604-4.968,3.379-6.308,6.294c4.852-1.877,9.588-3.807,14.678-4.102c8.833-0.508,15.316,1.792,19.085,9.073
	c1.593,3.075,1.111,3.999-2.263,4.558c-2.028,0.336-4.275,0.232-6.296,2.52c6.009-0.188,11.203,0.479,15.617,3.995
	c0.766,0.608,1.761,0.608,1.819-0.699c0.111-2.51,1.585-1.785,3.054-1.497c2.755,0.541,4.816,2.941,7.79,2.839l-0.045-0.049
	c-0.11,3.941,1.792,6.261,5.515,7.548c4.05,1.398,5.714,4.232,5.274,8.088c-0.419,3.655-3.365,6.54-7.309,6.987
	c-1.563,0.179-3.154,0.119-4.733,0.121c-35.972,0.006-71.943-0.013-107.916,0.025c-4.743,0.005-9.507,0.101-14.157-0.824
	c-16.3-3.24-22.991-17.355-18.277-31.654c2.356-7.149,8.005-12.379,15.835-14.361C74.531,118.492,75.661,117.84,76.213,116.462z"/>
</svg>
