<?xml version="1.0" encoding="utf-8"?>
<!-- Generator: Adobe Illustrator 16.0.0, SVG Export Plug-In . SVG Version: 6.00 Build 0)  -->
<!DOCTYPE svg PUBLIC "-//W3C//DTD SVG 1.1//EN" "http://www.w3.org/Graphics/SVG/1.1/DTD/svg11.dtd">
<svg version="1.1" id="Calque_1" xmlns="http://www.w3.org/2000/svg" xmlns:xlink="http://www.w3.org/1999/xlink" x="0px" y="0px"
	 width="30.333px" height="39.333px" viewBox="0 0 30.333 39.333" enable-background="new 0 0 30.333 39.333" xml:space="preserve">
<g>
	<path fill-rule="evenodd" clip-rule="evenodd" fill="#8C6239" d="M17.4,35.011c-1.295,2.12-2.066,0.377-2.683-0.486
		c-3.446-4.831-6.81-9.722-10.198-14.595c-0.478-0.688-0.933-1.391-1.398-2.088c0.851-0.695,1.735-0.007,2.602-0.063
		c1.197,1.906,2.393,3.813,3.588,5.719c-0.588,0.627-0.765,1.217-0.181,2.023c1.343,1.854,2.618,3.76,3.864,5.681
		c0.473,0.728,0.946,0.9,1.643,0.373C15.559,32.72,16.479,33.865,17.4,35.011z"/>
	<path fill-rule="evenodd" clip-rule="evenodd" fill="#C1272D" d="M22.354,27.518c-1.425-0.583-2.979-0.934-4.009-2.229
		c-0.033-0.13-0.006-0.249,0.083-0.357c0.744-0.201,1.116,0.47,1.669,0.718c0.997,0.447,2.04,0.133,2.342-0.691
		c0.306-0.837,0.038-2.216-1.119-2.348c-1.969-0.224-3.961-0.974-5.971-0.183c-0.146-0.287-0.293-0.574-0.439-0.861
		c0.062-0.344,0.123-0.688,0.184-1.031c0.105-0.095,0.154-0.212,0.149-0.352c0.088-0.121,0.176-0.24,0.265-0.361
		c0.769-1.085,1.862-0.275,2.783-0.477c2.578,2.258,6.357,3.459,6.733,7.653l-0.144-0.018C23.73,25.707,23.264,27.652,22.354,27.518
		z"/>
	<path fill-rule="evenodd" clip-rule="evenodd" fill="#C1272D" d="M18.429,24.931c-0.089,0.108-0.116,0.228-0.083,0.357
		c-0.51,0.48-1,0.984-1.535,1.435c-0.883,0.742-1.226,1.58-0.349,2.5c0.753,0.789,0.54,1.625,0.345,2.5
		c-0.729,0.238-1.063-1.21-1.914-0.448c-0.215-0.197-0.43-0.396-0.646-0.593c0.973-0.736,0.416-1.833,0.646-2.744
		c0.365-0.874,0.678-1.774,1.107-2.615C16.602,24.142,17.423,23.843,18.429,24.931z"/>
	<path fill-rule="evenodd" clip-rule="evenodd" fill="#808080" d="M25.024,26.998c1.04-0.177,1.407,0.872,2.175,1.192
		c0.092,0.11,0.184,0.221,0.276,0.331c-0.937,0.897-0.939,2.538-2.402,3.016c-1.445-0.33-2.394-1.033-2.037-2.716
		c1.11-0.117,0.995-1.462,1.845-1.841L25.024,26.998z"/>
	<path fill-rule="evenodd" clip-rule="evenodd" fill="#C1272D" d="M18.413,10.107c-0.859,1.356-1.721,2.714-2.58,4.07
		c-0.241,0.312-0.481,0.624-0.722,0.937c-0.359-0.922-0.719-1.844-1.078-2.766c1.219-0.791,2.069-1.937,2.947-3.056
		C17.633,9.257,18.098,9.553,18.413,10.107z"/>
	<path fill-rule="evenodd" clip-rule="evenodd" fill="#42210B" d="M14.893,31.274c0.851-0.762,1.185,0.687,1.914,0.448
		c0.744,0.519,1.292,1.207,1.785,1.964c0.313,0.481,0.713,1.005,0.302,1.482c-0.438,0.506-1.001,0.024-1.493-0.158
		c-0.921-1.146-1.842-2.291-2.764-3.436C14.727,31.479,14.812,31.378,14.893,31.274z"/>
	<path fill-rule="evenodd" clip-rule="evenodd" fill="#F2F2F2" d="M16.972,1.364c0.739,1.069,1.444,2.141,1.46,3.525
		c0.009,0.756-0.052,1.373-0.992,1.43c0,0-0.002,0.032-0.002,0.031C16.804,5.968,17.1,4.845,16.14,4.724
		c0.046-0.083,0.027-0.147-0.057-0.192c-0.028-0.198-0.057-0.396-0.084-0.595l0.035,0.034C16.9,3.302,15.895,1.958,16.972,1.364z"/>
	<path fill-rule="evenodd" clip-rule="evenodd" fill="#C1272D" d="M16.037,15.849c1.179,0.89,2.197,1.883,2.253,3.496
		c-0.92,0.201-2.014-0.608-2.783,0.477c-0.083-0.06-0.162-0.125-0.237-0.194c1.115-1.368,0.491-2.771,0.083-4.169l0.048-0.161
		C15.612,15.481,15.825,15.665,16.037,15.849z"/>
	<path fill-rule="evenodd" clip-rule="evenodd" fill="#F2F2F2" d="M17.438,6.352l0.002-0.032c-0.065,1.13,0.91,1.624,1.48,2.349
		c0.653,0.83,0.334,1.194-0.506,1.439c-0.316-0.555-0.781-0.851-1.433-0.814c-0.247-0.467-0.494-0.935-0.741-1.401
		C16.639,7.378,17.038,6.864,17.438,6.352z"/>
	<path fill-rule="evenodd" clip-rule="evenodd" fill="#C1272D" d="M25.073,31.537c1.463-0.478,1.466-2.118,2.402-3.016
		c1.085,0.665,0.767,1.606,0.26,2.34C27.114,31.76,26.2,32.261,25.073,31.537z"/>
	<path fill-rule="evenodd" clip-rule="evenodd" fill="#808080" d="M24.881,26.98c-0.85,0.379-0.734,1.724-1.845,1.841
		c-0.227-0.434-0.454-0.869-0.682-1.304C23.264,27.652,23.73,25.707,24.881,26.98z"/>
	<path fill-rule="evenodd" clip-rule="evenodd" fill="#C1272D" d="M13.385,7.805c0.505-0.515,1.01-1.03,1.513-1.545
		c0.315-0.033,0.476-0.213,0.497-0.524c0.248-0.338,0.496-0.675,0.744-1.012c0.961,0.121,0.665,1.244,1.299,1.627
		c-0.399,0.514-0.799,1.027-1.197,1.541c-0.131,0.085-0.26,0.17-0.391,0.255c-0.667-0.028-0.98,0.267-0.869,0.95
		c-0.06,0.613-0.032,1.266-0.724,1.59c-1.405-0.352-1.812,0.497-1.497,1.556c0.737,2.491,1.661,4.927,2.51,7.385
		c0.075,0.069,0.154,0.135,0.237,0.194c-0.088,0.121-0.176,0.24-0.264,0.361c-0.695-0.72-1.644-0.937-2.53-1.275
		c-0.864-0.742-0.692-1.923-1.191-2.818c-0.088-0.987-0.241-1.958-0.662-2.868c-0.089-0.449-0.179-0.898-0.268-1.347
		c0.037-0.118,0.033-0.234-0.014-0.35c0.039-0.147,0.078-0.296,0.118-0.445C11.593,9.987,12.489,8.896,13.385,7.805z"/>
	<path fill-rule="evenodd" clip-rule="evenodd" fill="#C9BE16" d="M10.578,11.524c0.047,0.115,0.051,0.231,0.014,0.35
		C10.409,11.764,10.378,11.649,10.578,11.524z"/>
	<path fill-rule="evenodd" clip-rule="evenodd" fill="#754C24" d="M5.723,17.778c0.91-0.291,1.611,0.112,2.26,0.685
		c0.764,1.051,1.525,2.103,2.288,3.152c0.289,0.861,0.91,1.493,1.485,2.157c-0.142,0.636-0.283,1.271-0.425,1.906
		c-0.674-0.728-1.347-1.454-2.021-2.182C8.115,21.591,6.92,19.685,5.723,17.778z"/>
	<path fill-rule="evenodd" clip-rule="evenodd" fill="#754C24" d="M9.311,23.497c0.674,0.728,1.347,1.454,2.021,2.182l-0.001-0.003
		c0.223,1.024,0.794,1.799,1.679,2.35c-0.895,1.496,0.078,2.12,1.239,2.657c0.215,0.196,0.43,0.395,0.645,0.592
		c-0.081,0.104-0.166,0.204-0.256,0.301c-0.696,0.526-1.17,0.354-1.643-0.374c-1.246-1.921-2.521-3.826-3.864-5.681
		C8.546,24.714,8.723,24.124,9.311,23.497z"/>
	<path fill-rule="evenodd" clip-rule="evenodd" fill="#F2F2F2" d="M18.429,24.931c-1.006-1.088-1.827-0.789-2.429,0.392
		c-0.43,0.841-0.742,1.741-1.107,2.615c-0.544-0.147-1.088-0.294-1.631-0.442c-0.013-0.271-0.025-0.54-0.038-0.812
		c0.317-0.401,0.659-0.794,0.502-1.369c0.835-0.797,0.464-2.272,1.624-2.888c2.01-0.791,4.002-0.041,5.971,0.183
		c1.157,0.132,1.425,1.511,1.119,2.348c-0.302,0.824-1.345,1.139-2.342,0.691C19.545,25.4,19.173,24.729,18.429,24.931z"/>
	<path fill-rule="evenodd" clip-rule="evenodd" fill="#F2F2F2" d="M12.713,18.907c0.887,0.339,1.835,0.556,2.53,1.275
		c0.005,0.14-0.044,0.257-0.149,0.352c-0.364-0.114-0.656,0.024-0.917,0.267l-0.094,0.164C13.626,20.279,13.17,19.593,12.713,18.907
		z"/>
	<path fill-rule="evenodd" clip-rule="evenodd" fill="#F2F2F2" d="M14.177,20.801c0.261-0.242,0.553-0.381,0.917-0.267
		c-0.061,0.344-0.122,0.688-0.184,1.031C14.666,21.311,14.422,21.057,14.177,20.801z"/>
	<path fill-rule="evenodd" clip-rule="evenodd" fill="#666666" d="M13.262,27.495c0.543,0.148,1.087,0.295,1.631,0.442
		c-0.229,0.911,0.327,2.008-0.646,2.744c-1.16-0.536-2.133-1.16-1.238-2.656C13.093,27.849,13.178,27.672,13.262,27.495z"/>
	<path fill-rule="evenodd" clip-rule="evenodd" fill="#F2F2F2" d="M15.27,19.627c-0.849-2.458-1.772-4.894-2.51-7.385
		c-0.314-1.059,0.092-1.907,1.496-1.556c-0.418,0.508-0.812,1.02-0.223,1.662c0.359,0.922,0.719,1.844,1.078,2.766
		c0.092,0.105,0.172,0.221,0.241,0.343C15.761,16.856,16.385,18.259,15.27,19.627z"/>
	<path fill-rule="evenodd" clip-rule="evenodd" fill="#E6E6E6" d="M16.083,4.531c-0.028-0.198-0.056-0.396-0.084-0.595
		C16.026,4.135,16.055,4.333,16.083,4.531z"/>
	<path fill-rule="evenodd" clip-rule="evenodd" fill="#F2F2F2" d="M15.395,5.735c-0.021,0.312-0.182,0.491-0.497,0.524
		C15.064,6.085,15.229,5.91,15.395,5.735z"/>
	<path fill-rule="evenodd" clip-rule="evenodd" fill="#F2F2F2" d="M15.85,8.146c-0.289,0.316-0.579,0.634-0.869,0.95
		C14.869,8.413,15.183,8.118,15.85,8.146z"/>
	<path fill-rule="evenodd" clip-rule="evenodd" fill="#42210B" d="M11.756,23.772c1.432-0.476,1.351,0.979,1.969,1.542
		c0.158,0.575-0.184,0.968-0.501,1.369c-0.546-0.497-1.133-0.916-1.894-1.008l0.001,0.003
		C11.473,25.043,11.614,24.408,11.756,23.772z"/>
	<path fill-rule="evenodd" clip-rule="evenodd" fill="#C69C6D" d="M11.33,25.676c0.761,0.092,1.348,0.511,1.894,1.008
		c0.013,0.271,0.025,0.541,0.038,0.812c-0.084,0.177-0.169,0.354-0.253,0.53C12.124,27.475,11.553,26.7,11.33,25.676z"/>
</g>
</svg>
