<?xml version="1.0" encoding="utf-8"?>
<!-- Generator: Adobe Illustrator 16.0.0, SVG Export Plug-In . SVG Version: 6.00 Build 0)  -->
<!DOCTYPE svg PUBLIC "-//W3C//DTD SVG 1.1//EN" "http://www.w3.org/Graphics/SVG/1.1/DTD/svg11.dtd">
<svg version="1.1" id="Calque_1" xmlns="http://www.w3.org/2000/svg" xmlns:xlink="http://www.w3.org/1999/xlink" x="0px" y="0px"
	 width="1666.59px" height="884.941px" viewBox="0 0 1666.59 884.941" style="enable-background:new 0 0 1666.59 884.941;"
	 xml:space="preserve">
<g>
	<rect x="219" y="189.941" style="fill-rule:evenodd;clip-rule:evenodd;fill:#FFFFFF;" width="1" height="32"/>
	<rect x="204" y="206.941" style="fill-rule:evenodd;clip-rule:evenodd;fill:#FFFFFF;" width="32" height="1"/>
	
		<rect x="219.47" y="190.845" transform="matrix(-0.7068 0.7074 -0.7074 -0.7068 521.7614 197.5766)" style="fill-rule:evenodd;clip-rule:evenodd;fill:#FFFFFF;" width="0.939" height="32.12"/>
	
		<rect x="219.47" y="190.845" transform="matrix(-0.7068 -0.7074 0.7074 -0.7068 229.0463 508.733)" style="fill-rule:evenodd;clip-rule:evenodd;fill:#FFFFFF;" width="0.939" height="32.12"/>
</g>
<g>
	<rect x="843" y="575.941" style="fill-rule:evenodd;clip-rule:evenodd;fill:#FFFFFF;" width="1" height="32"/>
	<rect x="828" y="592.941" style="fill-rule:evenodd;clip-rule:evenodd;fill:#FFFFFF;" width="32" height="1"/>
	
		<rect x="843.47" y="576.845" transform="matrix(-0.7071 0.7071 -0.7071 -0.7071 1859.9425 415.3961)" style="fill-rule:evenodd;clip-rule:evenodd;fill:#FFFFFF;" width="0.939" height="32.119"/>
	
		<rect x="843.47" y="576.845" transform="matrix(-0.7071 -0.7071 0.7071 -0.7071 1021.4482 1608.9082)" style="fill-rule:evenodd;clip-rule:evenodd;fill:#FFFFFF;" width="0.939" height="32.12"/>
</g>
<g>
	<rect x="842" y="849.941" style="fill-rule:evenodd;clip-rule:evenodd;fill:#FFFFFF;" width="1" height="32"/>
	<rect x="827" y="866.941" style="fill-rule:evenodd;clip-rule:evenodd;fill:#FFFFFF;" width="32" height="1"/>
	
		<rect x="842.47" y="850.845" transform="matrix(-0.7071 0.7071 -0.7071 -0.7071 2051.9824 883.8497)" style="fill-rule:evenodd;clip-rule:evenodd;fill:#FFFFFF;" width="0.939" height="32.119"/>
	
		<rect x="842.47" y="850.845" transform="matrix(-0.7071 -0.7071 0.7071 -0.7071 825.9939 2075.9482)" style="fill-rule:evenodd;clip-rule:evenodd;fill:#FFFFFF;" width="0.939" height="32.12"/>
</g>
<g>
	<rect x="1306" y="14.941" style="fill-rule:evenodd;clip-rule:evenodd;fill:#FFFFFF;" width="1" height="32"/>
	<rect x="1291" y="31.941" style="fill-rule:evenodd;clip-rule:evenodd;fill:#FFFFFF;" width="32" height="1"/>
	
		<rect x="1306.47" y="15.845" transform="matrix(-0.7066 0.7076 -0.7076 -0.7066 2252.9834 -870.3766)" style="fill-rule:evenodd;clip-rule:evenodd;fill:#FFFFFF;" width="0.94" height="32.119"/>
	
		<rect x="1306.47" y="15.845" transform="matrix(-0.7066 -0.7076 0.7076 -0.7066 2207.8301 979.2732)" style="fill-rule:evenodd;clip-rule:evenodd;fill:#FFFFFF;" width="0.94" height="32.119"/>
</g>
<g>
	<rect x="1072" y="142.941" style="fill-rule:evenodd;clip-rule:evenodd;fill:#FFFFFF;" width="1" height="32"/>
	<rect x="1057" y="159.941" style="fill-rule:evenodd;clip-rule:evenodd;fill:#FFFFFF;" width="32" height="1"/>
	
		<rect x="1072.47" y="143.845" transform="matrix(-0.7068 0.7074 -0.7074 -0.7068 1944.4556 -486.0288)" style="fill-rule:evenodd;clip-rule:evenodd;fill:#FFFFFF;" width="0.939" height="32.12"/>
	
		<rect x="1072.47" y="143.845" transform="matrix(-0.7068 -0.7074 0.7074 -0.7068 1718.233 1031.8948)" style="fill-rule:evenodd;clip-rule:evenodd;fill:#FFFFFF;" width="0.939" height="32.12"/>
</g>
<g>
	<rect x="831" y="56.941" style="fill-rule:evenodd;clip-rule:evenodd;fill:#FFFFFF;" width="1" height="32"/>
	<rect x="816" y="73.941" style="fill-rule:evenodd;clip-rule:evenodd;fill:#FFFFFF;" width="32" height="1"/>
	
		<rect x="831.47" y="57.845" transform="matrix(-0.7068 0.7074 -0.7074 -0.7068 1472.272 -462.3423)" style="fill-rule:evenodd;clip-rule:evenodd;fill:#FFFFFF;" width="0.939" height="32.12"/>
	
		<rect x="831.47" y="57.845" transform="matrix(-0.7068 -0.7074 0.7074 -0.7068 1367.7163 714.6306)" style="fill-rule:evenodd;clip-rule:evenodd;fill:#FFFFFF;" width="0.939" height="32.12"/>
</g>
<g>
	<rect x="15" y="5.941" style="fill-rule:evenodd;clip-rule:evenodd;fill:#FFFFFF;" width="1" height="32"/>
	<rect y="22.941" style="fill-rule:evenodd;clip-rule:evenodd;fill:#FFFFFF;" width="32" height="1"/>
	
		<rect x="15.47" y="6.845" transform="matrix(-0.7068 0.7074 -0.7074 -0.7068 43.4091 27.8196)" style="fill-rule:evenodd;clip-rule:evenodd;fill:#FFFFFF;" width="0.939" height="32.12"/>
	
		<rect x="15.47" y="6.845" transform="matrix(-0.7068 -0.7074 0.7074 -0.7068 11.005 50.3703)" style="fill-rule:evenodd;clip-rule:evenodd;fill:#FFFFFF;" width="0.939" height="32.12"/>
</g>
<g>
	<rect x="504" y="852.941" style="fill-rule:evenodd;clip-rule:evenodd;fill:#FFFFFF;" width="1" height="32"/>
	<rect x="489" y="869.941" style="fill-rule:evenodd;clip-rule:evenodd;fill:#FFFFFF;" width="32" height="1"/>
	
		<rect x="504.47" y="853.845" transform="matrix(-0.7071 0.7071 -0.7071 -0.7071 1477.1016 1127.9731)" style="fill-rule:evenodd;clip-rule:evenodd;fill:#FFFFFF;" width="0.939" height="32.119"/>
	
		<rect x="504.47" y="853.845" transform="matrix(-0.7071 -0.7071 0.7071 -0.7071 246.8705 1842.0676)" style="fill-rule:evenodd;clip-rule:evenodd;fill:#FFFFFF;" width="0.939" height="32.12"/>
</g>
<g>
	<rect x="1588" y="513.941" style="fill-rule:evenodd;clip-rule:evenodd;fill:#FFFFFF;" width="1" height="32"/>
	<rect x="1573" y="530.941" style="fill-rule:evenodd;clip-rule:evenodd;fill:#FFFFFF;" width="32" height="1"/>
	
		<rect x="1588.47" y="514.845" transform="matrix(-0.7071 0.7071 -0.7071 -0.7071 3087.8965 -217.239)" style="fill-rule:evenodd;clip-rule:evenodd;fill:#FFFFFF;" width="0.939" height="32.119"/>
	
		<rect x="1588.47" y="514.845" transform="matrix(-0.7071 -0.7071 0.7071 -0.7071 2337.0835 2029.8622)" style="fill-rule:evenodd;clip-rule:evenodd;fill:#FFFFFF;" width="0.939" height="32.12"/>
</g>
<g>
	<rect x="1266" y="548.941" style="fill-rule:evenodd;clip-rule:evenodd;fill:#FFFFFF;" width="1" height="32"/>
	<rect x="1251" y="565.941" style="fill-rule:evenodd;clip-rule:evenodd;fill:#FFFFFF;" width="32" height="1"/>
	
		<rect x="1266.47" y="549.845" transform="matrix(-0.7071 0.7071 -0.7071 -0.7071 2562.9568 70.1981)" style="fill-rule:evenodd;clip-rule:evenodd;fill:#FFFFFF;" width="0.939" height="32.119"/>
	
		<rect x="1266.47" y="549.845" transform="matrix(-0.7071 -0.7071 0.7071 -0.7071 1762.6462 1861.9226)" style="fill-rule:evenodd;clip-rule:evenodd;fill:#FFFFFF;" width="0.939" height="32.12"/>
</g>
<g>
	<rect x="319" y="326.941" style="fill-rule:evenodd;clip-rule:evenodd;fill:#FFFFFF;" width="1" height="32"/>
	<rect x="304" y="343.941" style="fill-rule:evenodd;clip-rule:evenodd;fill:#FFFFFF;" width="32" height="1"/>
	
		<rect x="319.47" y="327.845" transform="matrix(-0.7068 0.7074 -0.7074 -0.7068 789.3552 360.678)" style="fill-rule:evenodd;clip-rule:evenodd;fill:#FFFFFF;" width="0.939" height="32.12"/>
	
		<rect x="319.47" y="327.845" transform="matrix(-0.7068 -0.7074 0.7074 -0.7068 302.8218 813.3076)" style="fill-rule:evenodd;clip-rule:evenodd;fill:#FFFFFF;" width="0.939" height="32.12"/>
</g>
<g>
	<rect x="1367" y="326.941" style="fill-rule:evenodd;clip-rule:evenodd;fill:#FFFFFF;" width="1" height="32"/>
	<rect x="1352" y="343.941" style="fill-rule:evenodd;clip-rule:evenodd;fill:#FFFFFF;" width="32" height="1"/>
	
		<rect x="1367.47" y="327.845" transform="matrix(-0.7068 0.7074 -0.7074 -0.7068 2578.1309 -380.6421)" style="fill-rule:evenodd;clip-rule:evenodd;fill:#FFFFFF;" width="0.939" height="32.12"/>
	
		<rect x="1367.47" y="327.845" transform="matrix(-0.7068 -0.7074 0.7074 -0.7068 2091.5974 1554.6278)" style="fill-rule:evenodd;clip-rule:evenodd;fill:#FFFFFF;" width="0.939" height="32.12"/>
</g>
<g>
	<rect x="1164" y="310.941" style="fill-rule:evenodd;clip-rule:evenodd;fill:#FFFFFF;" width="1" height="32"/>
	<rect x="1149" y="327.941" style="fill-rule:evenodd;clip-rule:evenodd;fill:#FFFFFF;" width="32" height="1"/>
	
		<rect x="1164.47" y="311.845" transform="matrix(-0.7068 0.7074 -0.7074 -0.7068 2220.3232 -264.3562)" style="fill-rule:evenodd;clip-rule:evenodd;fill:#FFFFFF;" width="0.939" height="32.12"/>
	
		<rect x="1164.47" y="311.845" transform="matrix(-0.7068 -0.7074 0.7074 -0.7068 1756.4253 1383.7228)" style="fill-rule:evenodd;clip-rule:evenodd;fill:#FFFFFF;" width="0.939" height="32.12"/>
</g>
<g>
	<rect x="1636" y="69.941" style="fill-rule:evenodd;clip-rule:evenodd;fill:#FFFFFF;" width="1" height="32"/>
	<rect x="1621" y="86.941" style="fill-rule:evenodd;clip-rule:evenodd;fill:#FFFFFF;" width="32" height="1"/>
	
		<rect x="1636.47" y="70.845" transform="matrix(-0.7068 0.7074 -0.7074 -0.7068 2855.4795 -1009.5834)" style="fill-rule:evenodd;clip-rule:evenodd;fill:#FFFFFF;" width="0.939" height="32.12"/>
	
		<rect x="1636.47" y="70.845" transform="matrix(-0.7068 -0.7074 0.7074 -0.7068 2732.5325 1306.2496)" style="fill-rule:evenodd;clip-rule:evenodd;fill:#FFFFFF;" width="0.939" height="32.12"/>
</g>
<g>
	<rect x="973" y="682.941" style="fill-rule:evenodd;clip-rule:evenodd;fill:#FFFFFF;" width="1" height="32"/>
	<rect x="958" y="699.941" style="fill-rule:evenodd;clip-rule:evenodd;fill:#FFFFFF;" width="32" height="1"/>
	
		<rect x="973.47" y="683.845" transform="matrix(-0.7071 0.7071 -0.7071 -0.7071 2157.5264 506.1319)" style="fill-rule:evenodd;clip-rule:evenodd;fill:#FFFFFF;" width="0.939" height="32.119"/>
	
		<rect x="973.47" y="683.845" transform="matrix(-0.7071 -0.7071 0.7071 -0.7071 1167.7117 1883.4926)" style="fill-rule:evenodd;clip-rule:evenodd;fill:#FFFFFF;" width="0.939" height="32.12"/>
</g>
<g>
	<rect x="394" y="218.941" style="fill-rule:evenodd;clip-rule:evenodd;fill:#FFFFFF;" width="1" height="32"/>
	<rect x="379" y="235.941" style="fill-rule:evenodd;clip-rule:evenodd;fill:#FFFFFF;" width="32" height="1"/>
	
		<rect x="394.47" y="219.845" transform="matrix(-0.7068 0.7074 -0.7074 -0.7068 840.9731 123.2861)" style="fill-rule:evenodd;clip-rule:evenodd;fill:#FFFFFF;" width="0.939" height="32.12"/>
	
		<rect x="394.47" y="219.845" transform="matrix(-0.7068 -0.7074 0.7074 -0.7068 507.2309 682.0207)" style="fill-rule:evenodd;clip-rule:evenodd;fill:#FFFFFF;" width="0.939" height="32.12"/>
</g>
<g>
	<rect x="57" y="464.941" style="fill-rule:evenodd;clip-rule:evenodd;fill:#FFFFFF;" width="1" height="32"/>
	<rect x="42" y="481.941" style="fill-rule:evenodd;clip-rule:evenodd;fill:#FFFFFF;" width="32" height="1"/>
	
		<rect x="57.47" y="465.845" transform="matrix(-0.7071 0.7071 -0.7071 -0.7071 439.6678 781.6932)" style="fill-rule:evenodd;clip-rule:evenodd;fill:#FFFFFF;" width="0.939" height="32.119"/>
	
		<rect x="57.47" y="465.845" transform="matrix(-0.7071 -0.7071 0.7071 -0.7071 -241.8488 863.6335)" style="fill-rule:evenodd;clip-rule:evenodd;fill:#FFFFFF;" width="0.939" height="32.12"/>
</g>
<g>
	<rect x="492" y="564.941" style="fill-rule:evenodd;clip-rule:evenodd;fill:#FFFFFF;" width="1" height="32"/>
	<rect x="477" y="581.941" style="fill-rule:evenodd;clip-rule:evenodd;fill:#FFFFFF;" width="32" height="1"/>
	
		<rect x="492.47" y="565.845" transform="matrix(-0.7071 0.7071 -0.7071 -0.7071 1252.97 644.8124)" style="fill-rule:evenodd;clip-rule:evenodd;fill:#FFFFFF;" width="0.939" height="32.119"/>
	
		<rect x="492.47" y="565.845" transform="matrix(-0.7071 -0.7071 0.7071 -0.7071 430.032 1341.9355)" style="fill-rule:evenodd;clip-rule:evenodd;fill:#FFFFFF;" width="0.939" height="32.12"/>
</g>
<g>
	<rect x="58" y="216.941" style="fill-rule:evenodd;clip-rule:evenodd;fill:#FFFFFF;" width="1" height="45"/>
	<rect x="36" y="240.941" style="fill-rule:evenodd;clip-rule:evenodd;fill:#FFFFFF;" width="45" height="1"/>
	
		<rect x="57.851" y="218.651" transform="matrix(-0.7071 0.7071 -0.7071 -0.7071 270.1704 369.7861)" style="fill-rule:evenodd;clip-rule:evenodd;fill:#FFFFFF;" width="1.298" height="44.393"/>
	
		<rect x="57.851" y="218.651" transform="matrix(-0.7071 -0.7071 0.7071 -0.7071 -70.4389 452.5176)" style="fill-rule:evenodd;clip-rule:evenodd;fill:#FFFFFF;" width="1.298" height="44.393"/>
</g>
<g>
	<rect x="1386" y="158.941" style="fill-rule:evenodd;clip-rule:evenodd;fill:#FFFFFF;" width="1" height="45"/>
	<rect x="1364" y="182.941" style="fill-rule:evenodd;clip-rule:evenodd;fill:#FFFFFF;" width="45" height="1"/>
	
		<rect x="1385.851" y="160.651" transform="matrix(-0.7071 0.7071 -0.7071 -0.7071 2496.196 -668.2639)" style="fill-rule:evenodd;clip-rule:evenodd;fill:#FFFFFF;" width="1.298" height="44.393"/>
	
		<rect x="1385.851" y="160.651" transform="matrix(-0.7071 -0.7071 0.7071 -0.7071 2237.6111 1292.5432)" style="fill-rule:evenodd;clip-rule:evenodd;fill:#FFFFFF;" width="1.298" height="44.393"/>
</g>
<g>
	<rect x="1000" y="385.941" style="fill-rule:evenodd;clip-rule:evenodd;fill:#FFFFFF;" width="1" height="21"/>
	<rect x="990" y="396.941" style="fill-rule:evenodd;clip-rule:evenodd;fill:#FFFFFF;" width="21" height="1"/>
	
		<rect x="1000.207" y="386.833" transform="matrix(-0.7079 0.7063 -0.7063 -0.7079 1989.0778 -28.8308)" style="fill-rule:evenodd;clip-rule:evenodd;fill:#FFFFFF;" width="0.586" height="20.035"/>
	
		<rect x="1000.207" y="386.833" transform="matrix(-0.7079 -0.7063 0.7063 -0.7079 1428.5083 1384.4225)" style="fill-rule:evenodd;clip-rule:evenodd;fill:#FFFFFF;" width="0.586" height="20.035"/>
</g>
<g>
	<rect x="817" y="250.941" style="fill-rule:evenodd;clip-rule:evenodd;fill:#FFFFFF;" width="1" height="21"/>
	<rect x="807" y="261.941" style="fill-rule:evenodd;clip-rule:evenodd;fill:#FFFFFF;" width="21" height="1"/>
	
		<rect x="817.207" y="251.832" transform="matrix(-0.7079 0.7063 -0.7063 -0.7079 1581.1779 -130.155)" style="fill-rule:evenodd;clip-rule:evenodd;fill:#FFFFFF;" width="0.586" height="20.035"/>
	
		<rect x="817.207" y="251.833" transform="matrix(-0.7079 -0.7063 0.7063 -0.7079 1211.3025 1024.6025)" style="fill-rule:evenodd;clip-rule:evenodd;fill:#FFFFFF;" width="0.586" height="20.035"/>
</g>
<g>
	<rect x="541" y="428.941" style="fill-rule:evenodd;clip-rule:evenodd;fill:#FFFFFF;" width="1" height="21"/>
	<rect x="531" y="439.941" style="fill-rule:evenodd;clip-rule:evenodd;fill:#FFFFFF;" width="21" height="1"/>
	
		<rect x="541.207" y="429.833" transform="matrix(-0.7079 0.7063 -0.7063 -0.7079 1235.5035 368.7901)" style="fill-rule:evenodd;clip-rule:evenodd;fill:#FFFFFF;" width="0.586" height="20.035"/>
	
		<rect x="541.207" y="429.833" transform="matrix(-0.7079 -0.7063 0.7063 -0.7079 614.1946 1133.6843)" style="fill-rule:evenodd;clip-rule:evenodd;fill:#FFFFFF;" width="0.586" height="20.035"/>
</g>
<g>
	<rect x="623" y="168.941" style="fill-rule:evenodd;clip-rule:evenodd;fill:#FFFFFF;" width="1" height="21"/>
	<rect x="613" y="179.941" style="fill-rule:evenodd;clip-rule:evenodd;fill:#FFFFFF;" width="21" height="1"/>
	
		<rect x="623.207" y="169.832" transform="matrix(-0.7079 0.7063 -0.7063 -0.7079 1191.9232 -133.1889)" style="fill-rule:evenodd;clip-rule:evenodd;fill:#FFFFFF;" width="0.586" height="20.035"/>
	
		<rect x="623.207" y="169.833" transform="matrix(-0.7079 -0.7063 0.7063 -0.7079 937.8767 747.5345)" style="fill-rule:evenodd;clip-rule:evenodd;fill:#FFFFFF;" width="0.586" height="20.035"/>
</g>
</svg>
