<?xml version="1.0" encoding="utf-8"?>
<!-- Generator: Adobe Illustrator 16.0.0, SVG Export Plug-In . SVG Version: 6.00 Build 0)  -->
<!DOCTYPE svg PUBLIC "-//W3C//DTD SVG 1.1//EN" "http://www.w3.org/Graphics/SVG/1.1/DTD/svg11.dtd">
<svg version="1.1" id="Calque_1" xmlns="http://www.w3.org/2000/svg" xmlns:xlink="http://www.w3.org/1999/xlink" x="0px" y="0px"
	 width="557.354px" height="83.294px" viewBox="0 0 557.354 83.294" style="enable-background:new 0 0 557.354 83.294;"
	 xml:space="preserve">
<g>
	<path style="fill:#343434;" d="M7.4,7.013h12.221l12.221,57.569h0.202L44.971,7.013h12.221l-18.18,72.112H24.368L7.4,7.013z"/>
	<path style="fill:#343434;" d="M78.099,23.375c15.856,0,20.3,11.716,20.3,28.583s-5.151,28.583-20.3,28.583
		c-15.049,0-20.2-11.716-20.2-28.583S62.343,23.375,78.099,23.375z M78.099,72.459c7.979,0,9.393-6.666,9.393-20.502
		c0-12.019-1.414-20.502-9.393-20.502c-7.878,0-9.292,8.484-9.292,20.502C68.807,65.794,70.221,72.459,78.099,72.459z"/>
	<path style="fill:#343434;" d="M134.558,72.763h-0.303c-2.727,4.848-7.877,7.777-13.938,7.777c-8.08,0-13.534-3.737-13.534-17.776
		V24.789h10.908v38.985c0,6.06,2.727,8.08,7.373,8.08c4.646,0,8.888-3.03,8.888-9.09V24.789h10.908v54.337h-10.302V72.763z"/>
	<path style="fill:#343434;" d="M178.794,40.646v-1.414c0-4.343-1.515-8.383-7.171-8.383c-4.343,0-7.777,2.02-7.777,7.07
		c0,4.242,1.919,5.959,7.676,7.979l6.969,2.424c8.08,2.727,11.817,7.07,11.817,15.654c0,11.615-8.484,16.564-19.493,16.564
		c-13.736,0-17.876-6.363-17.876-16.867v-2.02h9.696v1.717c0,6.262,2.222,9.696,8.483,9.696c5.959,0,8.888-3.03,8.888-7.979
		c0-4.04-2.121-6.666-5.959-7.979l-8.888-3.131c-8.181-2.828-11.615-6.969-11.615-15.655c0-10.201,7.373-14.948,18.583-14.948
		c13.837,0,16.968,8.08,16.968,14.847v2.424H178.794z"/>
	<path style="fill:#343434;" d="M246.059,40.646v-1.414c0-4.343-1.515-8.383-7.171-8.383c-4.343,0-7.777,2.02-7.777,7.07
		c0,4.242,1.919,5.959,7.676,7.979l6.969,2.424c8.08,2.727,11.817,7.07,11.817,15.654c0,11.615-8.484,16.564-19.493,16.564
		c-13.736,0-17.876-6.363-17.876-16.867v-2.02h9.696v1.717c0,6.262,2.222,9.696,8.483,9.696c5.959,0,8.888-3.03,8.888-7.979
		c0-4.04-2.121-6.666-5.959-7.979l-8.888-3.131c-8.181-2.828-11.615-6.969-11.615-15.655c0-10.201,7.373-14.948,18.583-14.948
		c13.837,0,16.968,8.08,16.968,14.847v2.424H246.059z"/>
	<path style="fill:#343434;" d="M283.731,23.375c15.856,0,20.301,11.716,20.301,28.583s-5.151,28.583-20.301,28.583
		c-15.049,0-20.2-11.716-20.2-28.583S267.976,23.375,283.731,23.375z M283.731,72.459c7.979,0,9.393-6.666,9.393-20.502
		c0-12.019-1.413-20.502-9.393-20.502c-7.878,0-9.292,8.484-9.292,20.502C274.439,65.794,275.854,72.459,283.731,72.459z"/>
	<path style="fill:#343434;" d="M340.189,72.763h-0.303c-2.727,4.848-7.878,7.777-13.938,7.777c-8.08,0-13.533-3.737-13.533-17.776
		V24.789h10.907v38.985c0,6.06,2.728,8.08,7.373,8.08s8.888-3.03,8.888-9.09V24.789h10.907v54.337h-10.302V72.763z"/>
	<path style="fill:#343434;" d="M360.995,7.013h10.908v23.633l0.303,0.202c3.029-4.646,7.776-7.474,13.331-7.474
		c8.282,0,13.534,3.737,13.534,14.746v41.005h-10.908V41.857c0-7.07-2.12-9.797-7.574-9.797c-4.444,0-8.686,3.535-8.686,10.604
		v36.46h-10.908V7.013z"/>
	<path style="fill:#343434;" d="M445.228,67.813c0,2.02,1.212,3.838,2.828,3.838c0.707,0,1.414-0.101,1.817-0.303v7.07
		c-1.313,0.606-3.231,1.313-5.353,1.313c-4.848,0-8.888-1.919-9.19-7.171h-0.202c-2.93,5.353-7.171,7.979-13.534,7.979
		c-8.686,0-14.14-4.848-14.14-15.251c0-12.12,5.252-14.645,12.625-17.068l8.483-2.323c3.939-1.111,6.363-2.222,6.363-6.969
		c0-4.949-1.717-8.08-7.474-8.08c-7.272,0-8.282,5.151-8.282,10.403h-10.302c0-11.514,4.747-17.877,19.089-17.877
		c9.595,0,17.271,3.737,17.271,13.332V67.813z M434.926,50.442c-2.828,2.222-8.888,3.535-12.12,5.05
		c-3.131,1.515-4.443,4.747-4.443,8.787c0,4.545,2.222,8.181,6.767,8.181c6.564,0,9.797-4.949,9.797-12.928V50.442z"/>
	<path style="fill:#343434;" d="M456.843,6.205h10.908v10.908h-10.908V6.205z M456.843,24.789h10.908v54.337h-10.908V24.789z"/>
	<path style="fill:#343434;" d="M473.911,24.789h7.474V9.336h10.907v15.453h8.889v8.08h-8.889v32.42
		c0,4.242,1.213,5.757,4.949,5.757c1.616,0,2.929-0.101,3.939-0.303v8.08c-2.323,0.606-5.354,0.909-8.787,0.909
		c-7.373,0-11.009-2.02-11.009-13.13V32.869h-7.474V24.789z"/>
	<path style="fill:#343434;" d="M516.229,53.371v3.131c0,7.272,0.909,16.563,9.09,16.563c7.777,0,8.686-8.888,8.686-12.12h10.302
		c0,12.019-7.271,19.594-19.088,19.594c-8.888,0-19.896-2.626-19.896-27.774c0-14.241,3.029-29.391,20.099-29.391
		c15.149,0,19.189,9.09,19.189,24.24v5.757H516.229z M533.702,45.897v-2.929c0-6.868-2.222-12.12-8.383-12.12
		c-6.969,0-9.09,6.868-9.09,13.938v1.111H533.702z"/>
</g>
</svg>
