<?xml version="1.0" encoding="utf-8"?>
<!-- Generator: Adobe Illustrator 16.0.0, SVG Export Plug-In . SVG Version: 6.00 Build 0)  -->
<!DOCTYPE svg PUBLIC "-//W3C//DTD SVG 1.1//EN" "http://www.w3.org/Graphics/SVG/1.1/DTD/svg11.dtd">
<svg version="1.1" id="Calque_1" xmlns="http://www.w3.org/2000/svg" xmlns:xlink="http://www.w3.org/1999/xlink" x="0px" y="0px"
	 width="791.177px" height="127.941px" viewBox="0 0 791.177 127.941" style="enable-background:new 0 0 791.177 127.941;"
	 xml:space="preserve">
<g>
	<path style="fill:#D82042;" d="M50.941,15.618L35.937,85.556c2.581,2.099,5.203,3.146,7.865,3.146c2.984,0,5.706-0.826,8.168-2.48
		c2.459-1.652,4.677-3.891,6.655-6.715c1.976-2.823,3.67-6.069,5.082-9.741c1.41-3.67,2.602-7.521,3.569-11.556
		c0.968-4.033,1.694-8.107,2.178-12.221c0.484-4.114,0.726-8.026,0.726-11.737c0-4.758-0.444-8.772-1.331-12.04
		c-0.889-3.267-2.22-5.908-3.993-7.925c-1.775-2.015-4.014-3.467-6.715-4.356C55.437,9.044,52.312,8.6,48.763,8.6
		c-4.114,0-8.167,0.687-12.161,2.057c-3.993,1.373-7.543,3.348-10.648,5.929c-3.106,2.583-5.608,5.748-7.502,9.499
		c-1.896,3.751-2.844,8.007-2.844,12.766c0,2.501,0.524,4.417,1.573,5.748c1.047,1.331,1.894,2.28,2.541,2.843
		c-4.035,0-7.2-0.847-9.499-2.541c-2.299-1.694-3.449-4.598-3.449-8.712c0-4.114,1.21-8.107,3.63-11.979
		c2.42-3.872,5.667-7.279,9.741-10.224c4.072-2.944,8.792-5.303,14.157-7.079c5.363-1.773,11.03-2.662,17-2.662
		c5.968,0,11.03,0.908,15.185,2.723c4.154,1.815,7.542,4.337,10.164,7.563c2.621,3.227,4.517,6.999,5.687,11.313
		c1.168,4.316,1.755,8.975,1.755,13.976c0,4.437-0.444,8.914-1.331,13.431c-0.889,4.519-2.139,8.875-3.751,13.068
		c-1.615,4.195-3.49,8.148-5.626,11.858c-2.139,3.711-4.458,6.917-6.958,9.619c-2.501,2.704-5.124,4.84-7.865,6.413
		c-2.743,1.573-5.486,2.36-8.228,2.36c-2.42,0-4.881-0.565-7.381-1.694c-2.501-1.128-5.124-2.904-7.865-5.324l-1.089,5.445h-13.31
		l16.698-77.561L50.941,15.618z"/>
	<path style="fill:#D82042;" d="M129.711,46.352c0,6.857-2.671,12.403-8.014,16.638s-12.714,6.836-22.115,7.804
		c-0.081,0.647-0.121,1.271-0.121,1.875s0,1.231,0,1.875c0,4.114,0.783,7.139,2.348,9.075s4.275,2.904,8.128,2.904
		c5.458,0,10.234-1.936,14.329-5.808c-0.484,2.985-1.373,5.445-2.662,7.381c-1.291,1.936-2.825,3.469-4.598,4.598
		c-1.775,1.13-3.772,1.917-5.99,2.359c-2.22,0.442-4.538,0.666-6.958,0.666c-2.34,0-4.579-0.363-6.715-1.089
		c-2.139-0.726-4.035-1.855-5.687-3.388c-1.654-1.531-2.985-3.528-3.993-5.99c-1.01-2.459-1.513-5.424-1.513-8.893
		c0-2.258,0.242-4.88,0.726-7.865c0.484-2.983,1.229-6.05,2.239-9.196c1.008-3.146,2.338-6.25,3.993-9.317
		c1.653-3.064,3.609-5.787,5.869-8.167c2.257-2.378,4.859-4.295,7.805-5.747c2.943-1.452,6.271-2.178,9.982-2.178
		c1.694,0,3.307,0.182,4.84,0.544c1.532,0.363,2.904,1.01,4.114,1.936c1.21,0.928,2.178,2.199,2.904,3.812
		C129.349,41.795,129.711,43.852,129.711,46.352z M117.878,39.818c-2.246,0-4.333,0.786-6.258,2.359
		c-1.926,1.573-3.632,3.611-5.116,6.11c-1.484,2.501-2.768,5.305-3.85,8.41c-1.083,3.106-1.906,6.231-2.467,9.377
		c6.738-1.047,12.113-3.428,16.125-7.139c4.012-3.709,6.018-8.307,6.018-13.794c0-1.371-0.261-2.602-0.783-3.69
		S119.803,39.818,117.878,39.818z"/>
	<path style="fill:#D82042;" d="M216.587,4.244l-18.15,85.91c-0.968,4.437-2.238,8.489-3.812,12.16
		c-1.573,3.67-3.569,6.816-5.989,9.438c-2.42,2.621-5.305,4.66-8.652,6.111c-3.348,1.453-7.281,2.178-11.797,2.178
		c-3.469,0-6.394-0.424-8.772-1.27c-2.378-0.848-4.314-2.018-5.808-3.51c-1.492-1.494-2.56-3.228-3.207-5.203
		c-0.645-1.978-0.968-4.096-0.968-6.353c0-2.259,0.323-4.417,0.968-6.474c0.647-2.057,1.634-3.851,2.965-5.384
		c1.331-1.531,3.066-2.762,5.203-3.69c2.137-0.926,4.698-1.392,7.684-1.392c0.806,0,1.754,0.082,2.844,0.242
		c1.089,0.163,2.117,0.504,3.085,1.028c0.968,0.525,1.794,1.331,2.48,2.42c0.684,1.089,1.028,2.562,1.028,4.417
		c0,0.645-0.121,1.392-0.363,2.239c-0.242,0.847-0.484,1.713-0.726,2.602c-0.807-1.292-1.917-2.32-3.328-3.086
		c-1.412-0.768-2.683-1.149-3.812-1.149c-1.452,0-2.764,0.321-3.933,0.968c-1.17,0.645-2.159,1.452-2.964,2.42
		c-0.807,0.968-1.433,2.057-1.875,3.267c-0.444,1.211-0.666,2.379-0.666,3.51c0,2.662,0.968,4.919,2.904,6.775
		c1.936,1.855,4.193,2.783,6.776,2.783c1.128,0,2.439-0.262,3.933-0.785c1.492-0.527,2.983-1.393,4.477-2.604
		c1.492-1.209,2.863-2.843,4.114-4.9c1.25-2.057,2.197-4.658,2.843-7.804l18.634-87.846c-7.099,1.615-12.605,4.84-16.517,9.68
		c-3.914,4.84-5.869,10.527-5.869,17.061c0,3.146,0.322,5.366,0.968,6.655c0.645,1.291,1.29,2.22,1.936,2.783
		c-4.035,0-7.2-0.826-9.499-2.48c-2.299-1.652-3.449-4.537-3.449-8.651c0-4.274,1.271-8.349,3.812-12.221
		c2.541-3.872,5.827-7.279,9.862-10.225c4.033-2.944,8.57-5.283,13.612-7.018c5.041-1.734,10.104-2.602,15.186-2.602H216.587z"/>
	<path style="fill:#D82042;" d="M244.053,33.889c4.84,0,8.308,1.633,10.406,4.9c2.097,3.267,3.186,8.007,3.267,14.218
		c7.179,0,13.794-2.42,19.845-7.26l1.088,3.267c-2.259,2.583-5.263,4.74-9.014,6.474c-3.751,1.735-7.805,2.885-12.161,3.448
		c-0.405,5.245-1.292,10.104-2.662,14.581c-1.373,4.477-3.188,8.37-5.445,11.677c-2.259,3.309-4.921,5.889-7.986,7.744
		c-3.066,1.857-6.455,2.783-10.164,2.783c-2.662,0-5.143-0.344-7.442-1.029c-2.299-0.684-4.295-1.794-5.989-3.327
		c-1.694-1.532-3.025-3.509-3.993-5.929c-0.968-2.42-1.452-5.364-1.452-8.833c0-2.338,0.201-5,0.605-7.986
		c0.402-2.983,1.089-6.069,2.057-9.256c0.968-3.186,2.239-6.292,3.812-9.317c1.573-3.025,3.549-5.748,5.929-8.167
		c2.378-2.42,5.143-4.356,8.289-5.808C236.188,34.615,239.857,33.889,244.053,33.889z M235.825,86.523
		c1.773,0,3.528-0.624,5.264-1.875c1.733-1.25,3.307-3.044,4.719-5.384c1.411-2.339,2.621-5.182,3.63-8.531
		c1.007-3.346,1.713-7.158,2.117-11.434c-2.017,0-3.327-0.463-3.933-1.392c-0.605-0.926-0.907-2.118-0.907-3.569
		c0-2.097,0.484-3.609,1.452-4.538c0.968-0.927,2.217-1.471,3.751-1.634c-0.323-2.823-1.11-4.798-2.36-5.929
		c-1.251-1.129-2.885-1.694-4.9-1.694c-2.017,0-3.893,0.565-5.626,1.694c-1.735,1.13-3.309,2.602-4.719,4.417
		c-1.413,1.815-2.662,3.914-3.751,6.292c-1.089,2.38-1.997,4.821-2.723,7.32c-0.726,2.501-1.271,4.982-1.634,7.441
		c-0.363,2.462-0.544,4.7-0.544,6.716c0,4.195,0.745,7.26,2.239,9.196C229.391,85.556,232.032,86.523,235.825,86.523z"/>
	<path style="fill:#D82042;" d="M284.465,34.494l-8.833,41.14c-0.323,1.291-0.484,2.622-0.484,3.993
		c0,2.341,0.524,4.075,1.573,5.203c1.048,1.131,2.339,1.694,3.872,1.694c2.338,0,4.738-1.149,7.199-3.448
		c2.46-2.299,4.133-5.545,5.021-9.741l8.229-38.841h12.1l-12.342,58.08c2.178-0.726,4.174-1.552,5.989-2.48
		c1.815-0.927,3.448-2.137,4.9-3.63c1.452-1.492,2.783-3.286,3.993-5.385c1.21-2.097,2.339-4.677,3.389-7.744h4.477
		c-1.452,4.277-2.965,7.765-4.537,10.467c-1.574,2.704-3.328,4.921-5.264,6.655c-1.937,1.736-4.055,3.085-6.354,4.054
		c-2.299,0.968-4.82,1.773-7.563,2.42l-1.572,7.744c-0.889,4.356-1.875,7.865-2.965,10.527c-1.089,2.662-2.299,4.738-3.63,6.232
		c-1.331,1.492-2.804,2.498-4.417,3.025c-1.614,0.523-3.43,0.785-5.444,0.785c-3.712,0-6.857-0.828-9.438-2.48
		c-2.583-1.654-3.872-4.457-3.872-8.408c0-2.018,0.584-3.895,1.754-5.628c1.168-1.735,2.681-3.369,4.538-4.9
		c1.855-1.533,3.933-2.904,6.232-4.114c2.299-1.21,4.576-2.26,6.836-3.146l1.573-7.623c-2.018,2.34-4.135,4.053-6.353,5.142
		c-2.22,1.089-4.377,1.634-6.474,1.634c-1.856,0-3.59-0.384-5.203-1.149c-1.614-0.766-3.025-1.834-4.235-3.207
		c-1.21-1.371-2.159-3.065-2.844-5.082c-0.686-2.016-1.028-4.275-1.028-6.776c0-1.936,0.242-3.993,0.726-6.171l8.228-38.841H284.465
		z M277.689,118.953c2.258,0,3.993-1.291,5.203-3.873s2.258-5.971,3.146-10.164l0.847-3.872c-4.519,1.937-7.926,4.073-10.225,6.413
		c-2.299,2.339-3.449,4.598-3.449,6.777c0,1.369,0.382,2.498,1.15,3.387C275.128,118.507,276.238,118.953,277.689,118.953z"/>
	<path style="fill:#D82042;" d="M361.542,46.352c0,6.857-2.671,12.403-8.015,16.638c-5.342,4.235-12.714,6.836-22.114,7.804
		c-0.081,0.647-0.121,1.271-0.121,1.875s0,1.231,0,1.875c0,4.114,0.786,7.139,2.36,9.075c1.572,1.936,4.295,2.904,8.167,2.904
		s7.702-1.007,11.495-3.025c3.791-2.015,7.26-5.403,10.406-10.164h3.871c-1.614,2.985-3.551,5.829-5.808,8.531
		c-2.259,2.704-4.761,5.082-7.502,7.139c-2.743,2.057-5.668,3.69-8.772,4.9c-3.106,1.21-6.273,1.815-9.498,1.815
		c-2.342,0-4.588-0.363-6.74-1.089c-2.154-0.726-4.065-1.855-5.732-3.388c-1.67-1.531-3.014-3.528-4.031-5.99
		c-1.018-2.459-1.525-5.424-1.525-8.893c0-2.258,0.242-4.88,0.726-7.865c0.484-2.983,1.229-6.05,2.239-9.196
		c1.008-3.146,2.338-6.25,3.992-9.317c1.652-3.064,3.609-5.787,5.869-8.167c2.257-2.378,4.858-4.295,7.805-5.747
		c2.943-1.452,6.271-2.178,9.982-2.178c1.693,0,3.307,0.182,4.84,0.544c1.531,0.363,2.904,1.01,4.113,1.936
		c1.211,0.928,2.178,2.199,2.904,3.812C361.18,41.795,361.542,43.852,361.542,46.352z M349.709,39.818
		c-2.246,0-4.334,0.786-6.258,2.359c-1.927,1.573-3.633,3.611-5.116,6.11c-1.484,2.501-2.769,5.305-3.85,8.41
		c-1.083,3.106-1.905,6.231-2.468,9.377c6.738-1.047,12.113-3.428,16.125-7.139c4.013-3.709,6.019-8.307,6.019-13.794
		c0-1.371-0.261-2.602-0.782-3.69C352.856,40.362,351.633,39.818,349.709,39.818z"/>
	<path style="fill:#D82042;" d="M412.725,34.494l-8.833,41.14c-0.405,1.614-0.604,3.43-0.604,5.445c0,1.373,0.241,2.623,0.726,3.751
		c0.483,1.131,1.491,1.694,3.024,1.694c1.937,0,3.891-1.168,5.869-3.509c1.976-2.339,3.852-5.566,5.627-9.68h4.477
		c-1.936,5.082-3.872,9.096-5.809,12.04c-1.936,2.946-3.811,5.184-5.626,6.716c-1.815,1.533-3.551,2.522-5.203,2.964
		c-1.654,0.442-3.127,0.666-4.417,0.666c-2.582,0-4.76-0.908-6.533-2.723c-1.775-1.815-2.825-4.779-3.146-8.894
		c-2.34,4.114-4.941,7.079-7.805,8.894s-5.668,2.723-8.409,2.723c-1.856,0-3.591-0.384-5.203-1.149
		c-1.614-0.766-3.024-1.834-4.235-3.207c-1.209-1.371-2.158-3.065-2.844-5.082c-0.686-2.016-1.027-4.275-1.027-6.776
		c0-1.936,0.242-3.993,0.726-6.171l8.228-38.841h12.221l-8.832,41.14c-0.324,1.291-0.484,2.622-0.484,3.993
		c0,2.341,0.523,4.075,1.573,5.203c1.048,1.131,2.339,1.694,3.872,1.694c2.338,0,4.738-1.149,7.199-3.448
		c2.46-2.299,4.133-5.545,5.021-9.741l8.229-38.841H412.725z"/>
	<path style="fill:#D82042;" d="M464.996,73.334c-2.744,2.985-5.465,5.487-8.168,7.502c-2.703,2.018-5.305,3.793-7.805,5.324
		c-0.967,1.775-2.117,3.267-3.447,4.477c-1.332,1.21-2.744,2.199-4.235,2.964c-1.493,0.768-3.025,1.312-4.599,1.634
		c-1.572,0.321-3.045,0.484-4.416,0.484c-3.066,0-5.708-0.465-7.926-1.392c-2.219-0.926-4.053-2.118-5.506-3.569
		c-1.451-1.452-2.52-3.104-3.206-4.961c-0.685-1.855-1.028-3.709-1.028-5.566c0-2.822,0.666-5.203,1.996-7.139
		c1.332-1.936,2.803-3.307,4.417-4.114c3.388-6.05,6.251-12.04,8.591-17.968c2.339-5.929,4.436-11.877,6.292-17.848l12.705-2.42
		c0.403,7.744,0.786,14.036,1.149,18.876s0.684,8.793,0.969,11.858c0.281,3.067,0.502,5.547,0.664,7.441
		c0.162,1.896,0.242,3.854,0.242,5.869c0,0.726-0.02,1.433-0.061,2.118c-0.041,0.686-0.102,1.352-0.182,1.997
		c1.531-0.887,3.025-1.815,4.479-2.783c1.451-0.968,2.781-1.895,3.992-2.783H464.996z M438.98,74.908
		c0-1.694-0.061-3.267-0.181-4.719c-0.121-1.452-0.303-3.267-0.545-5.445c-0.241-2.178-0.525-4.919-0.847-8.228
		c-0.323-3.307-0.646-7.582-0.969-12.826c-1.13,4.519-2.48,8.833-4.053,12.947c-1.573,4.114-3.449,8.349-5.627,12.705
		c0.484,0.404,0.887,0.928,1.211,1.573c0.32,0.646,0.483,1.452,0.483,2.42c0,1.936-0.544,3.43-1.634,4.477
		c-1.089,1.049-2.199,1.573-3.327,1.573c-1.292,0-2.259-0.563-2.904-1.694c0,2.825,0.646,5.021,1.937,6.595
		c1.289,1.573,3.267,2.359,5.929,2.359c3.065,0,5.585-0.887,7.563-2.662C437.992,82.209,438.98,79.184,438.98,74.908z"/>
	<path style="fill:#D82042;" d="M502.385,46.352c0,6.857-2.672,12.403-8.015,16.638s-12.715,6.836-22.114,7.804
		c-0.082,0.647-0.121,1.271-0.121,1.875s0,1.231,0,1.875c0,4.114,0.786,7.139,2.359,9.075s4.295,2.904,8.167,2.904
		s7.703-1.007,11.495-3.025c3.791-2.015,7.26-5.403,10.406-10.164h3.872c-1.614,2.985-3.551,5.829-5.809,8.531
		c-2.259,2.704-4.76,5.082-7.502,7.139c-2.743,2.057-5.668,3.69-8.772,4.9c-3.105,1.21-6.272,1.815-9.498,1.815
		c-2.341,0-4.587-0.363-6.74-1.089c-2.153-0.726-4.064-1.855-5.732-3.388c-1.669-1.531-3.014-3.528-4.03-5.99
		c-1.018-2.459-1.526-5.424-1.526-8.893c0-2.258,0.242-4.88,0.727-7.865c0.483-2.983,1.229-6.05,2.238-9.196
		c1.008-3.146,2.339-6.25,3.993-9.317c1.652-3.064,3.609-5.787,5.868-8.167c2.258-2.378,4.859-4.295,7.805-5.747
		c2.943-1.452,6.271-2.178,9.982-2.178c1.694,0,3.307,0.182,4.84,0.544c1.531,0.363,2.904,1.01,4.114,1.936
		c1.21,0.928,2.178,2.199,2.904,3.812C502.021,41.795,502.385,43.852,502.385,46.352z M490.551,39.818
		c-2.246,0-4.333,0.786-6.258,2.359c-1.927,1.573-3.632,3.611-5.116,6.11c-1.483,2.501-2.768,5.305-3.849,8.41
		c-1.084,3.106-1.906,6.231-2.468,9.377c6.738-1.047,12.113-3.428,16.125-7.139c4.012-3.709,6.019-8.307,6.019-13.794
		c0-1.371-0.262-2.602-0.783-3.69S492.476,39.818,490.551,39.818z"/>
	<path style="fill:#D82042;" d="M534.569,30.743c0.403,7.744,0.787,14.036,1.15,18.876c0.362,4.84,0.684,8.793,0.968,11.858
		c0.281,3.067,0.503,5.547,0.665,7.441c0.161,1.896,0.242,3.854,0.242,5.869c0,3.953-0.626,7.26-1.875,9.922
		c-1.252,2.662-2.844,4.821-4.78,6.474c-1.936,1.654-4.034,2.825-6.292,3.509c-2.259,0.685-4.397,1.029-6.413,1.029
		c-3.066,0-5.707-0.465-7.925-1.392c-2.22-0.926-4.054-2.118-5.506-3.569c-1.452-1.452-2.521-3.104-3.206-4.961
		c-0.685-1.855-1.029-3.709-1.029-5.566c0-2.822,0.666-5.203,1.997-7.139s2.802-3.307,4.416-4.114
		c3.389-6.05,6.251-12.04,8.592-17.968c2.338-5.929,4.435-11.877,6.292-17.848L534.569,30.743z M524.89,74.908
		c0-1.694-0.061-3.267-0.182-4.719c-0.121-1.452-0.302-3.267-0.544-5.445s-0.525-4.919-0.848-8.228
		c-0.323-3.307-0.646-7.582-0.968-12.826c-1.131,4.519-2.48,8.833-4.054,12.947c-1.572,4.114-3.448,8.349-5.626,12.705
		c0.483,0.404,0.887,0.928,1.21,1.573c0.321,0.646,0.483,1.452,0.483,2.42c0,1.936-0.544,3.43-1.633,4.477
		c-1.089,1.049-2.199,1.573-3.328,1.573c-1.291,0-2.259-0.563-2.903-1.694c0,2.825,0.645,5.021,1.936,6.595
		c1.29,1.573,3.268,2.359,5.929,2.359c3.065,0,5.585-0.887,7.563-2.662C523.901,82.209,524.89,79.184,524.89,74.908z"/>
	<path style="fill:#D82042;" d="M637.297,16.828c-2.582,0-5.184-0.221-7.804-0.666c-2.623-0.442-5.225-0.947-7.805-1.513
		l-5.93,27.709h18.029l-1.693,7.139h-17.908l-9.681,45.496h-13.31l17.787-82.522c-0.404-0.08-0.808-0.121-1.21-0.121
		c-0.404,0-0.808,0-1.21,0c-2.502,0-4.922,0.384-7.26,1.149c-2.341,0.768-4.398,2.139-6.172,4.114
		c-1.774,1.978-3.188,4.619-4.234,7.925c-1.05,3.309-1.573,7.502-1.573,12.584c0,2.583,0.222,4.619,0.666,6.111
		c0.442,1.493,0.986,2.562,1.633,3.206c-3.63,0-6.394-0.887-8.288-2.662c-1.896-1.773-2.844-4.961-2.844-9.559
		c0-3.872,0.786-7.663,2.359-11.374c1.573-3.709,3.993-7.018,7.26-9.922c3.268-2.904,7.382-5.243,12.343-7.018
		c4.961-1.773,10.829-2.662,17.605-2.662c2.097,0,4.012,0.081,5.747,0.242c1.733,0.163,3.448,0.323,5.143,0.484
		c1.694,0.163,3.407,0.323,5.143,0.484c1.733,0.163,3.609,0.242,5.626,0.242c2.016,0,3.933-0.101,5.748-0.303
		c1.814-0.2,3.569-0.584,5.264-1.149c-0.727,2.825-1.573,5.063-2.541,6.715c-0.968,1.654-2.018,2.904-3.146,3.751
		c-1.13,0.847-2.359,1.413-3.69,1.694C640.02,16.688,638.668,16.828,637.297,16.828z"/>
	<path style="fill:#D82042;" d="M677.105,46.352c0,6.857-2.672,12.403-8.015,16.638s-12.715,6.836-22.114,7.804
		c-0.082,0.647-0.121,1.271-0.121,1.875s0,1.231,0,1.875c0,4.114,0.786,7.139,2.359,9.075s4.295,2.904,8.167,2.904
		s7.703-1.007,11.495-3.025c3.791-2.015,7.26-5.403,10.406-10.164h3.872c-1.614,2.985-3.551,5.829-5.809,8.531
		c-2.259,2.704-4.76,5.082-7.502,7.139c-2.743,2.057-5.668,3.69-8.772,4.9c-3.105,1.21-6.272,1.815-9.498,1.815
		c-2.341,0-4.587-0.363-6.74-1.089c-2.153-0.726-4.064-1.855-5.732-3.388c-1.669-1.531-3.014-3.528-4.03-5.99
		c-1.018-2.459-1.526-5.424-1.526-8.893c0-2.258,0.242-4.88,0.727-7.865c0.483-2.983,1.229-6.05,2.238-9.196
		c1.008-3.146,2.339-6.25,3.993-9.317c1.652-3.064,3.609-5.787,5.868-8.167c2.258-2.378,4.859-4.295,7.805-5.747
		c2.943-1.452,6.271-2.178,9.982-2.178c1.694,0,3.307,0.182,4.84,0.544c1.531,0.363,2.904,1.01,4.114,1.936
		c1.21,0.928,2.178,2.199,2.904,3.812C676.742,41.795,677.105,43.852,677.105,46.352z M665.271,39.818
		c-2.246,0-4.333,0.786-6.258,2.359c-1.927,1.573-3.632,3.611-5.116,6.11c-1.483,2.501-2.768,5.305-3.849,8.41
		c-1.084,3.106-1.906,6.231-2.468,9.377c6.738-1.047,12.113-3.428,16.125-7.139c4.012-3.709,6.019-8.307,6.019-13.794
		c0-1.371-0.262-2.602-0.783-3.69S667.196,39.818,665.271,39.818z M679.525,27.113l-7.865-12.221l-19.602,12.221h-4.114
		l24.321-20.207h2.54l7.382,20.207H679.525z"/>
	<path style="fill:#D82042;" d="M683.275,34.494h3.993l3.63-16.698l12.584-1.694l-3.993,18.392h9.317l-0.847,4.356h-9.438
		l-7.865,36.813c-0.162,0.643-0.344,1.448-0.544,2.412c-0.202,0.966-0.303,1.893-0.303,2.777c0,1.448,0.303,2.757,0.907,3.923
		c0.605,1.167,1.834,1.749,3.69,1.749c2.179,0,4.436-1.168,6.776-3.509c2.339-2.339,4.517-5.566,6.534-9.68h4.477
		c-2.099,4.438-4.195,8.107-6.292,11.011c-2.099,2.904-4.114,5.203-6.05,6.897c-1.937,1.694-3.812,2.864-5.627,3.509
		c-1.814,0.645-3.448,0.968-4.9,0.968c-2.259,0-4.113-0.384-5.565-1.146c-1.452-0.764-2.602-1.771-3.449-3.019
		c-0.847-1.248-1.451-2.696-1.814-4.347s-0.545-3.322-0.545-5.012c0-1.527,0.121-3.078,0.363-4.647s0.484-2.959,0.726-4.167
		l7.382-34.532h-3.993L683.275,34.494z"/>
	<path style="fill:#D82042;" d="M750.188,46.352c0,6.857-2.672,12.403-8.015,16.638s-12.715,6.836-22.114,7.804
		c-0.082,0.647-0.121,1.271-0.121,1.875s0,1.231,0,1.875c0,4.114,0.786,7.139,2.359,9.075s4.295,2.904,8.167,2.904
		s7.703-1.007,11.495-3.025c3.791-2.015,7.26-5.403,10.406-10.164h3.872c-1.614,2.985-3.551,5.829-5.809,8.531
		c-2.259,2.704-4.76,5.082-7.502,7.139c-2.743,2.057-5.668,3.69-8.772,4.9c-3.105,1.21-6.272,1.815-9.498,1.815
		c-2.341,0-4.587-0.363-6.74-1.089c-2.153-0.726-4.064-1.855-5.732-3.388c-1.669-1.531-3.014-3.528-4.03-5.99
		c-1.018-2.459-1.526-5.424-1.526-8.893c0-2.258,0.242-4.88,0.727-7.865c0.483-2.983,1.229-6.05,2.238-9.196
		c1.008-3.146,2.339-6.25,3.993-9.317c1.652-3.064,3.609-5.787,5.868-8.167c2.258-2.378,4.859-4.295,7.805-5.747
		c2.943-1.452,6.271-2.178,9.982-2.178c1.694,0,3.307,0.182,4.84,0.544c1.531,0.363,2.904,1.01,4.114,1.936
		c1.21,0.928,2.178,2.199,2.904,3.812C749.824,41.795,750.188,43.852,750.188,46.352z M738.354,39.818
		c-2.246,0-4.333,0.786-6.258,2.359c-1.927,1.573-3.632,3.611-5.116,6.11c-1.483,2.501-2.768,5.305-3.849,8.41
		c-1.084,3.106-1.906,6.231-2.468,9.377c6.738-1.047,12.113-3.428,16.125-7.139c4.012-3.709,6.019-8.307,6.019-13.794
		c0-1.371-0.262-2.602-0.783-3.69S740.278,39.818,738.354,39.818z"/>
	<path style="fill:#D82042;" d="M782.372,30.743c0.403,7.744,0.787,14.036,1.15,18.876c0.362,4.84,0.684,8.793,0.968,11.858
		c0.281,3.067,0.503,5.547,0.665,7.441c0.161,1.896,0.242,3.854,0.242,5.869c0,3.953-0.626,7.26-1.875,9.922
		c-1.252,2.662-2.844,4.821-4.78,6.474c-1.936,1.654-4.034,2.825-6.292,3.509c-2.259,0.685-4.397,1.029-6.413,1.029
		c-3.066,0-5.707-0.465-7.925-1.392c-2.22-0.926-4.054-2.118-5.506-3.569c-1.452-1.452-2.521-3.104-3.206-4.961
		c-0.685-1.855-1.029-3.709-1.029-5.566c0-2.822,0.666-5.203,1.997-7.139s2.802-3.307,4.416-4.114
		c3.389-6.05,6.251-12.04,8.592-17.968c2.338-5.929,4.435-11.877,6.292-17.848L782.372,30.743z M772.692,74.908
		c0-1.694-0.061-3.267-0.182-4.719c-0.121-1.452-0.302-3.267-0.544-5.445s-0.525-4.919-0.848-8.228
		c-0.323-3.307-0.646-7.582-0.968-12.826c-1.131,4.519-2.48,8.833-4.054,12.947c-1.572,4.114-3.448,8.349-5.626,12.705
		c0.483,0.404,0.887,0.928,1.21,1.573c0.321,0.646,0.483,1.452,0.483,2.42c0,1.936-0.544,3.43-1.633,4.477
		c-1.089,1.049-2.199,1.573-3.328,1.573c-1.291,0-2.259-0.563-2.903-1.694c0,2.825,0.645,5.021,1.936,6.595
		c1.29,1.573,3.268,2.359,5.929,2.359c3.065,0,5.585-0.887,7.563-2.662C771.704,82.209,772.692,79.184,772.692,74.908z"/>
</g>
</svg>
