<?xml version="1.0" encoding="utf-8"?>
<!-- Generator: Adobe Illustrator 16.0.0, SVG Export Plug-In . SVG Version: 6.00 Build 0)  -->
<!DOCTYPE svg PUBLIC "-//W3C//DTD SVG 1.1//EN" "http://www.w3.org/Graphics/SVG/1.1/DTD/svg11.dtd">
<svg version="1.1" id="Calque_2" xmlns="http://www.w3.org/2000/svg" xmlns:xlink="http://www.w3.org/1999/xlink" x="0px" y="0px"
	 width="332.983px" height="282.701px" viewBox="0 0 332.983 282.701" enable-background="new 0 0 332.983 282.701"
	 xml:space="preserve">
<g>
	<path fill-rule="evenodd" clip-rule="evenodd" fill="#5F7E36" d="M241.354,207.765c-6.125,1.77-12.248,3.547-18.377,5.298
		c-1.539,0.44-3.05,0.992-4.637,1.259c0.016-0.471-0.145-0.902-0.288-1.339c-1.841-5.626-3.686-11.251-5.517-16.88
		c-0.347-1.065-0.639-2.149-0.955-3.226c5.852,0.058,11.703,0.114,17.555,0.171c0.283,0.003,0.563,0.018,0.823,0.146
		c3.604,4.588,7.206,9.179,10.819,13.76c0.152,0.192,0.211,0.537,0.576,0.505C241.354,207.561,241.354,207.664,241.354,207.765z"/>
	<path fill-rule="evenodd" clip-rule="evenodd" fill="#294703" d="M182.426,214.815c-2.223-0.661-4.363-1.552-6.538-2.346
		c-5.004-1.829-9.996-3.687-14.994-5.528c-0.284-0.104-0.582-0.167-0.874-0.249c0-0.154,0-0.308,0-0.461
		c0.421,0.128,0.47-0.282,0.624-0.477c3.318-4.2,6.621-8.413,9.929-12.622c0.109-0.14,0.231-0.27,0.348-0.404
		c1.594,0.062,3.1,0.584,4.638,0.925c3.781,0.837,7.549,1.733,11.321,2.606c-0.844,3.476-1.693,6.949-2.529,10.427
		C183.699,209.393,183.066,212.105,182.426,214.815z"/>
	<path fill-rule="evenodd" clip-rule="evenodd" fill="#375E04" d="M199.605,121.203c0.044-0.323,0.479-0.513,0.313-0.908
		c0.104,0,0.205,0,0.308,0c0.048,0.154,0.096,0.309,0.144,0.463c0.018,0.052,0.035,0.104,0.053,0.155l-0.009-0.052
		c-0.047,0.385-0.026,0.764,0.047,1.145c1.126,5.819,2.251,11.64,3.371,17.46c0.748,3.889,1.487,7.778,2.231,11.668
		c-2.76-0.278-5.52-0.557-8.278-0.836c-2.304-0.232-4.607-0.467-6.911-0.701c1.44-4.558,2.883-9.115,4.321-13.674
		c1.461-4.633,2.919-9.266,4.379-13.898C199.658,121.751,199.733,121.482,199.605,121.203z"/>
	<path fill-rule="evenodd" clip-rule="evenodd" fill="#5A2900" d="M195.201,229.757c0.191-5.021,0.383-10.041,0.575-15.063
		c2.722-0.04,5.442-0.078,8.163-0.117c0.194,5.402,0.389,10.805,0.583,16.207C201.402,230.785,195.188,230.099,195.201,229.757z"/>
	<path fill-rule="evenodd" clip-rule="evenodd" fill="#5F7E36" d="M221.55,172.163c1.313,1.978,2.615,3.96,3.937,5.93
		c2.62,3.901,5.252,7.796,7.873,11.696c0.139,0.206,0.347,0.382,0.359,0.659c-0.661,0.044-1.322,0.092-1.983,0.132
		c-2.747,0.168-5.495,0.338-8.242,0.503c-3.256,0.194-6.512,0.386-9.768,0.579c-1.456-4.657-2.916-9.314-4.367-13.974
		c-0.652-2.097-1.286-4.2-1.929-6.301c1.579,0.072,3.158,0.129,4.735,0.219C215.294,171.782,218.422,171.976,221.55,172.163z"/>
	<path fill-rule="evenodd" clip-rule="evenodd" fill="#5F7E36" d="M206.063,151.133c-0.744-3.89-1.483-7.779-2.231-11.668
		c-1.12-5.82-2.245-11.641-3.371-17.46c-0.073-0.381-0.094-0.76-0.047-1.145c1.994,3.529,3.996,7.054,5.981,10.588
		c3.999,7.115,7.99,14.235,11.98,21.355c0.133,0.238,0.345,0.447,0.329,0.753c-1.439-0.063-2.822-0.457-4.225-0.729
		C211.67,152.282,208.868,151.7,206.063,151.133z"/>
	<path fill-rule="evenodd" clip-rule="evenodd" fill="#5F7E36" d="M215.439,155.133c0.082,0.418,0.38,0.716,0.6,1.054
		c2.95,4.542,5.911,9.076,8.854,13.623c0.124,0.191,0.485,0.359,0.225,0.694c-1.118-0.292-2.271-0.274-3.409-0.387
		c-3.577-0.354-7.155-0.692-10.733-1.036c-0.464-1.486-0.926-2.973-1.394-4.456c-1.277-4.038-2.558-8.075-3.836-12.112
		c1.896,0.375,3.713,1.039,5.577,1.528C212.696,154.402,214.029,154.915,215.439,155.133z"/>
	<path fill-rule="evenodd" clip-rule="evenodd" fill="#1C2F02" d="M213.726,191.662c3.256-0.193,6.512-0.385,9.768-0.579
		c2.747-0.165,5.495-0.335,8.242-0.503c0.661-0.04,1.322-0.088,1.983-0.132c-0.928,0.823-2.034,1.393-3.029,2.117
		c-0.259,0.189-0.602,0.288-0.731,0.629c-0.261-0.128-0.54-0.143-0.823-0.146c-5.852-0.057-11.703-0.113-17.555-0.17
		c-2.627,0.355-5.254,0.708-7.881,1.068c-5.607,0.77-11.213,1.541-16.82,2.313c-3.772-0.873-7.54-1.77-11.321-2.606
		c-1.538-0.341-3.044-0.863-4.638-0.925c-0.066-0.327-0.375-0.392-0.601-0.535c-1.497-0.946-3.001-1.881-4.503-2.82
		c0.836-0.249,1.544,0.223,2.285,0.438c5.241,1.517,10.473,3.064,15.707,4.603c2.74-0.255,5.48-0.515,8.222-0.764
		c2.539-0.229,5.079-0.443,7.618-0.671c3.198-0.286,6.396-0.572,9.594-0.868C210.738,191.972,212.23,191.812,213.726,191.662z"/>
	<path fill-rule="evenodd" clip-rule="evenodd" fill="#1C2F02" d="M210.976,169.082c3.578,0.344,7.156,0.682,10.733,1.036
		c1.138,0.112,2.291,0.095,3.409,0.387c-1.152,0.634-2.365,1.135-3.568,1.658c-3.128-0.187-6.256-0.381-9.385-0.557
		c-1.577-0.09-3.156-0.146-4.735-0.219c-0.914,0.079-1.83,0.142-2.742,0.241c-3.425,0.377-6.849,0.762-10.271,1.152
		c-1.696,0.194-3.391,0.406-5.085,0.611c-0.386-0.168-0.796-0.138-1.202-0.158c-1.192-0.06-2.384-0.124-3.574-0.204
		c-2.658-0.18-5.316-0.37-7.976-0.557c-1.121-0.51-2.242-1.021-3.362-1.531c0.249-0.193,0.52-0.313,0.849-0.272
		c1.416,0.171,2.832,0.34,4.25,0.502c3.314,0.383,6.629,0.762,9.945,1.142c3.381-0.485,6.762-0.974,10.143-1.455
		C202.595,170.262,206.785,169.673,210.976,169.082z"/>
	<path fill-rule="evenodd" clip-rule="evenodd" fill="#1C2F02" d="M215.439,155.133c-1.41-0.219-2.743-0.731-4.116-1.092
		c-1.864-0.489-3.681-1.153-5.577-1.528c-0.686-0.279-1.408-0.113-2.114-0.165c-2.858-0.213-5.72-0.406-8.582-0.582
		c-0.522-0.032-1.069-0.119-1.574,0.142c-0.222,0.058-0.453,0.087-0.66,0.177c-3.878,1.677-7.752,3.36-11.627,5.043
		c-0.861-0.192-1.721-0.391-2.584-0.574c-0.332-0.069-0.579-0.145-0.214-0.499c0.366-0.001,0.691-0.115,1.017-0.291
		c3.819-2.061,7.644-4.112,11.466-6.167c2.304,0.234,4.607,0.469,6.911,0.701c2.759,0.279,5.519,0.558,8.278,0.836
		c2.806,0.566,5.607,1.148,8.417,1.694c1.402,0.272,2.785,0.667,4.225,0.729l-0.028,0.009c-0.012,0.062-0.022,0.122-0.034,0.184
		C217.611,154.297,216.539,154.746,215.439,155.133z"/>
	<path fill-rule="evenodd" clip-rule="evenodd" fill="#82C400" d="M200.422,120.913c-0.018-0.052-0.035-0.104-0.053-0.155
		C200.387,120.809,200.404,120.861,200.422,120.913z"/>
	<path fill-rule="evenodd" clip-rule="evenodd" fill="#82C400" d="M218.642,153.75c0.012-0.062,0.022-0.122,0.034-0.184
		c0.033,0.021,0.067,0.042,0.1,0.063C218.73,153.668,218.686,153.709,218.642,153.75z"/>
	<path fill-rule="evenodd" clip-rule="evenodd" fill="#294703" d="M176.58,172.473c2.659,0.187,5.317,0.377,7.976,0.557
		c1.19,0.08,2.382,0.145,3.574,0.204c0.406,0.021,0.816-0.01,1.202,0.158c-1.506,5.621-3.024,11.238-4.508,16.865
		c-0.363,1.378-0.887,2.719-1.016,4.155c-5.234-1.538-10.466-3.086-15.707-4.603c-0.741-0.215-1.449-0.687-2.285-0.438
		c-0.977-0.49-0.975-0.49-0.354-1.357C169.169,182.834,172.875,177.655,176.58,172.473z"/>
	<path fill-rule="evenodd" clip-rule="evenodd" fill="#294703" d="M181.188,157.127c3.875-1.683,7.749-3.366,11.627-5.043
		c0.207-0.09,0.438-0.119,0.659-0.177c-0.037,0.252-0.055,0.51-0.119,0.755c-0.936,3.582-1.895,7.159-2.813,10.745
		c-0.761,2.969-1.644,5.905-2.28,8.905c-3.316-0.38-6.631-0.759-9.945-1.142c-1.418-0.162-2.834-0.331-4.25-0.502
		c-0.329-0.04-0.6,0.079-0.849,0.272c-1.279-0.418-1.275-0.416-0.542-1.478C175.514,165.352,178.352,161.24,181.188,157.127z"/>
	<path fill-rule="evenodd" clip-rule="evenodd" fill="#294703" d="M190.873,149.596c-3.822,2.055-7.646,4.106-11.466,6.167
		c-0.325,0.176-0.65,0.29-1.017,0.291c0.957-1.595,1.905-3.194,2.871-4.783c5.914-9.729,11.832-19.456,17.75-29.182
		c0.185-0.304,0.395-0.592,0.594-0.887c0.128,0.279,0.053,0.549-0.032,0.821c-1.46,4.633-2.918,9.266-4.379,13.898
		C193.756,140.481,192.313,145.039,190.873,149.596z"/>
	<path fill-rule="evenodd" clip-rule="evenodd" fill="#375E04" d="M186.879,196.259c5.607-0.771,11.213-1.543,16.82-2.313
		c2.627-0.36,5.254-0.713,7.881-1.068c0.316,1.075,0.608,2.159,0.955,3.225c1.831,5.629,3.676,11.254,5.517,16.88
		c0.144,0.437,0.304,0.868,0.288,1.339c-4.469,0.072-8.938,0.143-13.406,0.216c-0.332,0.006-0.663,0.026-0.994,0.04
		c-2.721,0.039-5.441,0.077-8.163,0.117c-4.019,0.045-8.036,0.092-12.055,0.136c-0.432,0.004-0.864-0.01-1.296-0.016
		c0.641-2.71,1.273-5.422,1.924-8.129C185.186,203.208,186.035,199.735,186.879,196.259z"/>
	<path fill-rule="evenodd" clip-rule="evenodd" fill="#375E04" d="M183.809,194.413c0.129-1.437,0.652-2.777,1.016-4.155
		c1.483-5.627,3.002-11.244,4.508-16.865c1.694-0.205,3.389-0.417,5.085-0.611c3.422-0.391,6.846-0.775,10.271-1.152
		c0.912-0.1,1.828-0.162,2.742-0.241c0.643,2.101,1.276,4.204,1.929,6.301c1.451,4.659,2.911,9.316,4.367,13.974
		c-1.495,0.15-2.987,0.311-4.483,0.448c-3.197,0.296-6.396,0.582-9.594,0.868c-2.539,0.228-5.079,0.441-7.618,0.671
		C189.289,193.898,186.549,194.158,183.809,194.413z"/>
	<path fill-rule="evenodd" clip-rule="evenodd" fill="#375E04" d="M188.262,172.313c0.637-3,1.52-5.937,2.28-8.905
		c0.919-3.586,1.878-7.163,2.813-10.745c0.064-0.245,0.082-0.503,0.119-0.755c0.506-0.261,1.053-0.174,1.575-0.142
		c2.862,0.176,5.724,0.369,8.582,0.582c0.706,0.052,1.429-0.114,2.114,0.165c1.278,4.037,2.559,8.074,3.836,12.112
		c0.468,1.483,0.93,2.97,1.394,4.456c-4.19,0.592-8.381,1.181-12.571,1.776C195.023,171.339,191.643,171.828,188.262,172.313z"/>
</g>
<g>
	<path fill-rule="evenodd" clip-rule="evenodd" fill="#5F7E36" d="M207.356,186.458c-11.074,3.198-22.145,6.413-33.228,9.579
		c-2.783,0.796-5.515,1.793-8.384,2.276c0.028-0.852-0.262-1.632-0.521-2.422c-3.329-10.173-6.664-20.343-9.976-30.521
		c-0.626-1.927-1.154-3.887-1.728-5.832c10.581,0.104,21.162,0.207,31.743,0.309c0.512,0.005,1.017,0.032,1.487,0.263
		c6.518,8.297,13.029,16.597,19.564,24.88c0.275,0.349,0.381,0.972,1.04,0.913C207.356,186.087,207.356,186.273,207.356,186.458z"/>
	<path fill-rule="evenodd" clip-rule="evenodd" fill="#294703" d="M100.808,199.204c-4.02-1.195-7.891-2.805-11.823-4.241
		c-9.047-3.307-18.073-6.666-27.111-9.995c-0.513-0.188-1.053-0.303-1.58-0.451c0-0.278,0-0.556,0-0.833
		c0.762,0.231,0.85-0.51,1.128-0.861c6-7.596,11.973-15.213,17.953-22.824c0.197-0.252,0.418-0.487,0.628-0.73
		c2.883,0.112,5.605,1.056,8.387,1.672c6.837,1.515,13.648,3.135,20.47,4.713c-1.525,6.285-3.062,12.566-4.572,18.854
		C103.11,189.401,101.966,194.304,100.808,199.204z"/>
	<path fill-rule="evenodd" clip-rule="evenodd" fill="#375E04" d="M131.87,29.939c0.079-0.586,0.866-0.928,0.566-1.644
		c0.186,0,0.37,0,0.556,0c0.087,0.279,0.172,0.56,0.26,0.839c0.031,0.093,0.063,0.187,0.094,0.279l-0.016-0.093
		c-0.084,0.694-0.048,1.38,0.085,2.068c2.036,10.522,4.07,21.046,6.096,31.571c1.354,7.031,2.69,14.064,4.034,21.097
		c-4.989-0.503-9.979-1.006-14.968-1.511c-4.165-0.421-8.331-0.845-12.496-1.268c2.604-8.242,5.212-16.482,7.813-24.726
		c2.642-8.376,5.277-16.753,7.918-25.13C131.967,30.931,132.102,30.444,131.87,29.939z"/>
	<path fill-rule="evenodd" clip-rule="evenodd" fill="#5A2900" d="M123.836,228.08c0.37-9.698,0.74-19.396,1.11-29.094
		c4.921-0.071,9.841-0.141,14.761-0.211c0.352,9.768,0.702,19.536,1.055,29.305C135.119,228.08,129.479,228.08,123.836,228.08z"/>
	<path fill-rule="evenodd" clip-rule="evenodd" fill="#5F7E36" d="M171.55,122.083c2.372,3.574,4.728,7.16,7.118,10.721
		c4.736,7.056,9.495,14.096,14.235,21.148c0.251,0.373,0.626,0.691,0.648,1.192c-1.195,0.08-2.391,0.166-3.586,0.239
		c-4.968,0.304-9.935,0.61-14.903,0.908c-5.887,0.353-11.773,0.698-17.661,1.048c-2.633-8.422-5.272-16.842-7.896-25.267
		c-1.181-3.792-2.325-7.594-3.487-11.393c2.854,0.13,5.71,0.233,8.562,0.395C160.238,121.394,165.894,121.745,171.55,122.083z"/>
	<path fill-rule="evenodd" clip-rule="evenodd" fill="#5F7E36" d="M143.545,84.057c-1.344-7.032-2.681-14.065-4.034-21.097
		c-2.025-10.525-4.06-21.049-6.096-31.571c-0.133-0.688-0.169-1.374-0.085-2.068c3.606,6.38,7.226,12.754,10.816,19.144
		c7.23,12.866,14.446,25.74,21.661,38.615c0.241,0.43,0.624,0.809,0.596,1.36c-2.603-0.112-5.103-0.825-7.638-1.318
		C153.686,86.134,148.618,85.082,143.545,84.057z"/>
	<path fill-rule="evenodd" clip-rule="evenodd" fill="#5F7E36" d="M160.5,91.291c0.149,0.755,0.688,1.295,1.085,1.905
		c5.335,8.212,10.688,16.411,16.011,24.632c0.224,0.346,0.877,0.649,0.405,1.256c-2.021-0.528-4.107-0.495-6.164-0.699
		c-6.468-0.641-12.938-1.251-19.407-1.874c-0.84-2.687-1.674-5.374-2.521-8.058c-2.309-7.301-4.624-14.6-6.936-21.9
		c3.429,0.678,6.713,1.88,10.084,2.765C155.54,89.968,157.95,90.896,160.5,91.291z"/>
	<path fill-rule="evenodd" clip-rule="evenodd" fill="#1C2F02" d="M157.401,157.339c5.888-0.35,11.774-0.695,17.661-1.048
		c4.969-0.298,9.936-0.604,14.903-0.908c1.195-0.073,2.391-0.159,3.586-0.239c-1.678,1.488-3.677,2.518-5.477,3.829
		c-0.469,0.342-1.087,0.52-1.323,1.136c-0.471-0.23-0.976-0.258-1.487-0.263c-10.581-0.102-21.162-0.205-31.743-0.308
		c-4.749,0.644-9.5,1.281-14.248,1.933c-10.14,1.391-20.276,2.787-30.415,4.181c-6.821-1.578-13.633-3.198-20.47-4.713
		c-2.781-0.616-5.504-1.56-8.387-1.672c-0.12-0.592-0.678-0.708-1.086-0.967c-2.707-1.711-5.426-3.402-8.142-5.101
		c1.512-0.45,2.792,0.403,4.132,0.791c9.477,2.743,18.936,5.541,28.401,8.322c4.954-0.461,9.909-0.931,14.865-1.38
		c4.592-0.416,9.184-0.803,13.774-1.213c5.783-0.518,11.566-1.035,17.349-1.57C152,157.9,154.699,157.611,157.401,157.339z"/>
	<path fill-rule="evenodd" clip-rule="evenodd" fill="#1C2F02" d="M152.43,116.51c6.47,0.623,12.939,1.233,19.407,1.874
		c2.057,0.204,4.143,0.171,6.164,0.699c-2.083,1.146-4.276,2.052-6.451,2.999c-5.656-0.338-11.312-0.688-16.97-1.008
		c-2.852-0.161-5.707-0.265-8.562-0.395c-1.653,0.144-3.311,0.255-4.96,0.437c-6.191,0.681-12.382,1.377-18.57,2.083
		c-3.066,0.351-6.13,0.735-9.194,1.104c-0.697-0.304-1.438-0.248-2.173-0.285c-2.155-0.107-4.31-0.224-6.463-0.369
		c-4.807-0.325-9.613-0.669-14.421-1.006c-2.026-0.923-4.055-1.846-6.08-2.769c0.451-0.351,0.939-0.565,1.534-0.493
		c2.561,0.309,5.122,0.613,7.685,0.908c5.993,0.691,11.987,1.376,17.982,2.063c6.113-0.877,12.227-1.761,18.341-2.631
		C137.275,118.646,144.853,117.581,152.43,116.51z"/>
	<path fill-rule="evenodd" clip-rule="evenodd" fill="#1C2F02" d="M160.5,91.291c-2.55-0.395-4.96-1.322-7.442-1.974
		c-3.371-0.885-6.655-2.087-10.083-2.765c-1.241-0.505-2.548-0.203-3.823-0.299c-5.17-0.383-10.343-0.734-15.518-1.052
		c-0.945-0.058-1.935-0.216-2.848,0.256c-0.399,0.104-0.819,0.158-1.193,0.32c-7.012,3.031-14.017,6.076-21.023,9.118
		c-1.557-0.348-3.111-0.707-4.672-1.037c-0.601-0.127-1.048-0.263-0.387-0.904c0.662,0,1.251-0.207,1.838-0.524
		c6.906-3.728,13.82-7.437,20.732-11.151c4.165,0.423,8.331,0.847,12.496,1.268c4.989,0.505,9.979,1.008,14.968,1.511
		c5.073,1.024,10.141,2.077,15.221,3.064c2.535,0.493,5.035,1.206,7.638,1.318l-0.05,0.017c-0.021,0.111-0.042,0.221-0.063,0.331
		C164.428,89.779,162.488,90.589,160.5,91.291z"/>
	<path fill-rule="evenodd" clip-rule="evenodd" fill="#82C400" d="M133.346,29.414c-0.031-0.093-0.063-0.187-0.094-0.279
		C133.283,29.227,133.314,29.321,133.346,29.414z"/>
	<path fill-rule="evenodd" clip-rule="evenodd" fill="#82C400" d="M166.29,88.788c0.021-0.11,0.042-0.22,0.063-0.331
		c0.06,0.037,0.12,0.075,0.18,0.113C166.452,88.642,166.371,88.715,166.29,88.788z"/>
	<path fill-rule="evenodd" clip-rule="evenodd" fill="#294703" d="M90.237,122.644c4.808,0.337,9.614,0.681,14.421,1.006
		c2.153,0.146,4.308,0.262,6.463,0.369c0.734,0.037,1.476-0.019,2.173,0.285c-2.723,10.164-5.469,20.321-8.15,30.496
		c-0.656,2.491-1.603,4.916-1.836,7.513c-9.466-2.781-18.925-5.579-28.401-8.322c-1.34-0.388-2.62-1.241-4.132-0.791
		c-1.765-0.887-1.763-0.886-0.641-2.453C76.836,141.378,83.537,132.012,90.237,122.644z"/>
	<path fill-rule="evenodd" clip-rule="evenodd" fill="#294703" d="M98.569,94.896c7.007-3.042,14.012-6.087,21.023-9.118
		c0.374-0.162,0.794-0.216,1.192-0.32c-0.068,0.456-0.1,0.921-0.216,1.364c-1.691,6.479-3.426,12.945-5.087,19.431
		c-1.376,5.367-2.972,10.678-4.124,16.102c-5.995-0.688-11.989-1.372-17.982-2.063c-2.563-0.295-5.124-0.6-7.685-0.908
		c-0.595-0.072-1.083,0.143-1.534,0.493c-2.313-0.757-2.306-0.753-0.98-2.673C88.309,109.768,93.439,102.332,98.569,94.896z"/>
	<path fill-rule="evenodd" clip-rule="evenodd" fill="#294703" d="M116.081,81.279c-6.912,3.715-13.826,7.424-20.732,11.151
		c-0.587,0.317-1.176,0.524-1.838,0.524c1.729-2.883,3.444-5.774,5.192-8.648c10.693-17.591,21.393-35.179,32.094-52.766
		c0.334-0.548,0.714-1.068,1.073-1.602c0.231,0.505,0.097,0.992-0.058,1.484c-2.641,8.377-5.276,16.754-7.918,25.13
		C121.293,64.796,118.686,73.037,116.081,81.279z"/>
	<path fill-rule="evenodd" clip-rule="evenodd" fill="#375E04" d="M108.858,165.652c10.139-1.394,20.275-2.79,30.415-4.181
		c4.748-0.651,9.499-1.289,14.248-1.933c0.573,1.944,1.102,3.904,1.728,5.831c3.312,10.179,6.646,20.349,9.976,30.521
		c0.259,0.79,0.549,1.57,0.521,2.422c-8.081,0.129-16.161,0.257-24.24,0.389c-0.601,0.011-1.199,0.048-1.798,0.073
		c-4.92,0.07-9.84,0.14-14.761,0.211c-7.265,0.083-14.53,0.167-21.796,0.246c-0.78,0.008-1.563-0.018-2.343-0.028
		c1.158-4.899,2.303-9.803,3.479-14.697C105.797,178.218,107.333,171.937,108.858,165.652z"/>
	<path fill-rule="evenodd" clip-rule="evenodd" fill="#375E04" d="M103.308,162.313c0.233-2.597,1.18-5.021,1.836-7.513
		c2.682-10.175,5.428-20.332,8.15-30.496c3.064-0.369,6.128-0.754,9.194-1.104c6.188-0.706,12.379-1.402,18.57-2.083
		c1.649-0.182,3.307-0.293,4.96-0.437c1.162,3.799,2.307,7.601,3.487,11.393c2.623,8.425,5.263,16.845,7.896,25.267
		c-2.702,0.271-5.401,0.561-8.105,0.811c-5.782,0.535-11.565,1.053-17.349,1.57c-4.591,0.41-9.183,0.797-13.774,1.213
		C113.217,161.382,108.262,161.852,103.308,162.313z"/>
	<path fill-rule="evenodd" clip-rule="evenodd" fill="#375E04" d="M111.358,122.354c1.152-5.424,2.748-10.734,4.124-16.102
		c1.661-6.485,3.396-12.952,5.087-19.431c0.116-0.443,0.147-0.908,0.216-1.364c0.914-0.472,1.903-0.313,2.849-0.256
		c5.175,0.317,10.348,0.669,15.518,1.052c1.275,0.096,2.582-0.206,3.823,0.299c2.311,7.301,4.626,14.6,6.935,21.9
		c0.847,2.684,1.681,5.371,2.521,8.058c-7.577,1.07-15.154,2.136-22.73,3.213C123.585,120.593,117.472,121.477,111.358,122.354z"/>
</g>
<g>
	<path fill-rule="evenodd" clip-rule="evenodd" fill="#5F7E36" d="M278.147,200.147c-11.253,2.496-22.504,5.009-33.764,7.473
		c-2.828,0.62-5.616,1.443-8.51,1.745c0.081-0.848-0.159-1.645-0.368-2.449c-2.684-10.362-5.373-20.722-8.038-31.088
		c-0.504-1.963-0.908-3.952-1.358-5.93c10.554,0.769,21.107,1.536,31.661,2.303c0.511,0.037,1.013,0.096,1.468,0.355
		c5.984,8.689,11.961,17.382,17.963,26.06c0.254,0.365,0.319,0.993,0.981,0.977C278.171,199.778,278.159,199.962,278.147,200.147z"
		/>
	<path fill-rule="evenodd" clip-rule="evenodd" fill="#294703" d="M171.008,206.175c-3.936-1.445-7.698-3.295-11.533-4.976
		c-8.821-3.868-17.618-7.788-26.43-11.679c-0.5-0.221-1.031-0.368-1.549-0.55c0.018-0.277,0.035-0.554,0.053-0.831
		c0.745,0.279,0.88-0.455,1.18-0.789c6.465-7.203,12.904-14.431,19.352-21.651c0.213-0.239,0.447-0.46,0.672-0.689
		c2.87,0.293,5.528,1.405,8.266,2.195c6.729,1.941,13.425,3.986,20.133,5.989c-1.917,6.178-3.845,12.35-5.747,18.53
		C173.922,196.537,172.472,201.358,171.008,206.175z"/>
	<path fill-rule="evenodd" clip-rule="evenodd" fill="#375E04" d="M212.642,39.197c0.116-0.58,0.923-0.872,0.669-1.605
		c0.185,0.012,0.369,0.023,0.555,0.035c0.068,0.283,0.136,0.568,0.206,0.853c0.025,0.095,0.051,0.19,0.076,0.286l-0.01-0.095
		c-0.128,0.688-0.135,1.374-0.045,2.069c1.371,10.63,2.74,21.261,4.101,31.893c0.909,7.102,1.802,14.205,2.701,21.309
		c-4.948-0.816-9.896-1.631-14.844-2.448c-4.131-0.683-8.262-1.366-12.392-2.05c3.117-8.063,6.237-16.123,9.351-24.187
		c3.163-8.193,6.319-16.389,9.481-24.583C212.676,40.193,212.841,39.714,212.642,39.197z"/>
	<path fill-rule="evenodd" clip-rule="evenodd" fill="#5A2900" d="M192.178,236.44c0.979-9.655,1.957-19.311,2.936-28.966
		c4.915,0.237,9.83,0.478,14.744,0.717c-0.262,9.77-0.526,19.541-0.787,29.313C203.438,237.149,197.809,236.794,192.178,236.44z"/>
	<path fill-rule="evenodd" clip-rule="evenodd" fill="#5F7E36" d="M246.455,133.65c2.143,3.716,4.269,7.442,6.431,11.146
		c4.284,7.339,8.591,14.664,12.879,22.001c0.228,0.388,0.581,0.729,0.572,1.23c-1.198,0.005-2.396,0.016-3.594,0.014
		c-4.978-0.009-9.953-0.015-14.931-0.029c-5.897-0.019-11.795-0.043-17.692-0.063c-2.099-8.571-4.204-17.141-6.293-25.713
		c-0.94-3.859-1.844-7.725-2.765-11.59c2.841,0.31,5.684,0.592,8.52,0.932C235.209,132.252,240.831,132.958,246.455,133.65z"/>
	<path fill-rule="evenodd" clip-rule="evenodd" fill="#5F7E36" d="M220.895,93.941c-0.899-7.104-1.792-14.207-2.701-21.309
		c-1.36-10.632-2.729-21.263-4.101-31.893c-0.09-0.695-0.083-1.382,0.045-2.069c3.198,6.595,6.41,13.183,9.593,19.785
		c6.408,13.295,12.801,26.597,19.192,39.899c0.214,0.444,0.572,0.847,0.509,1.396c-2.59-0.276-5.04-1.145-7.539-1.796
		C230.885,96.65,225.893,95.282,220.895,93.941z"/>
	<path fill-rule="evenodd" clip-rule="evenodd" fill="#5F7E36" d="M237.361,102.224c0.102,0.764,0.604,1.336,0.963,1.97
		c4.809,8.532,9.637,17.051,14.433,25.589c0.201,0.359,0.834,0.703,0.325,1.279c-1.984-0.654-4.068-0.752-6.108-1.085
		c-6.414-1.046-12.833-2.062-19.251-3.09c-0.669-2.733-1.333-5.468-2.01-8.199c-1.845-7.432-3.697-14.862-5.546-22.293
		c3.38,0.892,6.582,2.298,9.891,3.392C232.494,100.593,234.842,101.669,237.361,102.224z"/>
	<path fill-rule="evenodd" clip-rule="evenodd" fill="#1C2F02" d="M230.12,167.949c5.897,0.021,11.795,0.045,17.692,0.063
		c4.978,0.015,9.953,0.021,14.931,0.029c1.197,0.002,2.396-0.009,3.594-0.014c-1.768,1.38-3.827,2.282-5.706,3.478
		c-0.489,0.312-1.117,0.45-1.393,1.051c-0.455-0.26-0.957-0.318-1.468-0.355c-10.554-0.767-21.107-1.534-31.661-2.301
		c-4.779,0.344-9.562,0.682-14.341,1.033c-10.207,0.751-20.411,1.508-30.618,2.262c-6.708-2.003-13.404-4.048-20.133-5.989
		c-2.737-0.79-5.396-1.902-8.266-2.195c-0.082-0.598-0.632-0.749-1.022-1.033c-2.595-1.877-5.201-3.736-7.806-5.602
		c1.537-0.354,2.762,0.578,4.074,1.049c9.285,3.333,18.551,6.72,27.822,10.09c4.974-0.148,9.948-0.307,14.923-0.443
		c4.609-0.127,9.216-0.225,13.823-0.346c5.805-0.153,11.608-0.307,17.413-0.478C224.694,168.168,227.406,168.049,230.12,167.949z"/>
	<path fill-rule="evenodd" clip-rule="evenodd" fill="#1C2F02" d="M227.723,126.887c6.418,1.028,12.837,2.044,19.251,3.09
		c2.04,0.333,4.124,0.431,6.108,1.085c-2.15,1.013-4.396,1.779-6.627,2.588c-5.624-0.692-11.246-1.397-16.873-2.072
		c-2.836-0.34-5.679-0.622-8.52-0.932c-1.659,0.04-3.32,0.047-4.978,0.125c-6.222,0.29-12.444,0.596-18.665,0.912
		c-3.082,0.157-6.163,0.349-9.245,0.524c-0.677-0.347-1.42-0.338-2.15-0.421c-2.145-0.242-4.287-0.494-6.427-0.774
		c-4.777-0.626-9.553-1.271-14.33-1.909c-1.964-1.049-3.931-2.098-5.894-3.146c0.472-0.321,0.973-0.505,1.562-0.396
		c2.536,0.469,5.074,0.934,7.612,1.389c5.938,1.066,11.878,2.127,17.817,3.189c6.156-0.491,12.313-0.99,18.471-1.475
		C212.464,128.067,220.094,127.48,227.723,126.887z"/>
	<path fill-rule="evenodd" clip-rule="evenodd" fill="#1C2F02" d="M237.361,102.224c-2.52-0.555-4.867-1.631-7.304-2.438
		c-3.309-1.094-6.511-2.5-9.89-3.392c-1.207-0.582-2.529-0.363-3.797-0.538c-5.136-0.708-10.276-1.383-15.421-2.025
		c-0.939-0.117-1.917-0.336-2.858,0.076c-0.404,0.08-0.827,0.107-1.211,0.245c-7.188,2.585-14.37,5.185-21.555,7.779
		c-1.531-0.444-3.061-0.899-4.598-1.329c-0.591-0.164-1.029-0.327-0.329-0.926c0.661,0.041,1.262-0.129,1.867-0.408
		c7.127-3.285,14.261-6.554,21.393-9.826c4.13,0.684,8.261,1.367,12.392,2.05c4.947,0.817,9.896,1.632,14.844,2.448
		c4.998,1.341,9.99,2.709,14.998,4.014c2.499,0.651,4.949,1.52,7.539,1.796l-0.051,0.013c-0.028,0.109-0.056,0.219-0.084,0.327
		C241.376,100.962,239.39,101.65,237.361,102.224z"/>
	<path fill-rule="evenodd" clip-rule="evenodd" fill="#82C400" d="M214.147,38.765c-0.025-0.096-0.051-0.191-0.076-0.286
		C214.097,38.574,214.122,38.669,214.147,38.765z"/>
	<path fill-rule="evenodd" clip-rule="evenodd" fill="#82C400" d="M243.297,100.09c0.028-0.108,0.056-0.218,0.084-0.327
		c0.058,0.041,0.115,0.083,0.173,0.125C243.468,99.955,243.383,100.023,243.297,100.09z"/>
	<path fill-rule="evenodd" clip-rule="evenodd" fill="#294703" d="M165.268,129.103c4.777,0.638,9.553,1.283,14.33,1.909
		c2.14,0.28,4.282,0.532,6.427,0.774c0.73,0.083,1.474,0.074,2.15,0.421c-3.355,9.974-6.734,19.938-10.05,29.924
		c-0.812,2.445-1.908,4.806-2.305,7.383c-9.271-3.37-18.537-6.757-27.822-10.09c-1.313-0.471-2.537-1.403-4.074-1.049
		c-1.705-0.996-1.703-0.995-0.485-2.488C150.717,146.958,157.992,138.032,165.268,129.103z"/>
	<path fill-rule="evenodd" clip-rule="evenodd" fill="#294703" d="M175.326,101.932c7.185-2.595,14.367-5.194,21.555-7.779
		c0.384-0.138,0.807-0.165,1.211-0.245c-0.098,0.451-0.158,0.914-0.302,1.35c-2.095,6.357-4.231,12.703-6.297,19.072
		c-1.711,5.27-3.637,10.47-5.128,15.811c-5.939-1.063-11.879-2.123-17.817-3.189c-2.538-0.455-5.076-0.92-7.612-1.389
		c-0.589-0.109-1.09,0.074-1.562,0.396c-2.261-0.9-2.254-0.896-0.811-2.729C164.152,116.13,169.739,109.031,175.326,101.932z"/>
	<path fill-rule="evenodd" clip-rule="evenodd" fill="#294703" d="M193.659,89.443c-7.132,3.272-14.266,6.541-21.393,9.826
		c-0.605,0.279-1.206,0.449-1.867,0.408c1.907-2.769,3.801-5.547,5.726-8.305c11.777-16.885,23.561-33.766,35.345-50.646
		c0.368-0.526,0.78-1.021,1.172-1.53c0.199,0.518,0.034,0.996-0.15,1.477c-3.162,8.194-6.318,16.39-9.481,24.583
		C199.896,73.32,196.776,81.38,193.659,89.443z"/>
	<path fill-rule="evenodd" clip-rule="evenodd" fill="#375E04" d="M181.15,173.195c10.207-0.754,20.411-1.511,30.618-2.262
		c4.779-0.352,9.562-0.689,14.341-1.033c0.45,1.976,0.854,3.965,1.358,5.928c2.665,10.366,5.354,20.726,8.038,31.088
		c0.209,0.805,0.449,1.602,0.368,2.449c-8.073-0.379-16.146-0.759-24.217-1.135c-0.601-0.026-1.2-0.027-1.8-0.039
		c-4.914-0.239-9.829-0.479-14.744-0.717c-7.256-0.374-14.512-0.746-21.769-1.124c-0.779-0.041-1.559-0.115-2.337-0.175
		c1.464-4.817,2.914-9.639,4.396-14.45C177.306,185.544,179.233,179.373,181.15,173.195z"/>
	<path fill-rule="evenodd" clip-rule="evenodd" fill="#375E04" d="M175.82,169.514c0.396-2.577,1.493-4.938,2.305-7.383
		c3.315-9.986,6.694-19.95,10.05-29.924c3.082-0.176,6.163-0.367,9.245-0.524c6.221-0.316,12.443-0.622,18.665-0.912
		c1.657-0.078,3.318-0.085,4.978-0.125c0.921,3.865,1.824,7.73,2.765,11.59c2.089,8.572,4.194,17.142,6.293,25.713
		c-2.714,0.101-5.426,0.22-8.141,0.299c-5.805,0.171-11.608,0.324-17.413,0.478c-4.607,0.121-9.214,0.219-13.823,0.346
		C185.769,169.208,180.794,169.366,175.82,169.514z"/>
	<path fill-rule="evenodd" clip-rule="evenodd" fill="#375E04" d="M186.365,130.14c1.491-5.341,3.417-10.541,5.128-15.811
		c2.065-6.369,4.202-12.715,6.297-19.072c0.144-0.436,0.204-0.898,0.302-1.35c0.941-0.412,1.919-0.193,2.858-0.076
		c5.145,0.643,10.285,1.317,15.421,2.025c1.268,0.175,2.59-0.044,3.797,0.538c1.848,7.431,3.7,14.861,5.545,22.293
		c0.677,2.731,1.341,5.466,2.01,8.199c-7.629,0.593-15.259,1.18-22.887,1.778C198.679,129.15,192.521,129.649,186.365,130.14z"/>
</g>
<g>
	<path fill-rule="evenodd" clip-rule="evenodd" fill="#5F7E36" d="M203.69,220.184c-4.437,0.984-8.872,1.975-13.312,2.946
		c-1.115,0.245-2.214,0.569-3.354,0.688c0.032-0.335-0.063-0.648-0.146-0.966c-1.058-4.085-2.118-8.169-3.169-12.256
		c-0.198-0.774-0.357-1.559-0.535-2.338c4.161,0.303,8.321,0.605,12.482,0.908c0.201,0.014,0.398,0.037,0.578,0.14
		c2.359,3.426,4.716,6.853,7.082,10.273c0.101,0.145,0.126,0.392,0.387,0.385C203.7,220.039,203.695,220.112,203.69,220.184z"/>
	<path fill-rule="evenodd" clip-rule="evenodd" fill="#294703" d="M161.451,222.561c-1.552-0.569-3.035-1.299-4.548-1.961
		c-3.477-1.525-6.945-3.071-10.42-4.605c-0.196-0.086-0.406-0.145-0.609-0.216c0.006-0.109,0.013-0.219,0.021-0.328
		c0.293,0.11,0.347-0.18,0.465-0.311c2.549-2.84,5.087-5.689,7.63-8.536c0.084-0.095,0.176-0.182,0.265-0.271
		c1.132,0.115,2.179,0.553,3.259,0.865c2.652,0.766,5.292,1.571,7.937,2.361c-0.755,2.435-1.516,4.869-2.266,7.306
		C162.6,218.761,162.028,220.663,161.451,222.561z"/>
	<path fill-rule="evenodd" clip-rule="evenodd" fill="#375E04" d="M177.865,156.73c0.045-0.229,0.363-0.344,0.264-0.633
		c0.072,0.005,0.146,0.009,0.219,0.014c0.026,0.112,0.053,0.225,0.081,0.336c0.01,0.038,0.02,0.075,0.03,0.112l-0.005-0.037
		c-0.05,0.271-0.053,0.542-0.018,0.816c0.541,4.191,1.08,8.382,1.617,12.573c0.358,2.8,0.71,5.601,1.065,8.401
		c-1.952-0.322-3.902-0.643-5.853-0.966c-1.629-0.269-3.257-0.538-4.885-0.808c1.229-3.179,2.459-6.356,3.686-9.535
		c1.247-3.23,2.491-6.461,3.738-9.692C177.879,157.123,177.943,156.934,177.865,156.73z"/>
	<path fill-rule="evenodd" clip-rule="evenodd" fill="#5A2900" d="M169.797,234.493c0.386-3.807,0.771-7.613,1.157-11.419
		c1.938,0.094,3.875,0.188,5.813,0.282c-0.104,3.852-0.208,7.704-0.311,11.557C174.237,234.773,172.017,234.633,169.797,234.493z"/>
	<path fill-rule="evenodd" clip-rule="evenodd" fill="#5F7E36" d="M191.196,193.968c0.845,1.465,1.683,2.935,2.535,4.395
		c1.688,2.893,3.387,5.781,5.077,8.674c0.09,0.152,0.229,0.287,0.226,0.485c-0.473,0.001-0.945,0.006-1.417,0.006
		c-1.962-0.005-3.924-0.007-5.886-0.013c-2.326-0.007-4.65-0.017-6.976-0.024c-0.828-3.38-1.657-6.758-2.481-10.138
		c-0.37-1.521-0.727-3.045-1.09-4.569c1.12,0.122,2.24,0.233,3.358,0.367C186.762,193.417,188.979,193.696,191.196,193.968z"/>
	<path fill-rule="evenodd" clip-rule="evenodd" fill="#5F7E36" d="M181.119,178.313c-0.355-2.801-0.707-5.602-1.065-8.401
		c-0.537-4.191-1.076-8.382-1.617-12.573c-0.035-0.274-0.032-0.545,0.018-0.816c1.262,2.601,2.527,5.198,3.783,7.801
		c2.525,5.241,5.046,10.486,7.566,15.73c0.084,0.176,0.226,0.334,0.2,0.55c-1.021-0.108-1.987-0.451-2.973-0.708
		C185.057,179.381,183.089,178.841,181.119,178.313z"/>
	<path fill-rule="evenodd" clip-rule="evenodd" fill="#5F7E36" d="M187.61,181.579c0.04,0.301,0.238,0.526,0.38,0.777
		c1.896,3.363,3.799,6.722,5.69,10.087c0.079,0.143,0.328,0.278,0.128,0.505c-0.782-0.258-1.604-0.297-2.408-0.428
		c-2.528-0.412-5.06-0.813-7.59-1.218c-0.264-1.078-0.525-2.156-0.792-3.232c-0.728-2.931-1.458-5.86-2.188-8.789
		c1.333,0.351,2.596,0.905,3.9,1.337C185.692,180.935,186.617,181.36,187.61,181.579z"/>
	<path fill-rule="evenodd" clip-rule="evenodd" fill="#1C2F02" d="M184.756,207.491c2.325,0.008,4.649,0.018,6.976,0.024
		c1.962,0.006,3.924,0.008,5.886,0.013c0.472,0,0.944-0.005,1.417-0.006c-0.697,0.543-1.509,0.899-2.25,1.371
		c-0.192,0.122-0.44,0.177-0.549,0.414c-0.18-0.103-0.377-0.126-0.578-0.14c-4.161-0.303-8.321-0.605-12.482-0.907
		c-1.885,0.135-3.771,0.268-5.654,0.407c-4.023,0.296-8.047,0.594-12.071,0.892c-2.645-0.79-5.284-1.596-7.937-2.361
		c-1.08-0.313-2.127-0.75-3.259-0.865c-0.032-0.236-0.249-0.296-0.403-0.407c-1.023-0.741-2.051-1.474-3.078-2.209
		c0.606-0.14,1.09,0.228,1.606,0.414c3.661,1.313,7.313,2.648,10.97,3.978c1.961-0.059,3.922-0.121,5.883-0.176
		c1.817-0.05,3.633-0.088,5.449-0.136c2.289-0.061,4.578-0.12,6.865-0.188C182.616,207.577,183.686,207.53,184.756,207.491z"/>
	<path fill-rule="evenodd" clip-rule="evenodd" fill="#1C2F02" d="M183.811,191.302c2.53,0.405,5.062,0.806,7.59,1.218
		c0.804,0.131,1.626,0.17,2.408,0.428c-0.848,0.399-1.733,0.701-2.612,1.021c-2.218-0.272-4.435-0.551-6.653-0.817
		c-1.118-0.134-2.238-0.245-3.358-0.367c-0.654,0.016-1.309,0.019-1.962,0.05c-2.453,0.114-4.906,0.234-7.358,0.359
		c-1.215,0.063-2.43,0.138-3.645,0.206c-0.268-0.136-0.561-0.133-0.849-0.166c-0.846-0.095-1.69-0.194-2.534-0.305
		c-1.883-0.246-3.766-0.501-5.649-0.753c-0.774-0.413-1.55-0.826-2.323-1.239c0.186-0.127,0.384-0.2,0.615-0.156
		c1,0.185,2.001,0.368,3.002,0.548c2.341,0.42,4.683,0.838,7.024,1.257c2.427-0.193,4.854-0.391,7.282-0.582
		C177.795,191.767,180.803,191.536,183.811,191.302z"/>
	<path fill-rule="evenodd" clip-rule="evenodd" fill="#1C2F02" d="M187.61,181.579c-0.993-0.219-1.918-0.644-2.879-0.961
		c-1.305-0.432-2.567-0.986-3.899-1.337c-0.476-0.229-0.997-0.144-1.497-0.212c-2.024-0.279-4.052-0.546-6.079-0.799
		c-0.371-0.047-0.756-0.133-1.127,0.03c-0.16,0.031-0.327,0.042-0.478,0.096c-2.834,1.02-5.666,2.045-8.498,3.067
		c-0.604-0.175-1.206-0.354-1.813-0.524c-0.233-0.063-0.405-0.128-0.13-0.364c0.261,0.016,0.497-0.051,0.736-0.161
		c2.81-1.296,5.622-2.584,8.435-3.874c1.628,0.27,3.256,0.539,4.885,0.808c1.95,0.323,3.9,0.644,5.853,0.966
		c1.97,0.528,3.938,1.068,5.912,1.582c0.985,0.257,1.951,0.6,2.973,0.708l-0.021,0.006c-0.011,0.042-0.021,0.086-0.033,0.129
		C189.193,181.081,188.41,181.352,187.61,181.579z"/>
	<path fill-rule="evenodd" clip-rule="evenodd" fill="#82C400" d="M178.459,156.559c-0.011-0.037-0.021-0.074-0.03-0.112
		C178.438,156.485,178.448,156.522,178.459,156.559z"/>
	<path fill-rule="evenodd" clip-rule="evenodd" fill="#82C400" d="M189.95,180.738c0.012-0.043,0.022-0.087,0.033-0.129
		c0.023,0.017,0.046,0.032,0.068,0.049C190.019,180.684,189.984,180.711,189.95,180.738z"/>
	<path fill-rule="evenodd" clip-rule="evenodd" fill="#294703" d="M159.188,192.175c1.884,0.252,3.767,0.507,5.649,0.753
		c0.844,0.11,1.688,0.21,2.534,0.305c0.288,0.033,0.581,0.03,0.849,0.166c-1.324,3.933-2.656,7.861-3.963,11.798
		c-0.32,0.964-0.752,1.895-0.908,2.911c-3.656-1.329-7.309-2.664-10.97-3.978c-0.517-0.187-1-0.554-1.606-0.414
		c-0.672-0.393-0.671-0.393-0.19-0.98C153.451,199.215,156.319,195.696,159.188,192.175z"/>
	<path fill-rule="evenodd" clip-rule="evenodd" fill="#294703" d="M163.153,181.463c2.832-1.022,5.664-2.048,8.498-3.067
		c0.15-0.054,0.317-0.064,0.478-0.096c-0.039,0.178-0.063,0.359-0.119,0.532c-0.826,2.506-1.669,5.008-2.483,7.519
		c-0.674,2.077-1.434,4.128-2.021,6.233c-2.342-0.419-4.684-0.837-7.024-1.257c-1.001-0.18-2.002-0.363-3.002-0.548
		c-0.231-0.044-0.43,0.029-0.615,0.156c-0.892-0.355-0.889-0.354-0.319-1.076C158.748,187.061,160.951,184.262,163.153,181.463z"/>
	<path fill-rule="evenodd" clip-rule="evenodd" fill="#294703" d="M170.382,176.54c-2.813,1.29-5.625,2.578-8.435,3.874
		c-0.239,0.11-0.476,0.177-0.736,0.161c0.751-1.092,1.498-2.188,2.257-3.274c4.644-6.656,9.289-13.312,13.936-19.967
		c0.145-0.208,0.308-0.402,0.462-0.604c0.078,0.204,0.014,0.393-0.06,0.582c-1.247,3.231-2.491,6.462-3.738,9.692
		C172.841,170.183,171.61,173.361,170.382,176.54z"/>
	<path fill-rule="evenodd" clip-rule="evenodd" fill="#375E04" d="M165.449,209.559c4.024-0.298,8.048-0.596,12.071-0.892
		c1.884-0.14,3.77-0.272,5.654-0.407c0.178,0.778,0.337,1.563,0.535,2.337c1.051,4.087,2.111,8.171,3.169,12.256
		c0.083,0.317,0.178,0.631,0.146,0.966c-3.184-0.149-6.365-0.299-9.548-0.447c-0.236-0.011-0.474-0.012-0.709-0.016
		c-1.938-0.095-3.876-0.188-5.813-0.282c-2.86-0.147-5.721-0.295-8.582-0.443c-0.308-0.017-0.614-0.046-0.921-0.069
		c0.577-1.898,1.148-3.8,1.732-5.696C163.934,214.428,164.694,211.994,165.449,209.559z"/>
	<path fill-rule="evenodd" clip-rule="evenodd" fill="#375E04" d="M163.349,208.108c0.156-1.017,0.588-1.947,0.908-2.911
		c1.307-3.937,2.639-7.865,3.963-11.798c1.215-0.068,2.43-0.144,3.645-0.206c2.452-0.125,4.905-0.245,7.358-0.359
		c0.653-0.031,1.308-0.034,1.962-0.05c0.363,1.524,0.72,3.048,1.09,4.569c0.824,3.38,1.653,6.758,2.481,10.138
		c-1.07,0.039-2.14,0.086-3.21,0.117c-2.287,0.068-4.576,0.128-6.865,0.188c-1.816,0.048-3.632,0.086-5.449,0.136
		C167.271,207.987,165.31,208.049,163.349,208.108z"/>
	<path fill-rule="evenodd" clip-rule="evenodd" fill="#375E04" d="M167.506,192.584c0.587-2.105,1.347-4.156,2.021-6.233
		c0.814-2.511,1.657-5.013,2.483-7.519c0.057-0.173,0.08-0.354,0.119-0.532c0.371-0.163,0.756-0.077,1.127-0.03
		c2.027,0.253,4.055,0.52,6.079,0.799c0.5,0.068,1.021-0.018,1.497,0.212c0.729,2.929,1.459,5.858,2.187,8.789
		c0.267,1.076,0.528,2.154,0.792,3.232c-3.008,0.233-6.016,0.465-9.022,0.7C172.36,192.194,169.933,192.391,167.506,192.584z"/>
</g>
<g>
	<path fill-rule="evenodd" clip-rule="evenodd" fill="#5F7E36" d="M124.158,207.663c-7.167,2.07-14.334,4.152-21.509,6.201
		c-1.802,0.516-3.569,1.161-5.427,1.474c0.019-0.552-0.17-1.056-0.337-1.567c-2.155-6.587-4.314-13.168-6.457-19.758
		c-0.407-1.247-0.748-2.517-1.12-3.775c6.852,0.066,13.7,0.133,20.551,0.199c0.33,0.004,0.657,0.021,0.962,0.171
		c4.219,5.371,8.435,10.743,12.665,16.105c0.177,0.226,0.245,0.629,0.672,0.59C124.158,207.424,124.158,207.543,124.158,207.663z"/>
	<path fill-rule="evenodd" clip-rule="evenodd" fill="#294703" d="M55.187,215.914c-2.603-0.773-5.107-1.815-7.654-2.746
		c-5.855-2.14-11.699-4.314-17.549-6.469c-0.331-0.122-0.681-0.196-1.022-0.293c0-0.18,0-0.359,0-0.539
		c0.492,0.149,0.549-0.33,0.729-0.557c3.885-4.918,7.75-9.85,11.622-14.775c0.128-0.163,0.27-0.316,0.406-0.473
		c1.866,0.071,3.628,0.684,5.429,1.082c4.426,0.979,8.835,2.029,13.25,3.051c-0.986,4.069-1.981,8.134-2.959,12.204
		C56.677,209.568,55.938,212.742,55.187,215.914z"/>
	<path fill-rule="evenodd" clip-rule="evenodd" fill="#375E04" d="M75.295,106.343c0.051-0.379,0.561-0.6,0.365-1.063
		c0.121,0,0.24,0,0.359,0c0.057,0.181,0.112,0.362,0.169,0.543c0.021,0.06,0.041,0.121,0.062,0.181l-0.011-0.06
		c-0.054,0.45-0.03,0.894,0.056,1.339c1.317,6.811,2.635,13.624,3.945,20.437c0.877,4.552,1.742,9.104,2.611,13.657
		c-3.229-0.327-6.46-0.651-9.689-0.979c-2.695-0.272-5.393-0.547-8.089-0.82c1.686-5.336,3.374-10.67,5.058-16.006
		c1.711-5.422,3.417-10.845,5.126-16.268C75.356,106.987,75.444,106.671,75.295,106.343z"/>
	<path fill-rule="evenodd" clip-rule="evenodd" fill="#5A2900" d="M70.093,234.606c0.239-6.278,0.48-12.556,0.72-18.833
		c3.186-0.046,6.37-0.091,9.555-0.137c0.177,4.907,0.49,13.623,0.621,17.28C81.025,233.972,73.746,234.606,70.093,234.606z"/>
	<path fill-rule="evenodd" clip-rule="evenodd" fill="#5F7E36" d="M100.979,165.992c1.536,2.313,3.061,4.635,4.608,6.939
		c3.065,4.566,6.146,9.124,9.215,13.689c0.162,0.242,0.405,0.448,0.42,0.771c-0.774,0.052-1.548,0.108-2.321,0.156
		c-3.216,0.195-6.431,0.395-9.647,0.587c-3.81,0.228-7.622,0.452-11.433,0.679c-1.705-5.452-3.412-10.903-5.111-16.356
		c-0.764-2.454-1.505-4.915-2.258-7.374c1.849,0.083,3.696,0.15,5.543,0.255C93.657,165.546,97.318,165.772,100.979,165.992z"/>
	<path fill-rule="evenodd" clip-rule="evenodd" fill="#5F7E36" d="M82.852,141.376c-0.869-4.553-1.734-9.105-2.611-13.657
		c-1.311-6.813-2.628-13.626-3.945-20.437c-0.086-0.445-0.109-0.889-0.056-1.339c2.335,4.13,4.678,8.256,7.003,12.392
		c4.68,8.33,9.351,16.662,14.021,24.997c0.156,0.278,0.404,0.523,0.386,0.881c-1.684-0.072-3.303-0.534-4.944-0.854
		C89.416,142.72,86.136,142.04,82.852,141.376z"/>
	<path fill-rule="evenodd" clip-rule="evenodd" fill="#5F7E36" d="M93.826,146.058c0.098,0.488,0.445,0.838,0.704,1.234
		c3.452,5.315,6.918,10.623,10.364,15.944c0.144,0.224,0.566,0.42,0.262,0.813c-1.31-0.343-2.659-0.321-3.99-0.454
		c-4.188-0.414-8.375-0.81-12.563-1.212c-0.544-1.739-1.084-3.479-1.633-5.215c-1.494-4.728-2.992-9.453-4.488-14.179
		c2.219,0.439,4.346,1.217,6.527,1.79C90.616,145.203,92.177,145.802,93.826,146.058z"/>
	<path fill-rule="evenodd" clip-rule="evenodd" fill="#1C2F02" d="M91.821,188.814c3.811-0.227,7.623-0.451,11.433-0.679
		c3.217-0.192,6.432-0.392,9.647-0.587c0.773-0.048,1.547-0.104,2.321-0.156c-1.087,0.965-2.381,1.63-3.545,2.479
		c-0.304,0.222-0.703,0.337-0.856,0.736c-0.305-0.15-0.632-0.167-0.962-0.171c-6.851-0.066-13.699-0.133-20.551-0.198
		c-3.073,0.416-6.148,0.83-9.222,1.251c-6.564,0.9-13.126,1.804-19.689,2.706c-4.415-1.021-8.824-2.071-13.25-3.051
		c-1.801-0.398-3.563-1.011-5.429-1.082c-0.078-0.384-0.438-0.459-0.703-0.627c-1.752-1.107-3.512-2.202-5.271-3.301
		c0.979-0.292,1.807,0.261,2.675,0.512c6.135,1.776,12.258,3.586,18.385,5.388c3.207-0.299,6.415-0.603,9.624-0.894
		c2.972-0.27,5.943-0.52,8.916-0.785c3.743-0.336,7.487-0.67,11.229-1.018C88.325,189.177,90.072,188.99,91.821,188.814z"/>
	<path fill-rule="evenodd" clip-rule="evenodd" fill="#1C2F02" d="M88.604,162.384c4.188,0.402,8.375,0.798,12.563,1.212
		c1.331,0.133,2.681,0.111,3.99,0.454c-1.349,0.741-2.769,1.327-4.177,1.941c-3.661-0.22-7.322-0.445-10.984-0.653
		c-1.847-0.104-3.694-0.172-5.543-0.255c-1.069,0.093-2.142,0.165-3.209,0.282c-4.009,0.44-8.017,0.892-12.021,1.349
		c-1.984,0.227-3.969,0.477-5.951,0.715c-0.452-0.197-0.933-0.16-1.408-0.185c-1.395-0.069-2.789-0.145-4.183-0.239
		c-3.111-0.211-6.223-0.434-9.336-0.65c-1.312-0.598-2.624-1.195-3.936-1.793c0.292-0.227,0.607-0.366,0.993-0.319
		c1.657,0.2,3.315,0.397,4.975,0.589c3.881,0.447,7.759,0.89,11.641,1.335c3.957-0.567,7.914-1.14,11.873-1.702
		C78.793,163.766,83.697,163.076,88.604,162.384z"/>
	<path fill-rule="evenodd" clip-rule="evenodd" fill="#1C2F02" d="M93.826,146.058c-1.649-0.256-3.21-0.855-4.816-1.277
		c-2.182-0.573-4.309-1.351-6.527-1.79c-0.803-0.326-1.649-0.132-2.475-0.192c-3.348-0.249-6.695-0.476-10.045-0.681
		c-0.611-0.038-1.253-0.141-1.843,0.164c-0.259,0.069-0.531,0.104-0.772,0.208c-4.539,1.962-9.075,3.934-13.609,5.902
		c-1.008-0.225-2.015-0.457-3.025-0.672c-0.388-0.082-0.679-0.169-0.249-0.584c0.428-0.001,0.81-0.135,1.188-0.34
		c4.471-2.413,8.946-4.814,13.421-7.219c2.696,0.273,5.394,0.548,8.089,0.82c3.229,0.327,6.46,0.651,9.689,0.979
		c3.284,0.663,6.564,1.344,9.853,1.982c1.642,0.32,3.261,0.782,4.944,0.854l-0.031,0.011c-0.014,0.071-0.029,0.143-0.041,0.215
		C96.37,145.08,95.115,145.604,93.826,146.058z"/>
	<path fill-rule="evenodd" clip-rule="evenodd" fill="#82C400" d="M76.25,106.003c-0.021-0.06-0.041-0.121-0.062-0.181
		C76.209,105.882,76.229,105.944,76.25,106.003z"/>
	<path fill-rule="evenodd" clip-rule="evenodd" fill="#82C400" d="M97.576,144.439c0.012-0.072,0.027-0.144,0.041-0.215
		c0.037,0.023,0.077,0.048,0.115,0.073C97.681,144.344,97.628,144.392,97.576,144.439z"/>
	<path fill-rule="evenodd" clip-rule="evenodd" fill="#294703" d="M48.344,166.355c3.113,0.217,6.225,0.439,9.336,0.65
		c1.394,0.095,2.788,0.17,4.183,0.239c0.476,0.024,0.956-0.013,1.408,0.185c-1.764,6.58-3.542,13.155-5.277,19.74
		c-0.425,1.613-1.036,3.184-1.188,4.864c-6.127-1.802-12.25-3.611-18.385-5.388c-0.868-0.251-1.696-0.804-2.675-0.512
		c-1.142-0.574-1.142-0.573-0.414-1.589C39.67,178.482,44.007,172.418,48.344,166.355z"/>
	<path fill-rule="evenodd" clip-rule="evenodd" fill="#294703" d="M53.738,148.392c4.534-1.969,9.07-3.94,13.609-5.902
		c0.241-0.104,0.514-0.139,0.771-0.208c-0.044,0.296-0.065,0.597-0.142,0.884c-1.094,4.193-2.217,8.381-3.291,12.578
		c-0.892,3.475-1.924,6.913-2.67,10.423c-3.882-0.445-7.76-0.888-11.641-1.335c-1.659-0.191-3.317-0.389-4.975-0.589
		c-0.386-0.047-0.701,0.093-0.993,0.319c-1.497-0.49-1.492-0.488-0.636-1.729C47.096,158.02,50.416,153.206,53.738,148.392z"/>
	<path fill-rule="evenodd" clip-rule="evenodd" fill="#294703" d="M65.073,139.578c-4.475,2.404-8.95,4.806-13.421,7.219
		c-0.379,0.205-0.761,0.339-1.188,0.34c1.119-1.867,2.229-3.738,3.36-5.599c6.922-11.387,13.849-22.771,20.774-34.157
		c0.218-0.355,0.463-0.691,0.696-1.037c0.149,0.328,0.062,0.644-0.038,0.961c-1.709,5.423-3.415,10.846-5.126,16.268
		C68.447,128.908,66.759,134.242,65.073,139.578z"/>
	<path fill-rule="evenodd" clip-rule="evenodd" fill="#375E04" d="M60.397,194.195c6.563-0.902,13.125-1.806,19.689-2.706
		c3.073-0.421,6.148-0.835,9.222-1.251c0.372,1.258,0.713,2.527,1.12,3.774c2.143,6.59,4.302,13.171,6.457,19.758
		c0.167,0.512,0.355,1.016,0.337,1.567c-5.23,0.083-10.461,0.166-15.691,0.252c-0.389,0.008-0.777,0.03-1.164,0.047
		c-3.185,0.046-6.369,0.091-9.555,0.137c-4.703,0.054-9.406,0.107-14.109,0.158c-0.505,0.007-1.011-0.01-1.517-0.018
		c0.751-3.172,1.49-6.346,2.252-9.515C58.416,202.329,59.411,198.264,60.397,194.195z"/>
	<path fill-rule="evenodd" clip-rule="evenodd" fill="#375E04" d="M56.805,192.034c0.152-1.681,0.764-3.251,1.188-4.864
		c1.735-6.585,3.514-13.16,5.277-19.74c1.982-0.238,3.967-0.488,5.951-0.715c4.005-0.457,8.013-0.908,12.021-1.349
		c1.067-0.117,2.14-0.189,3.209-0.282c0.753,2.459,1.494,4.92,2.258,7.374c1.699,5.453,3.406,10.904,5.111,16.356
		c-1.749,0.176-3.496,0.363-5.247,0.523c-3.742,0.348-7.486,0.682-11.229,1.018c-2.973,0.266-5.944,0.516-8.916,0.785
		C63.22,191.431,60.012,191.735,56.805,192.034z"/>
	<path fill-rule="evenodd" clip-rule="evenodd" fill="#375E04" d="M62.017,166.167c0.746-3.51,1.778-6.948,2.67-10.423
		c1.074-4.197,2.197-8.385,3.291-12.578c0.076-0.287,0.098-0.588,0.142-0.884c0.591-0.305,1.232-0.202,1.844-0.164
		c3.35,0.205,6.697,0.432,10.045,0.681c0.825,0.061,1.672-0.134,2.475,0.192c1.496,4.726,2.994,9.451,4.488,14.179
		c0.549,1.735,1.089,3.476,1.633,5.215c-4.906,0.691-9.811,1.382-14.714,2.08C69.931,165.027,65.974,165.599,62.017,166.167z"/>
	<path fill-rule="evenodd" clip-rule="evenodd" fill="#5A2900" d="M80.988,232.917c0.037,1.056-6.171,1.463-10.896,1.689"/>
	<path fill-rule="evenodd" clip-rule="evenodd" fill="#5A2900" d="M80.988,232.917c-4.566,0.976-7.242,1.689-10.896,1.689"/>
	<path fill-rule="evenodd" clip-rule="evenodd" fill="#5A2900" d="M80.988,232.917c-3.272,0.709-7.242,1.689-10.896,1.689"/>
	<path fill-rule="evenodd" clip-rule="evenodd" fill="#5A2900" d="M80.988,232.917c-2.68,0.587-7.242,1.689-10.896,1.689"/>
	<path fill-rule="evenodd" clip-rule="evenodd" fill="#5A2900" d="M80.988,232.917c0.037,1.056-6.066,1.272-10.896,1.689"/>
	<path fill-rule="evenodd" clip-rule="evenodd" fill="#5A2900" d="M80.988,232.917c-1.145,0.226-7.242,1.689-10.896,1.689"/>
	<path fill-rule="evenodd" clip-rule="evenodd" fill="#5A2900" d="M80.988,232.917c-1.301,0.538-7.242,1.689-10.896,1.689"/>
</g>
<g>
	<path fill-rule="evenodd" clip-rule="evenodd" fill="#5F7E36" d="M308.739,242.547c-6.225,1.382-12.447,2.771-18.674,4.134
		c-1.563,0.343-3.106,0.799-4.706,0.965c0.045-0.469-0.088-0.91-0.204-1.354c-1.483-5.73-2.972-11.46-4.445-17.193
		c-0.279-1.085-0.502-2.185-0.751-3.278c5.837,0.425,11.674,0.849,17.51,1.272c0.282,0.021,0.561,0.053,0.813,0.197
		c3.31,4.806,6.615,9.613,9.934,14.412c0.14,0.201,0.177,0.55,0.543,0.54C308.752,242.344,308.745,242.447,308.739,242.547z"/>
	<path fill-rule="evenodd" clip-rule="evenodd" fill="#294703" d="M249.484,245.882c-2.177-0.8-4.257-1.823-6.377-2.752
		c-4.88-2.14-9.745-4.307-14.618-6.459c-0.276-0.121-0.57-0.203-0.856-0.304c0.01-0.154,0.02-0.307,0.029-0.46
		c0.412,0.154,0.486-0.252,0.652-0.437c3.576-3.983,7.137-7.98,10.702-11.974c0.118-0.132,0.248-0.254,0.372-0.381
		c1.587,0.161,3.057,0.777,4.57,1.214c3.722,1.072,7.426,2.204,11.136,3.313c-1.061,3.415-2.127,6.829-3.18,10.247
		C251.096,240.551,250.294,243.218,249.484,245.882z"/>
	<path fill-rule="evenodd" clip-rule="evenodd" fill="#375E04" d="M272.511,153.535c0.064-0.32,0.51-0.482,0.369-0.889
		c0.104,0.007,0.204,0.013,0.307,0.02c0.038,0.157,0.076,0.314,0.114,0.472c0.015,0.053,0.028,0.105,0.043,0.158l-0.006-0.052
		c-0.07,0.38-0.074,0.76-0.024,1.145c0.758,5.879,1.515,11.759,2.268,17.638c0.502,3.928,0.995,7.856,1.494,11.785
		c-2.737-0.451-5.474-0.902-8.21-1.354c-2.284-0.377-4.568-0.755-6.854-1.134c1.725-4.458,3.45-8.916,5.172-13.375
		c1.749-4.532,3.495-9.064,5.243-13.597C272.529,154.085,272.621,153.821,272.511,153.535z"/>
	<path fill-rule="evenodd" clip-rule="evenodd" fill="#5A2900" d="M261.296,261.597c0.507-4.999,1.013-9.997,1.521-14.996
		c2.719,0.131,5.437,0.264,8.154,0.396c-0.146,5.404-0.291,10.808-0.436,16.212C267.421,263.012,261.261,261.938,261.296,261.597z"
		/>
	<path fill-rule="evenodd" clip-rule="evenodd" fill="#5F7E36" d="M291.211,205.772c1.186,2.056,2.361,4.116,3.556,6.165
		c2.37,4.059,4.752,8.11,7.123,12.168c0.126,0.214,0.322,0.402,0.317,0.68c-0.662,0.003-1.325,0.009-1.988,0.008
		c-2.752-0.005-5.505-0.009-8.257-0.017c-3.262-0.01-6.523-0.023-9.785-0.035c-1.16-4.739-2.325-9.479-3.48-14.221
		c-0.52-2.133-1.02-4.272-1.529-6.409c1.571,0.171,3.144,0.327,4.712,0.516C284.991,204.999,288.101,205.389,291.211,205.772z"/>
	<path fill-rule="evenodd" clip-rule="evenodd" fill="#5F7E36" d="M277.075,183.811c-0.499-3.929-0.992-7.857-1.494-11.785
		c-0.753-5.879-1.51-11.759-2.268-17.638c-0.05-0.385-0.046-0.765,0.024-1.145c1.769,3.646,3.545,7.291,5.305,10.942
		c3.544,7.353,7.08,14.709,10.615,22.066c0.118,0.246,0.316,0.468,0.281,0.771c-1.433-0.152-2.788-0.633-4.17-0.993
		C282.6,185.309,279.84,184.552,277.075,183.811z"/>
	<path fill-rule="evenodd" clip-rule="evenodd" fill="#5F7E36" d="M286.182,188.392c0.056,0.422,0.335,0.738,0.533,1.09
		c2.658,4.718,5.329,9.429,7.98,14.152c0.112,0.198,0.462,0.389,0.181,0.707c-1.098-0.362-2.249-0.417-3.378-0.601
		c-3.548-0.578-7.098-1.141-10.647-1.708c-0.369-1.513-0.737-3.025-1.11-4.535c-1.021-4.11-2.046-8.22-3.067-12.329
		c1.869,0.493,3.64,1.271,5.47,1.876C283.49,187.49,284.788,188.085,286.182,188.392z"/>
	<path fill-rule="evenodd" clip-rule="evenodd" fill="#1C2F02" d="M282.177,224.741c3.262,0.012,6.523,0.025,9.785,0.035
		c2.752,0.008,5.505,0.012,8.257,0.017c0.663,0.001,1.326-0.005,1.988-0.008c-0.978,0.764-2.117,1.263-3.156,1.923
		c-0.271,0.173-0.618,0.25-0.77,0.582c-0.252-0.145-0.53-0.177-0.813-0.197c-5.836-0.424-11.673-0.848-17.51-1.272
		c-2.644,0.19-5.287,0.377-7.932,0.571c-5.646,0.416-11.288,0.834-16.933,1.252c-3.71-1.108-7.414-2.24-11.136-3.313
		c-1.514-0.437-2.983-1.053-4.57-1.214c-0.045-0.331-0.35-0.415-0.565-0.572c-1.435-1.038-2.877-2.065-4.317-3.098
		c0.851-0.196,1.527,0.319,2.254,0.58c5.136,1.843,10.259,3.717,15.387,5.58c2.751-0.082,5.502-0.169,8.253-0.246
		c2.549-0.069,5.098-0.123,7.646-0.19c3.21-0.085,6.42-0.17,9.63-0.264C279.176,224.863,280.676,224.796,282.177,224.741z"/>
	<path fill-rule="evenodd" clip-rule="evenodd" fill="#1C2F02" d="M280.851,202.033c3.55,0.567,7.1,1.13,10.647,1.708
		c1.129,0.184,2.28,0.238,3.378,0.601c-1.189,0.56-2.432,0.983-3.665,1.431c-3.11-0.383-6.22-0.773-9.332-1.146
		c-1.568-0.188-3.141-0.345-4.712-0.516c-0.917,0.021-1.835,0.026-2.752,0.068c-3.441,0.161-6.883,0.33-10.322,0.505
		c-1.705,0.088-3.409,0.192-5.113,0.291c-0.375-0.192-0.786-0.188-1.19-0.233c-1.186-0.135-2.371-0.273-3.554-0.429
		c-2.642-0.346-5.283-0.703-7.925-1.056c-1.087-0.58-2.174-1.16-3.26-1.74c0.261-0.177,0.538-0.279,0.864-0.219
		c1.402,0.26,2.805,0.518,4.21,0.769c3.284,0.59,6.568,1.177,9.854,1.764c3.405-0.271,6.81-0.547,10.214-0.815
		C272.412,202.684,276.632,202.36,280.851,202.033z"/>
	<path fill-rule="evenodd" clip-rule="evenodd" fill="#1C2F02" d="M286.182,188.392c-1.394-0.307-2.691-0.902-4.039-1.348
		c-1.83-0.605-3.601-1.383-5.47-1.876c-0.667-0.322-1.398-0.201-2.101-0.298c-2.839-0.392-5.683-0.765-8.528-1.12
		c-0.52-0.064-1.06-0.186-1.58,0.043c-0.225,0.044-0.457,0.058-0.67,0.135c-3.976,1.43-7.947,2.867-11.921,4.303
		c-0.847-0.246-1.692-0.498-2.542-0.735c-0.327-0.09-0.569-0.181-0.183-0.512c0.365,0.022,0.697-0.071,1.033-0.227
		c3.941-1.816,7.887-3.624,11.83-5.435c2.285,0.379,4.569,0.757,6.854,1.134c2.736,0.452,5.473,0.903,8.21,1.354
		c2.765,0.741,5.524,1.498,8.294,2.22c1.382,0.36,2.737,0.841,4.17,0.993l-0.028,0.007c-0.016,0.061-0.03,0.121-0.046,0.182
		C288.402,187.694,287.304,188.075,286.182,188.392z"/>
	<path fill-rule="evenodd" clip-rule="evenodd" fill="#82C400" d="M273.344,153.295c-0.015-0.053-0.028-0.105-0.043-0.158
		C273.315,153.19,273.329,153.243,273.344,153.295z"/>
	<path fill-rule="evenodd" clip-rule="evenodd" fill="#82C400" d="M289.465,187.212c0.016-0.061,0.03-0.121,0.046-0.182
		c0.031,0.023,0.064,0.047,0.095,0.069C289.559,187.137,289.512,187.175,289.465,187.212z"/>
	<path fill-rule="evenodd" clip-rule="evenodd" fill="#294703" d="M246.311,203.257c2.642,0.353,5.283,0.71,7.925,1.056
		c1.183,0.155,2.368,0.294,3.554,0.429c0.404,0.046,0.815,0.041,1.19,0.233c-1.856,5.516-3.725,11.026-5.559,16.549
		c-0.449,1.353-1.056,2.657-1.274,4.083c-5.128-1.863-10.251-3.737-15.387-5.58c-0.727-0.261-1.403-0.776-2.254-0.58
		c-0.943-0.551-0.941-0.551-0.268-1.377C238.263,213.132,242.287,208.196,246.311,203.257z"/>
	<path fill-rule="evenodd" clip-rule="evenodd" fill="#294703" d="M251.873,188.231c3.974-1.436,7.945-2.873,11.921-4.303
		c0.213-0.077,0.445-0.091,0.669-0.135c-0.053,0.249-0.086,0.505-0.166,0.746c-1.158,3.516-2.341,7.025-3.482,10.547
		c-0.946,2.915-2.012,5.79-2.836,8.744c-3.285-0.587-6.569-1.174-9.854-1.764c-1.405-0.251-2.808-0.509-4.21-0.769
		c-0.326-0.061-0.604,0.042-0.864,0.219c-1.251-0.497-1.247-0.495-0.448-1.508C245.693,196.083,248.784,192.157,251.873,188.231z"/>
	<path fill-rule="evenodd" clip-rule="evenodd" fill="#294703" d="M262.012,181.323c-3.943,1.811-7.889,3.618-11.83,5.435
		c-0.336,0.155-0.668,0.249-1.033,0.227c1.056-1.531,2.103-3.068,3.166-4.594c6.514-9.337,13.031-18.674,19.548-28.01
		c0.203-0.29,0.431-0.563,0.648-0.846c0.11,0.286,0.019,0.551-0.084,0.816c-1.748,4.532-3.494,9.064-5.243,13.597
		C265.462,172.407,263.736,176.865,262.012,181.323z"/>
	<path fill-rule="evenodd" clip-rule="evenodd" fill="#375E04" d="M255.095,227.643c5.645-0.418,11.287-0.836,16.933-1.252
		c2.645-0.194,5.288-0.381,7.932-0.571c0.249,1.094,0.472,2.193,0.751,3.278c1.474,5.733,2.962,11.463,4.445,17.193
		c0.116,0.444,0.249,0.886,0.204,1.354c-4.465-0.209-8.93-0.419-13.394-0.627c-0.332-0.015-0.664-0.016-0.995-0.022
		c-2.718-0.132-5.436-0.265-8.154-0.396c-4.014-0.208-8.025-0.413-12.039-0.622c-0.432-0.023-0.862-0.063-1.293-0.097
		c0.81-2.664,1.611-5.331,2.431-7.992C252.968,234.472,254.034,231.058,255.095,227.643z"/>
	<path fill-rule="evenodd" clip-rule="evenodd" fill="#375E04" d="M252.146,225.607c0.219-1.426,0.825-2.73,1.274-4.083
		c1.834-5.522,3.702-11.033,5.559-16.549c1.704-0.099,3.408-0.203,5.113-0.291c3.439-0.175,6.881-0.344,10.322-0.505
		c0.917-0.042,1.835-0.047,2.752-0.068c0.51,2.137,1.01,4.276,1.529,6.409c1.155,4.741,2.32,9.481,3.48,14.221
		c-1.501,0.056-3.001,0.122-4.502,0.166c-3.21,0.094-6.42,0.179-9.63,0.264c-2.548,0.067-5.097,0.121-7.646,0.19
		C257.648,225.438,254.897,225.525,252.146,225.607z"/>
	<path fill-rule="evenodd" clip-rule="evenodd" fill="#375E04" d="M257.979,203.831c0.824-2.954,1.89-5.829,2.836-8.744
		c1.142-3.521,2.324-7.031,3.482-10.547c0.08-0.241,0.113-0.497,0.166-0.746c0.521-0.229,1.062-0.107,1.581-0.043
		c2.846,0.355,5.689,0.729,8.528,1.12c0.702,0.097,1.434-0.024,2.101,0.298c1.021,4.109,2.046,8.219,3.067,12.329
		c0.373,1.51,0.741,3.022,1.11,4.535c-4.219,0.327-8.438,0.651-12.658,0.982C264.788,203.284,261.384,203.559,257.979,203.831z"/>
</g>
<g>
	<path fill-rule="evenodd" clip-rule="evenodd" fill="#5F7E36" d="M193.781,212.083c-7.283,1.616-14.566,3.244-21.855,4.838
		c-1.831,0.402-3.636,0.936-5.509,1.13c0.054-0.549-0.104-1.063-0.237-1.585c-1.738-6.709-3.479-13.413-5.203-20.125
		c-0.328-1.27-0.589-2.559-0.881-3.838c6.833,0.497,13.664,0.993,20.497,1.49c0.329,0.024,0.655,0.062,0.949,0.23
		c3.873,5.626,7.743,11.252,11.629,16.869c0.162,0.236,0.205,0.644,0.633,0.631C193.797,211.846,193.789,211.965,193.781,212.083z"
		/>
	<path fill-rule="evenodd" clip-rule="evenodd" fill="#294703" d="M124.428,215.986c-2.549-0.935-4.983-2.133-7.467-3.221
		c-5.709-2.504-11.405-5.041-17.107-7.559c-0.323-0.143-0.667-0.238-1.002-0.356c0.011-0.18,0.022-0.359,0.033-0.538
		c0.482,0.18,0.568-0.295,0.764-0.51c4.186-4.664,8.354-9.344,12.527-14.017c0.138-0.154,0.288-0.299,0.435-0.446
		c1.858,0.188,3.578,0.91,5.351,1.421c4.355,1.256,8.689,2.581,13.031,3.877c-1.239,4-2.488,7.994-3.719,11.995
		C126.313,209.747,125.377,212.868,124.428,215.986z"/>
	<path fill-rule="evenodd" clip-rule="evenodd" fill="#375E04" d="M151.379,107.896c0.074-0.375,0.598-0.564,0.432-1.039
		c0.121,0.008,0.239,0.016,0.358,0.022c0.045,0.185,0.089,0.368,0.135,0.553c0.017,0.061,0.033,0.124,0.05,0.185l-0.007-0.061
		c-0.082,0.445-0.087,0.89-0.028,1.339c0.887,6.881,1.773,13.764,2.653,20.645c0.59,4.598,1.167,9.196,1.749,13.795
		c-3.203-0.53-6.407-1.057-9.609-1.586c-2.673-0.44-5.348-0.884-8.021-1.326c2.018-5.22,4.038-10.438,6.053-15.657
		c2.049-5.303,4.092-10.608,6.138-15.912C151.4,108.542,151.508,108.232,151.379,107.896z"/>
	<path fill-rule="evenodd" clip-rule="evenodd" fill="#5A2900" d="M138.131,235.578c0.633-6.251,1.268-12.5,1.9-18.75
		c3.183,0.154,6.363,0.31,9.545,0.464c-0.132,4.908-0.366,13.627-0.466,17.285C149.081,235.632,141.776,235.807,138.131,235.578z"/>
	<path fill-rule="evenodd" clip-rule="evenodd" fill="#5F7E36" d="M173.266,169.04c1.389,2.404,2.764,4.817,4.164,7.215
		c2.772,4.75,5.561,9.492,8.337,14.241c0.146,0.252,0.376,0.473,0.37,0.797c-0.776,0.003-1.552,0.011-2.326,0.01
		c-3.222-0.007-6.443-0.01-9.665-0.021c-3.816-0.012-7.636-0.027-11.453-0.04c-1.359-5.549-2.721-11.097-4.074-16.646
		c-0.607-2.497-1.192-5-1.79-7.501c1.84,0.198,3.68,0.382,5.517,0.603C165.986,168.135,169.626,168.59,173.266,169.04z"/>
	<path fill-rule="evenodd" clip-rule="evenodd" fill="#5F7E36" d="M156.721,143.334c-0.582-4.599-1.159-9.197-1.749-13.795
		c-0.88-6.881-1.767-13.764-2.653-20.645c-0.059-0.449-0.054-0.894,0.028-1.339c2.071,4.269,4.149,8.533,6.211,12.807
		c4.147,8.607,8.285,17.217,12.422,25.829c0.139,0.287,0.371,0.548,0.33,0.903c-1.676-0.178-3.263-0.741-4.881-1.164
		C163.188,145.087,159.956,144.203,156.721,143.334z"/>
	<path fill-rule="evenodd" clip-rule="evenodd" fill="#5F7E36" d="M167.379,148.696c0.067,0.493,0.392,0.864,0.625,1.276
		c3.111,5.521,6.237,11.036,9.343,16.563c0.129,0.232,0.539,0.455,0.21,0.828c-1.285-0.424-2.634-0.487-3.954-0.703
		c-4.153-0.677-8.308-1.334-12.461-1.999c-0.435-1.77-0.864-3.541-1.303-5.307c-1.194-4.813-2.393-9.623-3.589-14.433
		c2.188,0.577,4.261,1.487,6.402,2.196C164.229,147.64,165.749,148.336,167.379,148.696z"/>
	<path fill-rule="evenodd" clip-rule="evenodd" fill="#1C2F02" d="M162.692,191.242c3.817,0.013,7.637,0.028,11.453,0.04
		c3.222,0.011,6.443,0.014,9.665,0.021c0.774,0.001,1.55-0.007,2.326-0.01c-1.146,0.895-2.479,1.477-3.693,2.251
		c-0.317,0.202-0.723,0.292-0.901,0.681c-0.294-0.169-0.62-0.206-0.949-0.23c-6.833-0.497-13.664-0.993-20.497-1.489
		c-3.094,0.223-6.188,0.442-9.282,0.669c-6.608,0.486-13.214,0.977-19.821,1.464c-4.342-1.296-8.676-2.621-13.031-3.877
		c-1.772-0.511-3.492-1.232-5.351-1.421c-0.054-0.388-0.409-0.485-0.662-0.67c-1.679-1.215-3.366-2.418-5.053-3.625
		c0.995-0.229,1.786,0.374,2.637,0.679c6.012,2.158,12.009,4.349,18.011,6.532c3.219-0.097,6.439-0.198,9.661-0.287
		c2.982-0.083,5.964-0.146,8.947-0.224c3.757-0.101,7.515-0.198,11.271-0.311C159.181,191.384,160.936,191.307,162.692,191.242z"/>
	<path fill-rule="evenodd" clip-rule="evenodd" fill="#1C2F02" d="M161.142,164.662c4.153,0.665,8.308,1.322,12.461,1.999
		c1.32,0.216,2.669,0.279,3.954,0.703c-1.393,0.655-2.847,1.151-4.291,1.676c-3.64-0.449-7.279-0.904-10.921-1.342
		c-1.837-0.221-3.677-0.404-5.517-0.603c-1.072,0.025-2.147,0.029-3.22,0.08c-4.029,0.188-8.058,0.386-12.083,0.591
		c-1.994,0.101-3.99,0.226-5.984,0.339c-0.438-0.225-0.921-0.218-1.394-0.272c-1.388-0.156-2.774-0.319-4.159-0.501
		c-3.092-0.406-6.184-0.824-9.276-1.236c-1.271-0.679-2.544-1.357-3.815-2.036c0.306-0.208,0.629-0.327,1.011-0.257
		c1.642,0.305,3.284,0.605,4.928,0.9c3.846,0.69,7.688,1.376,11.534,2.063c3.984-0.317,7.97-0.64,11.957-0.953
		C151.264,165.424,156.201,165.043,161.142,164.662z"/>
	<path fill-rule="evenodd" clip-rule="evenodd" fill="#1C2F02" d="M167.379,148.696c-1.63-0.359-3.149-1.056-4.727-1.577
		c-2.142-0.709-4.215-1.619-6.402-2.196c-0.78-0.376-1.638-0.235-2.457-0.348c-3.326-0.459-6.652-0.896-9.982-1.311
		c-0.607-0.076-1.242-0.219-1.85,0.048c-0.263,0.053-0.537,0.07-0.784,0.159c-4.653,1.673-9.304,3.355-13.953,5.036
		c-0.991-0.288-1.981-0.583-2.978-0.861c-0.381-0.105-0.666-0.211-0.211-0.598c0.427,0.025,0.815-0.084,1.207-0.265
		c4.613-2.128,9.23-4.243,13.848-6.361c2.674,0.442,5.349,0.886,8.021,1.326c3.202,0.529,6.406,1.056,9.609,1.586
		c3.235,0.868,6.467,1.753,9.708,2.597c1.618,0.423,3.205,0.986,4.881,1.164l-0.032,0.009c-0.018,0.07-0.038,0.14-0.054,0.212
		C169.979,147.879,168.694,148.324,167.379,148.696z"/>
	<path fill-rule="evenodd" clip-rule="evenodd" fill="#82C400" d="M152.354,107.617c-0.017-0.061-0.033-0.124-0.05-0.185
		C152.32,107.493,152.337,107.556,152.354,107.617z"/>
	<path fill-rule="evenodd" clip-rule="evenodd" fill="#82C400" d="M171.224,147.316c0.016-0.072,0.036-0.142,0.054-0.212
		c0.036,0.025,0.074,0.052,0.111,0.08C171.334,147.227,171.278,147.272,171.224,147.316z"/>
	<path fill-rule="evenodd" clip-rule="evenodd" fill="#294703" d="M120.712,166.095c3.093,0.412,6.185,0.83,9.276,1.236
		c1.385,0.182,2.771,0.345,4.159,0.501c0.473,0.055,0.955,0.048,1.394,0.272c-2.173,6.457-4.361,12.907-6.507,19.37
		c-0.525,1.583-1.233,3.112-1.491,4.78c-6.002-2.184-11.999-4.374-18.011-6.532c-0.851-0.305-1.642-0.908-2.637-0.679
		c-1.104-0.645-1.104-0.644-0.313-1.611C111.293,177.654,116.002,171.875,120.712,166.095z"/>
	<path fill-rule="evenodd" clip-rule="evenodd" fill="#294703" d="M127.224,148.507c4.649-1.681,9.3-3.363,13.953-5.036
		c0.247-0.089,0.521-0.106,0.783-0.159c-0.063,0.293-0.103,0.592-0.197,0.873c-1.354,4.116-2.738,8.226-4.074,12.347
		c-1.108,3.412-2.354,6.778-3.319,10.234c-3.846-0.688-7.688-1.373-11.534-2.063c-1.644-0.295-3.286-0.596-4.928-0.9
		c-0.382-0.07-0.705,0.049-1.011,0.257c-1.464-0.583-1.459-0.581-0.526-1.766C119.989,157.699,123.605,153.102,127.224,148.507z"/>
	<path fill-rule="evenodd" clip-rule="evenodd" fill="#294703" d="M139.09,140.422c-4.617,2.118-9.234,4.233-13.848,6.361
		c-0.392,0.181-0.78,0.29-1.207,0.265c1.233-1.794,2.459-3.591,3.705-5.377c7.623-10.93,15.252-21.856,22.879-32.784
		c0.239-0.341,0.505-0.661,0.76-0.991c0.129,0.336,0.021,0.646-0.099,0.957c-2.046,5.304-4.089,10.609-6.138,15.912
		C143.128,129.985,141.107,135.203,139.09,140.422z"/>
	<path fill-rule="evenodd" clip-rule="evenodd" fill="#375E04" d="M130.992,194.637c6.607-0.487,13.213-0.978,19.821-1.464
		c3.094-0.227,6.188-0.446,9.282-0.669c0.292,1.278,0.553,2.567,0.881,3.837c1.724,6.712,3.465,13.416,5.203,20.125
		c0.134,0.521,0.291,1.036,0.237,1.585c-5.226-0.245-10.45-0.491-15.676-0.733c-0.389-0.017-0.778-0.02-1.165-0.026
		c-3.182-0.154-6.362-0.31-9.545-0.464c-4.697-0.242-9.394-0.484-14.091-0.729c-0.505-0.025-1.009-0.073-1.513-0.113
		c0.949-3.118,1.886-6.239,2.846-9.354C128.504,202.631,129.753,198.637,130.992,194.637z"/>
	<path fill-rule="evenodd" clip-rule="evenodd" fill="#375E04" d="M127.543,192.255c0.258-1.668,0.966-3.197,1.491-4.78
		c2.146-6.463,4.334-12.913,6.507-19.37c1.994-0.113,3.99-0.238,5.984-0.339c4.025-0.205,8.054-0.403,12.083-0.591
		c1.072-0.051,2.147-0.055,3.22-0.08c0.598,2.501,1.183,5.004,1.79,7.501c1.354,5.549,2.715,11.097,4.074,16.646
		c-1.757,0.065-3.512,0.143-5.27,0.192c-3.757,0.112-7.515,0.21-11.271,0.311c-2.983,0.078-5.965,0.141-8.947,0.224
		C133.982,192.057,130.762,192.159,127.543,192.255z"/>
	<path fill-rule="evenodd" clip-rule="evenodd" fill="#375E04" d="M134.369,166.766c0.965-3.456,2.211-6.822,3.319-10.234
		c1.336-4.121,2.72-8.23,4.074-12.347c0.095-0.281,0.135-0.58,0.197-0.873c0.608-0.267,1.243-0.124,1.851-0.048
		c3.33,0.415,6.656,0.852,9.982,1.311c0.819,0.112,1.677-0.028,2.457,0.348c1.196,4.81,2.395,9.62,3.589,14.433
		c0.438,1.766,0.868,3.537,1.303,5.307c-4.94,0.382-9.878,0.763-14.815,1.151C142.339,166.126,138.354,166.449,134.369,166.766z"/>
	<path fill-rule="evenodd" clip-rule="evenodd" fill="#5A2900" d="M149.11,234.577c-0.029,1.056-6.25,1.072-10.979,1.001"/>
	<path fill-rule="evenodd" clip-rule="evenodd" fill="#5A2900" d="M149.11,234.577c-4.618,0.687-7.334,1.23-10.979,1.001"/>
	<path fill-rule="evenodd" clip-rule="evenodd" fill="#5A2900" d="M149.11,234.577c-3.311,0.502-7.334,1.23-10.979,1.001"/>
	<path fill-rule="evenodd" clip-rule="evenodd" fill="#5A2900" d="M149.11,234.577c-2.711,0.417-7.334,1.23-10.979,1.001"/>
	<path fill-rule="evenodd" clip-rule="evenodd" fill="#5A2900" d="M149.11,234.577c-0.029,1.056-6.134,0.889-10.979,1.001"/>
	<path fill-rule="evenodd" clip-rule="evenodd" fill="#5A2900" d="M149.11,234.577c-1.156,0.153-7.334,1.23-10.979,1.001"/>
	<path fill-rule="evenodd" clip-rule="evenodd" fill="#5A2900" d="M149.11,234.577c-1.332,0.455-7.334,1.23-10.979,1.001"/>
</g>
</svg>
