<?xml version="1.0" encoding="utf-8"?>
<!-- Generator: Adobe Illustrator 16.0.0, SVG Export Plug-In . SVG Version: 6.00 Build 0)  -->
<!DOCTYPE svg PUBLIC "-//W3C//DTD SVG 1.1//EN" "http://www.w3.org/Graphics/SVG/1.1/DTD/svg11.dtd">
<svg version="1.1" id="Calque_1" xmlns="http://www.w3.org/2000/svg" xmlns:xlink="http://www.w3.org/1999/xlink" x="0px" y="0px"
	 width="29.177px" height="31.031px" viewBox="0 0 29.177 31.031" enable-background="new 0 0 29.177 31.031" xml:space="preserve">
<g>
	<path fill-rule="evenodd" clip-rule="evenodd" fill="#F7FBFA" d="M16.958,26.86c0.021,0.026,0.042,0.052,0.062,0.076
		c-0.033,0.287-0.022,0.304,0.21,0.298c0.018,0.03,0.036,0.06,0.054,0.088c0.015,0.021,0.029,0.043,0.043,0.064
		c0.007,0.022,0.015,0.046,0.021,0.068c-0.065,0.149-0.131,0.3-0.197,0.449c-0.073,0.014-0.145,0.023-0.202-0.041
		c-0.082-0.218-0.231-0.341-0.471-0.335c-0.018-0.017-0.036-0.031-0.054-0.047l-0.019-0.02c-0.04-0.037-0.079-0.073-0.118-0.11
		c0.017-0.058,0.067-0.123,0.003-0.173c-0.05-0.04-0.097,0.006-0.135,0.044c-0.017-0.017-0.034-0.032-0.051-0.048
		c-0.015-0.23-0.184-0.354-0.34-0.484c-0.058-0.048-0.126-0.158-0.191-0.002c-0.04-0.032-0.081-0.064-0.121-0.096
		c0.035-0.187-0.085-0.188-0.214-0.179c-0.021-0.016-0.041-0.032-0.062-0.048c-0.203-0.041-0.09,0.116-0.117,0.186
		c-0.076,0.433,0.186,0.671,0.493,0.901c0.366,0.274,0.72,0.566,1.03,0.905c0.073,0.08,0.142,0.167,0.198,0.26
		c0.088,0.143,0.16,0.302,0.019,0.448c-0.139,0.144-0.317,0.139-0.484,0.054c-0.382-0.194-0.692-0.489-1.026-0.752
		c-0.049-0.039-0.1-0.077-0.181-0.142c-0.044,0.288-0.056,0.521,0.107,0.762c0.297,0.437,0.32,0.891-0.014,1.333
		c-0.138,0.183-0.25,0.384-0.386,0.567c-0.13,0.179-0.284,0.195-0.429,0.015c-0.227-0.28-0.429-0.579-0.574-0.908
		c-0.155-0.354-0.048-0.694,0.153-0.99c0.164-0.241,0.146-0.479,0.118-0.774c-0.336,0.261-0.635,0.509-0.951,0.733
		c-0.219,0.156-0.482,0.364-0.727,0.101c-0.262-0.284,0.031-0.506,0.197-0.696c0.337-0.387,0.731-0.725,1.154-1.01
		c0.382-0.258,0.392-0.582,0.324-1.002c-0.427,0.291-0.773,0.631-1.125,0.963c-0.189,0.181-0.366,0.375-0.598,0.503
		c-0.17,0.095-0.353,0.165-0.513,0.009c-0.158-0.152-0.059-0.33,0.026-0.479c0.273-0.479,0.66-0.863,1.069-1.227
		c0.22-0.194,0.445-0.382,0.668-0.572c0.254,0.065,0.485-0.133,0.458-0.392c0.018-0.048,0.037-0.097,0.055-0.144
		c0.004-0.051,0.009-0.103,0.014-0.153c-0.054-0.21-0.039-0.422-0.01-0.634c0.002-0.049,0.005-0.097,0.007-0.146
		c-0.006-0.014-0.013-0.025-0.017-0.039c-0.001-0.006,0.008-0.013,0.012-0.02c-0.006-0.057,0.029-0.145-0.056-0.152
		c-0.06-0.006-0.05,0.074-0.055,0.123l0.002-0.003c-0.109,0.02-0.313-0.054-0.192,0.194c-0.047,0.048-0.095,0.097-0.142,0.146
		l-0.014-0.008l0.01,0.013c-0.002,0.023-0.015,0.036-0.038,0.039l-0.013-0.011l0.008,0.014c-0.07,0.07-0.14,0.142-0.209,0.213
		c-0.069-0.071-0.154-0.055-0.241-0.051c-0.413,0.02-0.413,0.019-0.414-0.396l0.006-0.026l0.026-0.007
		c0.172,0.001,0.345,0.015,0.512-0.04c0.049-0.016,0.144-0.052,0.129-0.065c-0.195-0.172,0.041-0.405-0.09-0.579
		c0-0.021,0.009-0.032,0.029-0.036l0.019,0.011l-0.017-0.014c0.535-0.531,0.887-1.131,0.711-1.925c-0.002-0.011-0.002-0.022,0-0.033
		c0.021-0.178-0.055-0.302-0.192-0.417c-0.423-0.352-0.837-0.715-1.254-1.071c-0.019,0.015-0.039,0.029-0.058,0.044
		c0.007,0.007,0.013,0.014,0.02,0.021c0.012-0.024,0.024-0.049,0.037-0.073c-0.127,0.118,0.015,0.195,0.053,0.277
		c0.126,0.265,0.271,0.52,0.348,0.806c0.041,0.148,0.049,0.298-0.087,0.384c-0.138,0.086-0.242-0.041-0.34-0.123
		c-0.226-0.19-0.349-0.466-0.539-0.687c-0.2,0.282-0.199,0.535,0.002,0.813c0.124,0.172,0.201,0.387,0.264,0.593
		c0.047,0.157,0.122,0.367-0.076,0.471c-0.189,0.1-0.33-0.046-0.44-0.187c-0.124-0.158-0.235-0.326-0.374-0.521
		c-0.235,0.545-0.699,1.002-0.337,1.656c0.277-0.16,0.512-0.396,0.821-0.509c0.135-0.049,0.29-0.109,0.394,0.018
		c0.119,0.146,0.017,0.291-0.081,0.411c-0.187,0.229-0.415,0.417-0.661,0.578c-0.107,0.069-0.14,0.121-0.011,0.194
		c0.056,0.021,0.112,0.041,0.167,0.062c0.145,0.03,0.275,0.091,0.384,0.192c-0.118,0.226,0.075,0.181,0.182,0.209l0.015,0.007
		l-0.003,0.016c-0.028,0.054-0.057,0.106-0.085,0.16c-0.133,0.041-0.266,0.029-0.399,0.003c-0.052-0.016-0.102-0.03-0.153-0.046
		c-0.036-0.005-0.072-0.013-0.108-0.018c-0.037-0.017-0.075-0.031-0.112-0.047c-0.047-0.002-0.094-0.003-0.141-0.005
		c-0.092-0.035-0.228-0.081-0.238,0.044c-0.013,0.139,0.145,0.056,0.224,0.083c0.01,0.129,0.021,0.258,0.031,0.387
		c-0.136,0.04-0.154,0.149-0.155,0.269c-0.111,0.021-0.222,0.043-0.333,0.065c-0.092-0.117-0.164-0.244-0.189-0.395
		c0.071-0.291-0.066-0.514-0.259-0.771c-0.028,0.135-0.047,0.227-0.066,0.318l0.002-0.002c-0.024,0.017-0.048,0.035-0.072,0.052
		c-0.061,0.05-0.121,0.098-0.181,0.146c-0.025,0.024-0.05,0.049-0.074,0.073c-0.018,0.021-0.035,0.043-0.051,0.064
		C9.962,24.989,9.955,25,9.949,25.012c-0.301,0.474-0.305,0.953-0.056,1.453c0.149,0.301,0.292,0.61,0.33,0.951
		c0.014,0.127,0.033,0.284-0.125,0.337c-0.146,0.048-0.205-0.093-0.27-0.188c-0.241-0.35-0.359-0.762-0.557-1.164
		c-0.274,0.553-0.515,1.089-0.832,1.584c-0.076,0.119-0.157,0.237-0.249,0.344c-0.075,0.086-0.155,0.225-0.289,0.161
		c-0.127-0.06-0.089-0.201-0.073-0.322c0.039-0.283,0.138-0.549,0.244-0.811c0.139-0.342,0.292-0.677,0.444-1.027
		c-0.109-0.028-0.185,0.039-0.267,0.072c-0.223,0.09-0.444,0.184-0.686,0.206c-0.147,0.014-0.324,0.056-0.395-0.133
		c-0.069-0.183,0.071-0.287,0.201-0.363c0.187-0.11,0.383-0.205,0.581-0.293c0.32-0.14,0.63-0.298,0.921-0.49
		c0.436-0.287,0.57-0.999,0.274-1.418c-0.086-0.121-0.153-0.023-0.216,0.017c-0.286,0.181-0.566,0.368-0.889,0.479
		c-0.104,0.036-0.221,0.085-0.301-0.015c-0.092-0.113-0.016-0.227,0.059-0.323c0.209-0.271,0.51-0.435,0.786-0.649
		c-0.182-0.102-0.354-0.19-0.517-0.291c-0.117-0.072-0.209-0.182-0.151-0.327c0.063-0.156,0.211-0.13,0.339-0.105
		c0.289,0.055,0.554,0.181,0.837,0.316c0.01-0.349-0.092-0.661-0.03-0.976c0.024-0.123,0.027-0.293,0.184-0.314
		c0.178-0.023,0.221,0.148,0.273,0.276c0.112,0.271,0.116,0.57,0.181,0.843c0.742-0.106,0.983-0.661,1.169-1.307
		c-0.253,0.048-0.471,0.184-0.717,0.187c-0.131,0-0.28,0.021-0.333-0.136c-0.05-0.149,0.054-0.246,0.168-0.32
		c0.268-0.174,0.562-0.299,0.871-0.356c0.348-0.066,0.53-0.257,0.589-0.624c-0.26,0.071-0.51,0.145-0.764,0.208
		c-0.14,0.035-0.312,0.062-0.382-0.088c-0.081-0.173,0.104-0.244,0.211-0.318c0.358-0.246,0.78-0.363,1.213-0.557
		c-0.539-0.354-1.085-0.583-1.652-0.766c-0.01-0.003-0.021-0.008-0.031-0.009c-0.198-0.016-1.273,0.692-1.346,0.886
		c-0.359,0.956-0.682,1.927-1.157,2.836c-0.061,0.114-0.123,0.231-0.199,0.336c-0.066,0.091-0.123,0.229-0.276,0.172
		c-0.136-0.052-0.184-0.173-0.193-0.313c-0.013-0.201,0.043-0.388,0.102-0.575c0.188-0.601,0.383-1.2,0.511-1.818
		c0.007-0.023,0.014-0.048,0.021-0.071c-0.025,0.006-0.049,0.011-0.074,0.017c-0.256,0.142-0.51,0.29-0.771,0.426
		c-0.138,0.07-0.158,0.187-0.185,0.32c-0.152,0.745-0.26,1.5-0.513,2.224c-0.086,0.247-0.188,0.487-0.342,0.701
		c-0.077,0.108-0.178,0.204-0.329,0.161c-0.154-0.044-0.229-0.163-0.246-0.314c-0.03-0.265,0.036-0.519,0.096-0.773
		c0.122-0.517,0.271-1.028,0.307-1.584c-0.397,0.144-0.673,0.323-0.71,0.79c-0.04,0.507-0.129,1.017-0.296,1.502
		c-0.08,0.233-0.133,0.566-0.487,0.511c-0.382-0.062-0.309-0.4-0.29-0.66c0.029-0.388,0.094-0.772,0.148-1.19
		c-0.249,0.091-0.455,0.171-0.571,0.411c-0.248,0.513-0.649,0.774-1.238,0.702c-0.194-0.024-0.392-0.024-0.586-0.049
		c-0.3-0.036-0.375-0.165-0.246-0.447c0.126-0.276,0.265-0.549,0.421-0.81c0.209-0.348,0.567-0.44,0.934-0.429
		c0.295,0.009,0.529-0.079,0.764-0.271C3.13,21.308,2.923,21.28,2.74,21.205c-0.291-0.121-0.594-0.218-0.848-0.413
		c-0.129-0.099-0.207-0.22-0.153-0.395c0.056-0.182,0.196-0.215,0.357-0.22c0.289-0.01,0.56,0.077,0.827,0.168
		c0.329,0.111,0.669,0.206,0.976,0.365c0.418,0.218,0.714,0.038,1.048-0.223c-0.48-0.22-0.955-0.358-1.431-0.493
		c-0.271-0.078-0.544-0.152-0.787-0.306c-0.155-0.1-0.23-0.237-0.179-0.416c0.047-0.168,0.198-0.187,0.342-0.193
		c0.475-0.022,0.932,0.078,1.38,0.218c0.477,0.148,0.954,0.3,1.421,0.479c0.249,0.096,0.452,0.08,0.668-0.07
		c0.195-0.136,0.408-0.245,0.692-0.413c-0.707-0.171-1.34-0.322-1.972-0.478c-0.21-0.051-0.426-0.093-0.601-0.236
		c-0.09-0.074-0.146-0.168-0.125-0.284c0.023-0.143,0.15-0.148,0.255-0.152c0.25-0.01,0.5-0.003,0.777-0.003
		c-0.179-0.261-0.244-0.563-0.346-0.868c-0.27,0.15-0.49,0.35-0.768,0.444c-0.092,0.031-0.186,0.076-0.274-0.012
		c-0.089-0.088-0.042-0.182-0.009-0.272c0.136-0.364,0.414-0.635,0.643-0.937c-0.591-0.392-1.254-0.313-1.7,0.206
		c-0.22,0.256-0.419,0.529-0.632,0.79c-0.055,0.067-0.125,0.121-0.19,0.179c-0.104,0.09-0.236,0.169-0.354,0.085
		c-0.137-0.097-0.041-0.236,0.012-0.353c0.168-0.368,0.472-0.646,0.667-0.998c0.011-0.013,0.021-0.024,0.032-0.036
		c-0.023,0-0.046,0-0.069,0c-0.642,0.019-1.283,0.103-1.927,0.035c-0.075-0.008-0.155-0.004-0.227-0.025
		C0.147,16.35,0.008,16.35,0,16.208c-0.008-0.135,0.114-0.172,0.216-0.211c0.547-0.209,1.127-0.233,1.699-0.303
		C2,15.684,2.084,15.677,2.227,15.663c-0.272-0.236-0.547-0.396-0.738-0.644c-0.095-0.125-0.248-0.256-0.119-0.431
		c0.14-0.189,0.327-0.093,0.47-0.005c0.323,0.201,0.625,0.438,0.947,0.64c0.901,0.565,1.143,0.523,1.858-0.309
		c-0.333-0.182-0.684-0.332-0.978-0.573C3.563,14.256,3.403,14.164,3.488,14c0.081-0.155,0.257-0.11,0.385-0.068
		c0.296,0.097,0.584,0.219,0.879,0.332c-0.011-0.168-0.033-0.33-0.03-0.492c0.003-0.16,0.005-0.362,0.217-0.384
		c0.215-0.022,0.253,0.186,0.291,0.335c0.06,0.241,0.086,0.489,0.132,0.766c0.247-0.156,0.475-0.314,0.716-0.446
		c0.136-0.074,0.322-0.2,0.447-0.053c0.144,0.17-0.023,0.327-0.144,0.446c-0.146,0.146-0.304,0.283-0.472,0.402
		c-0.147,0.106-0.105,0.145,0.01,0.252c0.387,0.36,0.83,0.378,1.307,0.271c0.083-0.019,0.17-0.019,0.297-0.03
		c-0.186-0.19-0.356-0.352-0.508-0.526c-0.091-0.104-0.193-0.24-0.074-0.379c0.112-0.13,0.258-0.068,0.386-0.006
		c0.257,0.127,0.483,0.304,0.675,0.511c0.238,0.257,0.483,0.437,0.858,0.241c-0.093-0.178-0.306-0.264-0.433-0.428
		c-0.066-0.087-0.132-0.174-0.194-0.263c-0.053-0.076-0.079-0.168-0.023-0.245c0.073-0.101,0.172-0.054,0.266-0.015
		c0.441,0.182,0.783,0.509,1.187,0.815c0.08-0.511-0.024-0.984-0.07-1.463c-0.032-0.335-0.232-0.478-0.477-0.666
		c-0.596-0.458-1.215-0.454-1.9-0.293c-0.699,0.164-1.417,0.235-2.136,0.283c-0.163,0.011-0.327,0.005-0.489-0.013
		c-0.091-0.009-0.208-0.012-0.233-0.139c-0.024-0.118,0.026-0.214,0.114-0.288c0.182-0.152,0.409-0.196,0.631-0.25
		c0.623-0.151,1.246-0.3,1.918-0.461c-0.313-0.247-0.625-0.392-0.921-0.563c-0.125-0.073-0.234,0.021-0.342,0.056
		c-0.765,0.249-1.511,0.563-2.315,0.674c-0.204,0.028-0.413,0.03-0.619,0.022c-0.117-0.003-0.244-0.04-0.277-0.184
		c-0.033-0.138-0.002-0.261,0.11-0.354c0.188-0.159,0.417-0.232,0.646-0.301c0.54-0.164,1.088-0.306,1.644-0.553
		c-0.317-0.228-0.566-0.453-0.992-0.247c-0.428,0.207-0.897,0.33-1.352,0.478c-0.144,0.047-0.298,0.063-0.449,0.074
		c-0.181,0.014-0.358-0.011-0.42-0.224c-0.06-0.206,0.06-0.345,0.216-0.432c0.237-0.131,0.488-0.238,0.738-0.346
		c0.195-0.083,0.396-0.152,0.643-0.245c-0.23-0.15-0.393-0.303-0.646-0.284C2.089,9.362,1.648,9.139,1.413,8.564
		c-0.079-0.191-0.186-0.37-0.265-0.562C1.061,7.79,1.156,7.655,1.372,7.634c0.325-0.031,0.654-0.063,0.979-0.048
		c0.423,0.021,0.698,0.292,0.87,0.653c0.121,0.253,0.325,0.359,0.596,0.459C3.763,8.275,3.698,7.882,3.668,7.485
		C3.65,7.234,3.59,6.912,3.948,6.846c0.359-0.065,0.415,0.269,0.494,0.5C4.604,7.82,4.705,8.317,4.734,8.814
		c0.028,0.477,0.3,0.679,0.718,0.839C5.43,9.183,5.307,8.757,5.21,8.326c-0.069-0.308-0.169-0.607-0.17-0.929
		c0-0.193,0.06-0.356,0.247-0.419c0.196-0.065,0.299,0.091,0.386,0.23C5.959,7.67,6.091,8.188,6.21,8.708
		c0.07,0.308,0.182,0.618,0.182,0.927c0,0.612,0.387,0.868,0.86,1.079c0.06,0.026,0.122,0.082,0.181,0.039
		c0.075-0.054,0.038-0.142,0.017-0.211C7.294,10.01,7.137,9.478,6.979,8.946c-0.059-0.198-0.12-0.397-0.104-0.608
		c0.01-0.143,0.071-0.26,0.211-0.298c0.129-0.036,0.198,0.075,0.253,0.165c0.126,0.203,0.239,0.414,0.394,0.686
		c0.109-0.335,0.354-0.53,0.569-0.755C8.06,8.003,7.832,7.883,7.61,7.753C7.498,7.687,7.369,7.6,7.405,7.45
		c0.038-0.153,0.194-0.152,0.324-0.157c0.262-0.011,0.524-0.006,0.779,0.063c0.25,0.068,0.296-0.04,0.263-0.266
		C8.683,6.496,8.224,6.07,7.572,5.988C7.28,5.951,6.989,5.911,6.7,5.858C6.584,5.838,6.473,5.787,6.366,5.736
		C6.273,5.691,6.202,5.613,6.229,5.501c0.025-0.103,0.125-0.108,0.211-0.123c0.34-0.057,0.673,0.02,1.008,0.05
		c0.106,0.01,0.209,0.055,0.336,0.015c-0.27-0.427-0.539-0.846-0.801-1.27C6.84,3.941,6.713,3.7,6.644,3.434
		C6.626,3.368,6.616,3.304,6.669,3.25c0.069-0.068,0.148-0.037,0.212-0.002C7.056,3.345,7.186,3.494,7.32,3.636
		c0.35,0.372,0.621,0.808,0.961,1.246c0.067-0.356,0.079-0.683,0.203-0.98c0.058-0.14,0.113-0.311,0.305-0.287
		c0.208,0.026,0.243,0.211,0.236,0.375c-0.018,0.413-0.08,0.825-0.082,1.238c-0.005,0.934-0.029,1.124,1.199,1.375
		c0-0.352-0.004-0.698,0.002-1.047c0.003-0.16,0.003-0.377,0.191-0.402c0.227-0.03,0.251,0.208,0.287,0.368
		c0.062,0.271,0.092,0.55,0.139,0.838c0.204-0.089,0.347-0.269,0.563-0.322c0.116-0.029,0.22-0.041,0.296,0.061
		c0.083,0.108,0.019,0.209-0.048,0.297c-0.186,0.247-0.447,0.41-0.722,0.618c0.218,0.109,0.417,0.206,0.612,0.306
		c0.136,0.071,0.272,0.146,0.367,0.269c0.131,0.171,0.091,0.287-0.132,0.306c-0.306,0.026-0.576-0.104-0.845-0.22
		c-0.161-0.068-0.188-0.028-0.229,0.129c-0.169,0.641,0.238,1.039,0.604,1.493c0.064-0.239,0.112-0.464,0.186-0.681
		c0.045-0.131,0.116-0.285,0.289-0.266c0.2,0.023,0.199,0.205,0.21,0.355c0.023,0.32-0.035,0.638-0.137,0.933
		c-0.119,0.341,0.002,0.56,0.253,0.765c0.078-0.28,0.144-0.555,0.233-0.821c0.037-0.107,0.104-0.245,0.245-0.229
		c0.151,0.019,0.146,0.176,0.159,0.287c0.052,0.449-0.077,0.886-0.113,1.391c0.58-0.297,1.061-0.652,1.5-1.068
		c0.07-0.066,0.041-0.164,0.05-0.249c0.09-0.794-0.078-1.471-0.696-2.053c-0.479-0.452-0.852-1.019-1.224-1.57
		c-0.067-0.1-0.146-0.195-0.19-0.305c-0.067-0.167-0.291-0.352-0.079-0.521c0.215-0.172,0.417,0.013,0.571,0.161
		c0.267,0.256,0.509,0.538,0.768,0.804c0.258,0.265,0.523,0.522,0.786,0.783c0.2-0.534,0.072-1.07-0.333-1.432
		c-0.521-0.464-1.07-0.897-1.516-1.44c-0.152-0.186-0.297-0.378-0.384-0.604c-0.043-0.112-0.065-0.236,0.036-0.338
		c0.105-0.104,0.236-0.113,0.365-0.065c0.218,0.083,0.392,0.233,0.558,0.393c0.414,0.396,0.824,0.797,1.321,1.162
		c0.038-0.414,0.082-0.755-0.315-1.007c-0.328-0.207-0.612-0.489-0.902-0.753c-0.16-0.146-0.304-0.313-0.435-0.485
		c-0.106-0.14-0.195-0.306-0.045-0.475c0.151-0.168,0.332-0.133,0.509-0.045c0.266,0.13,0.49,0.322,0.718,0.508
		c0.142,0.114,0.283,0.23,0.464,0.379c0.038-0.289,0.063-0.518-0.09-0.746c-0.3-0.45-0.343-0.906,0.006-1.362
		c0.139-0.181,0.246-0.386,0.384-0.567c0.135-0.177,0.298-0.178,0.435-0.001c0.22,0.285,0.425,0.583,0.57,0.912
		c0.152,0.345,0.043,0.675-0.148,0.96c-0.161,0.24-0.174,0.479-0.133,0.805c0.255-0.203,0.477-0.383,0.7-0.559
		c0.179-0.143,0.36-0.285,0.577-0.367c0.151-0.056,0.306-0.044,0.424,0.082c0.128,0.137,0.079,0.279-0.003,0.42
		c-0.203,0.347-0.521,0.583-0.813,0.844c-0.162,0.146-0.323,0.299-0.508,0.411c-0.396,0.24-0.479,0.58-0.362,1.032
		c0.395-0.267,0.721-0.598,1.062-0.911c0.224-0.205,0.427-0.437,0.702-0.583c0.157-0.083,0.314-0.113,0.457,0.012
		c0.158,0.141,0.077,0.3,0.002,0.446c-0.207,0.404-0.512,0.73-0.841,1.035c-0.328,0.304-0.644,0.627-1,0.893
		c-0.308,0.228-0.479,0.483-0.435,0.868c0,0.139,0,0.278-0.001,0.417c0,0.035,0,0.071,0.001,0.106
		c0.005,0.081-0.014,0.198,0.094,0.197c0.108,0,0.084-0.119,0.092-0.197c0.022-0.021,0.044-0.042,0.066-0.063
		c0.078,0.063,0.166,0.019,0.249,0.028c0.201,0.022,0.416,0.115,0.369-0.258c-0.021-0.163,0.119-0.129,0.222-0.047
		c0.153,0.124,0.08,0.303,0.123,0.452l-0.003,0.005c-0.132,0.022-0.307,0.01-0.208,0.235c-0.049,0.107-0.12,0.197-0.216,0.268
		c-0.26-0.075-0.17,0.136-0.203,0.246c-0.014,0.019-0.028,0.036-0.042,0.054c-0.088-0.104-0.162-0.075-0.213,0.033
		c-0.054,0.117-0.143,0.172-0.269,0.174l0,0.001c-0.002,0.114-0.043,0.23,0.009,0.346c-0.115,0.45-0.023,0.909-0.033,1.362
		c0,0.037,0.031,0.084,0.062,0.11c0.464,0.4,0.916,0.817,1.482,1.216c-0.2-0.42-0.422-0.744-0.509-1.128
		c-0.03-0.133-0.048-0.267,0.085-0.353c0.146-0.095,0.244,0.02,0.34,0.104c0.222,0.193,0.353,0.462,0.543,0.697
		c0.188-0.272,0.214-0.507,0.019-0.779c-0.163-0.228-0.275-0.493-0.313-0.78c-0.017-0.124-0.022-0.253,0.097-0.32
		c0.133-0.077,0.249-0.002,0.353,0.086c0.195,0.166,0.293,0.403,0.472,0.632c0.17-0.497,0.618-0.868,0.421-1.468
		c-0.077-0.236-0.128-0.188-0.267-0.08c-0.197,0.154-0.401,0.302-0.638,0.392c-0.132,0.05-0.291,0.11-0.395-0.019
		c-0.115-0.143-0.019-0.29,0.08-0.411c0.188-0.229,0.419-0.411,0.662-0.578c0.094-0.065,0.158-0.119,0.011-0.192
		c-0.017-0.277-0.192-0.163-0.333-0.135l0,0c-0.019-0.205-0.233-0.317-0.25-0.523c0.043-0.001,0.087-0.003,0.131-0.004
		c0.039,0.101,0.084,0.059,0.13,0.005c0.088,0.021,0.176,0.041,0.264,0.061c0.049,0.014,0.097,0.028,0.146,0.042l-0.014-0.006
		c0.064,0.067,0.145,0.091,0.235,0.084c0.06-0.004,0.158,0.008,0.148-0.074c-0.013-0.104-0.109-0.072-0.182-0.054
		c-0.003-0.042-0.007-0.084-0.01-0.125c0.028-0.144,0.171-0.158,0.257-0.195c-0.107-0.12-0.201-0.225-0.294-0.33
		c0.011-0.052,0.021-0.104,0.032-0.155c0.004-0.016,0.006-0.03,0.006-0.047c0.002-0.021,0.005-0.042,0.008-0.063
		c0.211-0.017,0.362,0.048,0.387,0.285c0.013,0.125,0.103,0.12,0.193,0.107c0.075,0.097,0.12,0.205,0.133,0.327
		c-0.023,0.061-0.021,0.11,0.054,0.131c0.015,0.018,0.019,0.037,0.013,0.06c0.015,0.025,0.029,0.05,0.043,0.074
		c0.018,0.004,0.025,0.014,0.023,0.032c0.132,0.041,0.236,0.027,0.26-0.137c0.546-0.504,0.632-1.084,0.301-1.741
		c-0.137-0.272-0.261-0.553-0.309-0.857c-0.023-0.147-0.066-0.34,0.108-0.403c0.16-0.06,0.232,0.12,0.308,0.232
		c0.225,0.334,0.33,0.729,0.529,1.115c0.282-0.575,0.531-1.13,0.867-1.636c0.09-0.137,0.195-0.262,0.301-0.386
		c0.049-0.059,0.12-0.11,0.201-0.072c0.079,0.035,0.098,0.126,0.086,0.196c-0.034,0.203-0.063,0.412-0.135,0.604
		c-0.172,0.456-0.367,0.904-0.555,1.361c0.091,0.056,0.156-0.026,0.228-0.053c0.234-0.088,0.463-0.195,0.714-0.221
		c0.147-0.015,0.324-0.052,0.394,0.141c0.066,0.185-0.076,0.286-0.204,0.364c-0.176,0.106-0.365,0.194-0.553,0.278
		c-0.289,0.129-0.574,0.261-0.842,0.431c-0.548,0.348-0.688,0.88-0.386,1.462c0.081,0.155,0.155,0.052,0.228,0.005
		c0.284-0.184,0.566-0.369,0.89-0.477c0.103-0.034,0.221-0.093,0.3,0.018c0.083,0.115,0.011,0.228-0.066,0.325
		c-0.211,0.265-0.507,0.431-0.79,0.65c0.169,0.085,0.318,0.146,0.453,0.23c0.138,0.087,0.304,0.194,0.218,0.387
		c-0.08,0.176-0.263,0.125-0.406,0.081c-0.248-0.077-0.49-0.173-0.734-0.262c0,0.298,0.01,0.597-0.004,0.894
		c-0.007,0.145-0.004,0.349-0.202,0.36c-0.184,0.013-0.235-0.178-0.273-0.321c-0.068-0.262-0.112-0.531-0.166-0.797
		c-0.667,0.159-0.936,0.456-1.151,1.297c0.222-0.059,0.434-0.125,0.651-0.166c0.146-0.027,0.327-0.058,0.387,0.136
		c0.051,0.168-0.09,0.254-0.21,0.331c-0.259,0.168-0.55,0.257-0.842,0.346c-0.432,0.13-0.431,0.132-0.577,0.611
		c0.266-0.071,0.521-0.145,0.778-0.207c0.141-0.033,0.312-0.045,0.375,0.106c0.064,0.155-0.104,0.224-0.206,0.291
		c-0.363,0.24-0.777,0.378-1.235,0.558c0.55,0.371,1.105,0.596,1.682,0.774c0.046,0.014,0.106-0.008,0.156-0.023
		c0.041-0.013,0.074-0.049,0.113-0.064c0.762-0.311,1.21-0.852,1.425-1.665c0.19-0.722,0.508-1.413,0.881-2.067
		c0.096-0.167,0.15-0.485,0.433-0.376c0.266,0.104,0.198,0.384,0.137,0.605c-0.198,0.709-0.408,1.415-0.637,2.205
		c0.356-0.203,0.645-0.364,0.93-0.528c0.121-0.07,0.118-0.198,0.142-0.315c0.152-0.733,0.26-1.479,0.508-2.191
		c0.083-0.237,0.178-0.467,0.324-0.675c0.091-0.129,0.189-0.253,0.372-0.189c0.166,0.059,0.224,0.201,0.232,0.362
		c0.013,0.254-0.052,0.497-0.11,0.741c-0.119,0.506-0.26,1.008-0.301,1.563c0.395-0.149,0.678-0.314,0.705-0.787
		c0.024-0.43,0.144-0.856,0.236-1.282c0.037-0.168,0.107-0.33,0.175-0.489c0.075-0.173,0.194-0.299,0.405-0.248
		c0.206,0.05,0.257,0.214,0.27,0.399c0.022,0.329-0.048,0.65-0.093,0.975c-0.021,0.149-0.045,0.298-0.072,0.481
		c0.27-0.092,0.475-0.188,0.594-0.438c0.244-0.508,0.65-0.742,1.221-0.673c0.206,0.023,0.415,0.02,0.62,0.045
		c0.225,0.028,0.338,0.14,0.241,0.383c-0.131,0.324-0.285,0.639-0.484,0.924c-0.212,0.304-0.549,0.396-0.894,0.38
		c-0.294-0.015-0.527,0.075-0.786,0.289c0.284,0.109,0.54,0.205,0.792,0.308c0.232,0.094,0.47,0.18,0.662,0.348
		c0.113,0.1,0.169,0.222,0.117,0.38c-0.055,0.165-0.182,0.203-0.333,0.207c-0.254,0.009-0.498-0.046-0.736-0.128
		c-0.35-0.121-0.72-0.206-1.041-0.379c-0.437-0.237-0.757-0.091-1.086,0.206c0.521,0.233,1.064,0.382,1.603,0.542
		c0.209,0.062,0.415,0.129,0.6,0.249c0.153,0.1,0.236,0.233,0.186,0.415c-0.047,0.168-0.202,0.183-0.344,0.191
		c-0.486,0.029-0.954-0.08-1.413-0.223c-0.487-0.15-0.974-0.311-1.452-0.49c-0.207-0.077-0.37-0.056-0.546,0.061
		c-0.217,0.142-0.445,0.267-0.719,0.428c0.656,0.204,1.274,0.345,1.893,0.481c0.213,0.048,0.425,0.101,0.612,0.218
		c0.118,0.074,0.188,0.188,0.156,0.333c-0.031,0.14-0.167,0.133-0.268,0.138c-0.248,0.014-0.497,0.005-0.758,0.005
		c0.137,0.222,0.246,0.446,0.285,0.695c0.033,0.21,0.115,0.149,0.232,0.065c0.185-0.134,0.373-0.268,0.592-0.341
		c0.09-0.029,0.192-0.077,0.276,0.01c0.08,0.085,0.045,0.19,0.012,0.278c-0.116,0.3-0.329,0.537-0.526,0.784
		c-0.039,0.049-0.077,0.099-0.116,0.149c0.628,0.395,1.271,0.304,1.734-0.242c0.19-0.225,0.357-0.469,0.545-0.693
		c0.089-0.107,0.2-0.2,0.309-0.288c0.089-0.073,0.209-0.107,0.302-0.031c0.104,0.084,0.041,0.199-0.005,0.298
		c-0.128,0.279-0.314,0.522-0.5,0.764c-0.078,0.102-0.154,0.202-0.26,0.341c0.706-0.066,1.357-0.102,2.009-0.06
		c0.183,0.012,0.464-0.035,0.484,0.206c0.017,0.207-0.256,0.224-0.426,0.274c-0.564,0.167-1.152,0.181-1.766,0.266
		c0.245,0.237,0.528,0.389,0.717,0.639c0.095,0.126,0.244,0.262,0.119,0.43c-0.135,0.184-0.324,0.1-0.469,0.006
		c-0.34-0.216-0.657-0.468-1.001-0.677c-0.855-0.521-1.149-0.459-1.792,0.339c0.283,0.163,0.572,0.313,0.843,0.491
		c0.152,0.101,0.414,0.215,0.294,0.433c-0.107,0.193-0.357,0.084-0.538,0.02c-0.235-0.084-0.463-0.188-0.718-0.294
		c-0.002,0.219,0.073,0.427,0.021,0.635c-0.029,0.117-0.06,0.244-0.21,0.258c-0.15,0.013-0.199-0.105-0.248-0.218
		c-0.119-0.274-0.096-0.577-0.175-0.886c-0.266,0.165-0.514,0.332-0.776,0.474c-0.116,0.063-0.277,0.158-0.389,0.017
		c-0.121-0.154,0.006-0.294,0.111-0.399c0.161-0.161,0.338-0.307,0.515-0.451c0.088-0.072,0.149-0.119,0.019-0.216
		c-0.339-0.248-0.676-0.476-1.133-0.332c-0.142,0.045-0.301,0.038-0.48,0.059c0.095,0.202,0.302,0.282,0.417,0.44
		c0.099,0.138,0.273,0.279,0.14,0.456c-0.139,0.187-0.318,0.05-0.467-0.028c-0.234-0.121-0.44-0.291-0.613-0.484
		c-0.233-0.264-0.488-0.384-0.844-0.234c0.142,0.146,0.291,0.292,0.432,0.444c0.074,0.079,0.138,0.168,0.201,0.257
		c0.053,0.074,0.083,0.163,0.024,0.243c-0.074,0.103-0.173,0.06-0.265,0.021c-0.44-0.181-0.779-0.513-1.192-0.812
		c-0.068,0.635,0.02,1.227,0.158,1.815c0.011,0.047,0.058,0.09,0.097,0.125c0.031,0.028,0.081,0.036,0.112,0.064
		c0.771,0.706,1.65,0.52,2.542,0.333c0.619-0.13,1.25-0.194,1.883-0.203c0.18-0.002,0.456-0.078,0.509,0.161
		c0.064,0.287-0.217,0.382-0.431,0.441c-0.545,0.151-1.098,0.272-1.647,0.409c-0.178,0.044-0.355,0.094-0.562,0.148
		c0.282,0.228,0.592,0.363,0.877,0.537c0.124,0.076,0.23,0.004,0.342-0.032c0.775-0.251,1.531-0.567,2.345-0.685
		c0.193-0.026,0.391-0.033,0.586-0.027c0.128,0.005,0.269,0.032,0.31,0.189c0.04,0.154-0.018,0.278-0.138,0.375
		c-0.138,0.111-0.299,0.174-0.466,0.229c-0.588,0.193-1.195,0.332-1.762,0.592c0.322,0.353,0.528,0.401,0.956,0.248
		c0.47-0.17,0.93-0.37,1.419-0.482c0.137-0.031,0.279-0.046,0.419-0.053c0.156-0.008,0.31,0.008,0.37,0.193
		c0.064,0.2-0.022,0.342-0.182,0.445c-0.321,0.209-0.684,0.332-1.039,0.47c-0.107,0.041-0.233,0.046-0.321,0.164
		c0.22,0.153,0.425,0.274,0.713,0.258c0.511-0.028,0.908,0.178,1.125,0.672c0.091,0.209,0.199,0.411,0.294,0.618
		c0.104,0.228,0.018,0.365-0.221,0.39c-0.314,0.031-0.631,0.065-0.946,0.055c-0.421-0.016-0.704-0.275-0.883-0.636
		c-0.127-0.254-0.32-0.397-0.585-0.464c-0.01-0.014-0.021-0.028-0.03-0.041c-0.027,0.026-0.021,0.05,0.007,0.071
		c0.035,0.444,0.169,0.878,0.156,1.328c-0.006,0.215-0.022,0.427-0.286,0.482c-0.258,0.056-0.348-0.143-0.426-0.32
		c-0.23-0.525-0.313-1.093-0.364-1.651c-0.043-0.477-0.289-0.689-0.715-0.826c0.04,0.553,0.188,1.075,0.308,1.601
		c0.051,0.224,0.115,0.443,0.103,0.675c-0.01,0.177-0.072,0.325-0.25,0.384c-0.187,0.063-0.282-0.078-0.366-0.205
		c-0.297-0.455-0.43-0.973-0.549-1.493c-0.1-0.435-0.197-0.872-0.259-1.313c-0.033-0.234-0.136-0.367-0.338-0.469
		c-0.232-0.115-0.451-0.257-0.749-0.429c0.19,0.648,0.361,1.227,0.531,1.806c0.064,0.219,0.146,0.436,0.148,0.667
		c0.002,0.162-0.034,0.319-0.203,0.373c-0.161,0.051-0.228-0.104-0.294-0.206c-0.119-0.182-0.216-0.377-0.356-0.626
		c-0.136,0.318-0.366,0.525-0.593,0.748c0.268,0.13,0.526,0.224,0.739,0.396c0.088,0.071,0.22,0.141,0.176,0.284
		c-0.042,0.139-0.178,0.143-0.297,0.149c-0.285,0.018-0.567,0.001-0.844-0.066c-0.182-0.044-0.25,0.007-0.232,0.21
		c0.051,0.596,0.511,1.068,1.144,1.154c0.313,0.042,0.625,0.087,0.938,0.136c0.085,0.015,0.169,0.045,0.248,0.08
		c0.11,0.052,0.233,0.116,0.219,0.255c-0.016,0.154-0.17,0.157-0.282,0.165c-0.361,0.027-0.717-0.037-1.073-0.087
		c-0.062-0.008-0.125-0.009-0.226-0.017c0.253,0.392,0.494,0.751,0.722,1.118c0.167,0.268,0.326,0.541,0.42,0.846
		c0.029,0.095,0.073,0.197-0.026,0.27c-0.1,0.071-0.186-0.007-0.264-0.062c-0.289-0.205-0.499-0.485-0.712-0.761
		c-0.201-0.258-0.388-0.524-0.612-0.83c-0.036,0.222-0.064,0.405-0.096,0.588c-0.034,0.194-0.081,0.384-0.188,0.553
		c-0.054,0.086-0.123,0.161-0.236,0.139c-0.106-0.021-0.168-0.098-0.196-0.199c-0.06-0.216-0.04-0.434-0.01-0.649
		c0.051-0.357,0.071-0.716,0.06-1.076c-0.018-0.621-0.111-0.749-0.691-0.951c-0.499-0.174-0.494-0.174-0.492,0.339
		c0.001,0.251-0.009,0.502-0.037,0.75c-0.011,0.096-0.026,0.236-0.169,0.247c-0.15,0.012-0.205-0.113-0.245-0.224
		c-0.111-0.311-0.135-0.639-0.161-0.999c-0.185,0.109-0.353,0.215-0.527,0.307c-0.121,0.064-0.257,0.098-0.353-0.037
		c-0.087-0.123-0.002-0.229,0.07-0.324c0.182-0.236,0.436-0.392,0.693-0.582c-0.288-0.156-0.564-0.293-0.825-0.452
		c-0.113-0.069-0.27-0.167-0.202-0.333c0.067-0.165,0.249-0.125,0.378-0.096c0.221,0.051,0.441,0.123,0.649,0.214
		c0.162,0.07,0.187,0.022,0.23-0.131c0.182-0.643-0.238-1.03-0.592-1.485c-0.08,0.264-0.142,0.5-0.223,0.729
		c-0.044,0.127-0.127,0.242-0.29,0.205c-0.144-0.032-0.164-0.162-0.175-0.282c-0.029-0.341,0.021-0.68,0.13-0.998
		c0.109-0.316,0.029-0.545-0.255-0.755c-0.07,0.255-0.128,0.501-0.206,0.74c-0.042,0.132-0.103,0.312-0.264,0.292
		c-0.191-0.023-0.183-0.231-0.176-0.37c0.02-0.412,0.068-0.821,0.108-1.271c-0.417,0.158-0.728,0.444-1.075,0.672
		c-0.365,0.238-0.467,0.542-0.477,0.98c-0.013,0.593,0.108,1.073,0.556,1.479c0.214,0.194,0.367,0.456,0.547,0.688
		c0.005,0.103,0.047,0.175,0.157,0.19c0.067,0.085,0.134,0.17,0.201,0.255c-0.005,0.234-0.053,0.445-0.262,0.595
		c-0.039,0.028-0.034,0.118-0.049,0.18c-0.241-0.249-0.482-0.498-0.723-0.747c0.067-0.233,0.054-0.387-0.25-0.254
		c-0.057-0.03-0.104-0.084-0.177-0.065c-0.002,0.183-0.003,0.365-0.006,0.547c-0.082,0.471,0.19,0.751,0.532,0.999
		c0.094,0.068,0.172,0.159,0.258,0.24c0.053,0.346,0.581,0.84,0.945,0.885c0.016,0.001,0.023,0.009,0.021,0.024
		C16.786,26.822,16.747,26.949,16.958,26.86z M15.385,23.79L15.385,23.79L15.385,23.79z M18.361,13.935
		c-0.893,0.518-1.787,1.035-2.718,1.575c0.914,0.526,1.79,1.029,2.72,1.564c-0.099-0.54-0.107-1.006-0.111-1.475
		c-0.004-0.546,0.118-1.08,0.147-1.624c0.011-0.012,0.021-0.022,0.033-0.034C18.41,13.938,18.385,13.937,18.361,13.935z
		 M18.428,21.337c0.354,0.39,0.432,0.932,0.989,1.079c0.233,0.063,0.338,0.074,0.29-0.22c-0.04-0.244-0.078-0.496-0.011-0.745
		c0.034-0.129,0.058-0.267,0.222-0.282c0.164-0.015,0.224,0.115,0.274,0.236c0.045,0.109,0.083,0.225,0.105,0.34
		c0.047,0.231,0.081,0.467,0.124,0.723c0.325-0.208,0.574-0.5,0.973-0.495c-0.114-0.285-0.22-0.546-0.324-0.808
		c-0.104-0.264-0.249-0.519-0.301-0.791c-0.145-0.759-0.615-1.207-1.298-1.483c-0.089-0.035-0.167-0.11-0.274-0.078
		c-0.583,0.178-1.155,0.383-1.789,0.659c0.452,0.064,0.826,0.018,1.182,0.129c0.14,0.043,0.291,0.096,0.293,0.262
		c0.003,0.178-0.169,0.211-0.299,0.25c-0.266,0.08-0.546,0.079-0.855,0.091c0.163,0.294,0.328,0.459,0.658,0.429
		c0.29-0.025,0.589-0.001,0.868,0.11c0.115,0.046,0.223,0.113,0.225,0.252c0.001,0.141-0.111,0.199-0.226,0.245
		C19.015,21.339,18.759,21.298,18.428,21.337z M20.238,15.149c0.324,0.007,0.556-0.045,0.688-0.36
		c0.086-0.205,0.24-0.39,0.393-0.558c0.116-0.128,0.26-0.314,0.466-0.192c0.207,0.123,0.111,0.331,0.052,0.501
		c-0.063,0.18-0.154,0.35-0.248,0.557c0.594-0.059,1.212,0.099,1.592-0.532c-0.261-0.158-0.575-0.236-0.82-0.435
		c-0.117-0.094-0.28-0.188-0.218-0.363c0.07-0.201,0.263-0.152,0.423-0.136c0.345,0.034,0.645,0.218,0.984,0.33
		c-0.042-0.382-0.133-0.738,0.032-1.09c-0.63-0.097-1.255-0.144-1.851-0.298c-0.585-0.153-1.064-0.055-1.556,0.276
		c-0.281,0.188-0.471,0.365-0.508,0.719c-0.051,0.472-0.156,0.939-0.237,1.408c0.292-0.3,0.45-0.667,0.758-0.92
		c0.096-0.079,0.206-0.146,0.327-0.072c0.122,0.073,0.106,0.195,0.077,0.32C20.521,14.593,20.381,14.851,20.238,15.149z
		 M9.475,8.567C9.492,8.815,9.531,9.055,9.518,9.29C9.507,9.501,9.58,9.817,9.271,9.848C8.998,9.874,8.969,9.574,8.917,9.375
		c-0.068-0.261-0.1-0.53-0.15-0.82C8.457,8.781,8.188,9.039,7.81,9.08c0.156,0.393,0.308,0.764,0.452,1.139
		c0.144,0.375,0.282,0.753,0.418,1.13c0.048,0.136,0.101,0.25,0.236,0.333c0.963,0.597,0.961,0.6,2.022,0.213
		c0.194-0.07,0.388-0.142,0.579-0.218c0.058-0.023,0.141-0.031,0.153-0.131c-0.356-0.033-0.707-0.021-1.046-0.112
		c-0.151-0.04-0.322-0.088-0.317-0.271c0.005-0.188,0.196-0.218,0.337-0.254c0.258-0.064,0.525-0.084,0.811-0.08
		c-0.143-0.304-0.317-0.45-0.644-0.424c-0.255,0.02-0.521-0.004-0.774-0.087c-0.148-0.049-0.316-0.097-0.323-0.276
		c-0.008-0.212,0.188-0.253,0.342-0.284c0.214-0.043,0.436-0.049,0.692-0.075C10.384,9.203,10.222,8.577,9.475,8.567z M5.634,17.061
		c0.053,0.376,0.148,0.736-0.026,1.096c0.735,0.115,1.458,0.208,2.171,0.35c0.343,0.069,0.61,0.012,0.923-0.143
		c0.543-0.268,0.881-0.616,0.889-1.253c0.004-0.314,0.156-0.623,0.074-1.015c-0.217,0.318-0.371,0.606-0.605,0.831
		c-0.104,0.101-0.229,0.2-0.376,0.122c-0.159-0.086-0.114-0.246-0.065-0.38c0.096-0.261,0.205-0.517,0.314-0.789
		c-0.3-0.01-0.527,0.053-0.666,0.354c-0.122,0.265-0.297,0.509-0.535,0.691c-0.093,0.072-0.193,0.159-0.323,0.073
		c-0.127-0.085-0.131-0.204-0.105-0.345c0.047-0.249,0.205-0.451,0.289-0.688c-0.734-0.08-1.181,0.035-1.488,0.361
		c-0.106,0.113-0.108,0.16,0.047,0.22c0.253,0.097,0.506,0.205,0.717,0.382c0.105,0.089,0.248,0.188,0.177,0.349
		c-0.076,0.171-0.249,0.15-0.401,0.128C6.296,17.355,5.984,17.193,5.634,17.061z M14.072,11.471c-0.852,0.724-1.791,1.157-2.81,1.54
		c0.903,0.515,1.76,1.002,2.618,1.488c0.083,0.048,0.191,0.124,0.191-0.066C14.072,13.47,14.072,12.507,14.072,11.471z
		 M15.151,16.439c0,1.049,0,2.057,0,3.103c0.42-0.369,0.851-0.642,1.304-0.882c0.458-0.242,0.941-0.431,1.47-0.646
		C16.975,17.476,16.074,16.964,15.151,16.439z M10.763,17.143c0.942-0.551,1.837-1.073,2.782-1.624
		c-0.923-0.531-1.799-1.036-2.728-1.571C11.039,15.042,10.926,16.064,10.763,17.143z M11.353,17.994
		c0.542,0.196,0.999,0.421,1.433,0.692c0.438,0.275,0.842,0.598,1.273,0.93c0-1.074,0-2.105,0-3.182
		C13.148,16.959,12.277,17.461,11.353,17.994z M15.141,11.409c0,1.068,0,2.104,0,3.184c0.916-0.531,1.787-1.035,2.695-1.56
		C16.802,12.671,15.967,12.089,15.141,11.409z M15.848,26.255c-0.044-0.005-0.081,0-0.07,0.04c0.006,0.021,0.045,0.041,0.072,0.051
		c0.029,0.009,0.07,0.005,0.059-0.039C15.902,26.283,15.864,26.269,15.848,26.255z M16.111,26.552
		c-0.009-0.016-0.015-0.04-0.027-0.044c-0.014-0.003-0.033,0.012-0.05,0.019c0.009,0.015,0.015,0.039,0.026,0.043
		C16.074,26.572,16.093,26.559,16.111,26.552z M15.59,7.316c0.003-0.009,0.012-0.019,0.01-0.024
		c-0.002-0.005-0.015-0.008-0.023-0.012c-0.003,0.008-0.013,0.018-0.01,0.024C15.568,7.31,15.581,7.313,15.59,7.316z"/>
	<path fill-rule="evenodd" clip-rule="evenodd" fill="#F3F9F8" d="M16.276,7.067c-0.043-0.149,0.03-0.328-0.123-0.452
		c-0.103-0.082-0.243-0.116-0.222,0.047c0.046,0.373-0.168,0.28-0.369,0.258c-0.083-0.01-0.171,0.035-0.249-0.028
		c0.453-0.48,0.907-0.96,1.36-1.44c0.029-0.031,0.06-0.064,0.096-0.088c0.162-0.105,0.339-0.263,0.524-0.096
		c0.17,0.151,0.004,0.317-0.068,0.463c-0.066,0.136-0.155,0.26-0.236,0.388c-0.039,0.061-0.071,0.115,0.032,0.143
		c0.017,0.206,0.231,0.318,0.25,0.523c-0.211-0.053-0.358-0.196-0.479-0.373C16.609,6.645,16.443,6.855,16.276,7.067z"/>
	<path fill-rule="evenodd" clip-rule="evenodd" fill="#F2F8F8" d="M12.776,24.147c0.001,0.414,0.001,0.415,0.414,0.396
		c0.087-0.004,0.172-0.021,0.241,0.051c-0.303,0.326-0.603,0.656-0.91,0.979c-0.073,0.077-0.168,0.136-0.26,0.192
		c-0.119,0.074-0.254,0.096-0.365,0c-0.128-0.111-0.037-0.235,0.006-0.356c0.084-0.234,0.301-0.397,0.346-0.651
		c0.028-0.054,0.057-0.106,0.085-0.16C12.569,24.534,12.609,24.278,12.776,24.147z"/>
	<path fill-rule="evenodd" clip-rule="evenodd" fill="#F4F9F8" d="M16.221,25.07c0.015-0.062,0.01-0.151,0.049-0.18
		c0.208-0.149,0.256-0.36,0.262-0.595c0.292,0.353,0.56,0.722,0.763,1.134c0.053,0.104,0.123,0.225,0.009,0.328
		c-0.11,0.098-0.242,0.081-0.365,0.012C16.638,25.599,16.425,25.34,16.221,25.07z"/>
	<path fill-rule="evenodd" clip-rule="evenodd" fill="#F4F9F8" d="M16.799,26.675c-0.365-0.045-0.893-0.539-0.945-0.885
		C16.194,26.058,16.518,26.344,16.799,26.675z"/>
	<path fill-rule="evenodd" clip-rule="evenodd" fill="#F2F8F8" d="M10.348,24.645c0.019-0.092,0.038-0.184,0.066-0.318
		c0.193,0.258,0.331,0.48,0.259,0.771c-0.049-0.113-0.1-0.226-0.145-0.341C10.495,24.671,10.455,24.607,10.348,24.645z"/>
	<path fill-rule="evenodd" clip-rule="evenodd" fill="#F4F9F8" d="M15.575,26.688c0.065-0.156,0.133-0.046,0.191,0.002
		c0.156,0.13,0.325,0.254,0.34,0.484C15.91,27.032,15.734,26.87,15.575,26.688z"/>
	<path fill-rule="evenodd" clip-rule="evenodd" fill="#F2F8F8" d="M14.067,25.161c0.027,0.259-0.204,0.457-0.458,0.392
		C13.741,25.396,13.897,25.271,14.067,25.161z"/>
	<path fill-rule="evenodd" clip-rule="evenodd" fill="#F3F9F8" d="M18.459,5.792c-0.091,0.013-0.181,0.018-0.193-0.107
		c-0.025-0.237-0.175-0.302-0.387-0.285c0.064-0.199,0.185-0.184,0.308-0.066C18.319,5.459,18.416,5.61,18.459,5.792z"/>
	<path fill-rule="evenodd" clip-rule="evenodd" fill="#F3F9F8" d="M17.833,5.664c0.093,0.105,0.187,0.21,0.294,0.33
		c-0.086,0.037-0.229,0.052-0.257,0.195C17.804,6.018,17.807,5.842,17.833,5.664z"/>
	<path fill-rule="evenodd" clip-rule="evenodd" fill="#F2F8F8" d="M10.863,25.492c0.111-0.022,0.223-0.044,0.333-0.065v-0.001
		c0.017,0.057,0.044,0.103,0.11,0.11l0.019,0.02c0.008,0.099-0.018,0.178-0.128,0.203c-0.031-0.087-0.068-0.136-0.131-0.021
		C10.959,25.689,10.9,25.599,10.863,25.492z"/>
	<path fill-rule="evenodd" clip-rule="evenodd" fill="#F4F9F8" d="M16.479,27.528c0.24-0.006,0.39,0.117,0.471,0.335
		C16.75,27.812,16.608,27.678,16.479,27.528z"/>
	<path fill-rule="evenodd" clip-rule="evenodd" fill="#F4F9F8" d="M15.247,24.069c0.304-0.133,0.317,0.021,0.25,0.254
		C15.388,24.264,15.315,24.168,15.247,24.069z"/>
	<path fill-rule="evenodd" clip-rule="evenodd" fill="#F4F9F8" d="M17.152,27.904c0.066-0.149,0.131-0.3,0.197-0.449
		C17.478,27.689,17.46,27.86,17.152,27.904z"/>
	<path fill-rule="evenodd" clip-rule="evenodd" fill="#F2F8F8" d="M11.196,25.427c0.001-0.119,0.02-0.229,0.155-0.269
		c0.045,0.136,0.015,0.267-0.026,0.397c0,0-0.019-0.02-0.019-0.02C11.298,25.472,11.254,25.442,11.196,25.427L11.196,25.427z"/>
	<path fill-rule="evenodd" clip-rule="evenodd" fill="#F4F9F8" d="M17.229,27.234c-0.232,0.006-0.244-0.011-0.21-0.298
		C17.115,27.018,17.187,27.116,17.229,27.234z"/>
	<path fill-rule="evenodd" clip-rule="evenodd" fill="#F3F9F8" d="M17.879,6.314c0.073-0.019,0.168-0.05,0.182,0.054
		c0.01,0.082-0.088,0.07-0.148,0.074c-0.09,0.007-0.17-0.017-0.235-0.084C17.747,6.354,17.832,6.421,17.879,6.314z"/>
	<path fill-rule="evenodd" clip-rule="evenodd" fill="#F2F8F8" d="M11.32,24.771c-0.079-0.027-0.237,0.056-0.224-0.083
		c0.011-0.125,0.146-0.079,0.238-0.044C11.33,24.687,11.325,24.729,11.32,24.771z"/>
	<path fill-rule="evenodd" clip-rule="evenodd" fill="#F3F9F8" d="M15.248,6.955c-0.007,0.078,0.016,0.197-0.092,0.197
		c-0.107,0.001-0.089-0.116-0.094-0.197C15.125,7.089,15.186,6.974,15.248,6.955z"/>
	<path fill-rule="evenodd" clip-rule="evenodd" fill="#F2F8F8" d="M13.829,24.188c-0.122-0.248,0.083-0.175,0.192-0.194
		C13.979,24.08,13.91,24.141,13.829,24.188z"/>
	<path fill-rule="evenodd" clip-rule="evenodd" fill="#F4F9F8" d="M15.064,24.551c0.002-0.182,0.004-0.364,0.006-0.547
		C15.068,24.187,15.066,24.369,15.064,24.551z"/>
	<path fill-rule="evenodd" clip-rule="evenodd" fill="#F4F9F8" d="M16.958,26.86c-0.21,0.089-0.172-0.038-0.138-0.161
		C16.866,26.753,16.912,26.807,16.958,26.86z"/>
	<path fill-rule="evenodd" clip-rule="evenodd" fill="#F4F9F8" d="M16.156,27.223c0.038-0.038,0.084-0.084,0.135-0.044
		c0.064,0.05,0.014,0.115-0.003,0.173C16.244,27.309,16.2,27.265,16.156,27.223z"/>
	<path fill-rule="evenodd" clip-rule="evenodd" fill="#F3F9F8" d="M18.985,6.279c-0.024,0.164-0.128,0.178-0.26,0.137
		C18.812,6.37,18.898,6.325,18.985,6.279z"/>
	<path fill-rule="evenodd" clip-rule="evenodd" fill="#F4F9F8" d="M15.24,26.414c0.129-0.009,0.249-0.008,0.214,0.179
		C15.382,26.533,15.311,26.474,15.24,26.414z"/>
	<path fill-rule="evenodd" clip-rule="evenodd" fill="#F3F9F8" d="M15.061,6.849c0-0.139,0-0.278,0.001-0.417
		C15.088,6.571,15.093,6.71,15.061,6.849z"/>
	<path fill-rule="evenodd" clip-rule="evenodd" fill="#F2F8F8" d="M14.018,23.997c0.005-0.049-0.004-0.129,0.055-0.123
		c0.084,0.008,0.05,0.096,0.056,0.152C14.092,24.018,14.055,24.007,14.018,23.997z"/>
	<path fill-rule="evenodd" clip-rule="evenodd" fill="#F4F9F8" d="M16.33,24.041c-0.11-0.016-0.152-0.088-0.157-0.19
		C16.25,23.894,16.292,23.965,16.33,24.041z"/>
	<path fill-rule="evenodd" clip-rule="evenodd" fill="#F4F9F8" d="M15.062,26.552c0.027-0.069-0.086-0.227,0.117-0.186
		C15.054,26.375,15.094,26.485,15.062,26.552z"/>
	<path fill-rule="evenodd" clip-rule="evenodd" fill="#F7FBFA" d="M11.066,25.737c0.063-0.114,0.1-0.065,0.131,0.021
		C11.153,25.752,11.109,25.745,11.066,25.737z"/>
	<path fill-rule="evenodd" clip-rule="evenodd" fill="#F3F9F8" d="M18.646,6.25c-0.075-0.021-0.077-0.07-0.054-0.131
		C18.61,6.163,18.628,6.207,18.646,6.25z"/>
	<path fill-rule="evenodd" clip-rule="evenodd" fill="#F3F9F8" d="M17.282,6.262c-0.046,0.054-0.091,0.096-0.13-0.005
		C17.195,6.259,17.239,6.261,17.282,6.262z"/>
	<path fill-rule="evenodd" clip-rule="evenodd" fill="#F3F9F8" d="M17.692,6.364c-0.049-0.014-0.098-0.028-0.146-0.042
		C17.601,6.314,17.654,6.313,17.692,6.364z"/>
	<path fill-rule="evenodd" clip-rule="evenodd" fill="#F2F8F8" d="M14.134,24.085c-0.002,0.049-0.005,0.097-0.007,0.146
		C14.098,24.18,14.103,24.132,14.134,24.085z"/>
	<path fill-rule="evenodd" clip-rule="evenodd" fill="#F2F8F8" d="M11.696,24.714c0.051,0.016,0.102,0.03,0.153,0.046
		C11.791,24.771,11.737,24.762,11.696,24.714z"/>
	<path fill-rule="evenodd" clip-rule="evenodd" fill="#F2F8F8" d="M14.137,24.864c-0.005,0.051-0.01,0.103-0.014,0.153
		C14.1,24.964,14.103,24.913,14.137,24.864z"/>
	<path fill-rule="evenodd" clip-rule="evenodd" fill="#F3F9F8" d="M18.702,6.384c-0.014-0.024-0.028-0.049-0.043-0.074
		C18.673,6.335,18.688,6.359,18.702,6.384z"/>
	<path fill-rule="evenodd" clip-rule="evenodd" fill="#F2F8F8" d="M10.023,24.914c0.024-0.024,0.049-0.049,0.074-0.073
		C10.072,24.865,10.047,24.89,10.023,24.914z"/>
	<path fill-rule="evenodd" clip-rule="evenodd" fill="#F2F8F8" d="M9.949,25.012C9.955,25,9.962,24.989,9.972,24.979
		C9.976,24.998,9.969,25.01,9.949,25.012z"/>
	<polygon fill-rule="evenodd" clip-rule="evenodd" fill="#F2F8F8" points="13.683,24.339 13.673,24.326 13.687,24.334 	"/>
	<polygon fill-rule="evenodd" clip-rule="evenodd" fill="#F2F8F8" points="13.64,24.381 13.632,24.367 13.646,24.378 	"/>
	<path fill-rule="evenodd" clip-rule="evenodd" fill="#F3F9F8" d="M17.871,5.462c0,0.017-0.002,0.031-0.006,0.047
		C17.85,5.491,17.853,5.476,17.871,5.462z"/>
	<path fill-rule="evenodd" clip-rule="evenodd" fill="#F4F9F8" d="M17.327,27.387c-0.014-0.021-0.029-0.043-0.043-0.064
		C17.298,27.344,17.313,27.365,17.327,27.387z"/>
	<polygon fill-rule="evenodd" clip-rule="evenodd" fill="#F4F9F8" points="16.406,27.462 16.424,27.481 16.408,27.479 	"/>
	<path fill-rule="evenodd" clip-rule="evenodd" fill="#F2F8F8" d="M10.278,24.694c0.024-0.017,0.048-0.035,0.072-0.052
		C10.327,24.659,10.302,24.678,10.278,24.694z"/>
	<path fill-rule="evenodd" clip-rule="evenodd" fill="#F2F8F8" d="M11.476,24.649c0.037,0.016,0.075,0.03,0.112,0.047
		C11.55,24.68,11.513,24.665,11.476,24.649z"/>
	<path fill-rule="evenodd" clip-rule="evenodd" fill="#F2F8F8" d="M12.809,24.114c0.048-0.096,0.098-0.19,0.203-0.237
		c0.025-0.036,0.051-0.071,0.077-0.105c0.06-0.139,0.157-0.246,0.271-0.342c0.131,0.174-0.104,0.407,0.09,0.579
		c0.015,0.014-0.08,0.05-0.129,0.065C13.154,24.129,12.98,24.115,12.809,24.114z"/>
	<path fill-rule="evenodd" clip-rule="evenodd" fill="#F3F9F8" d="M15.605,7.875c-0.14,0.2-0.29,0.392-0.474,0.554
		c-0.052-0.115-0.011-0.231-0.009-0.346l0-0.001c0.126-0.002,0.215-0.057,0.269-0.174C15.443,7.8,15.517,7.771,15.605,7.875z"/>
	<path fill-rule="evenodd" clip-rule="evenodd" fill="#F3F9F8" d="M17.604,6.919c-0.123-0.015-0.236-0.055-0.333-0.135
		C17.412,6.756,17.587,6.642,17.604,6.919z"/>
	<path fill-rule="evenodd" clip-rule="evenodd" fill="#F3F9F8" d="M15.85,7.575c-0.05,0.096-0.11,0.185-0.203,0.246
		C15.679,7.711,15.59,7.5,15.85,7.575z"/>
	<path fill-rule="evenodd" clip-rule="evenodd" fill="#F2F8F8" d="M12.14,24.365c0.105,0.031,0.175,0.093,0.182,0.209
		C12.214,24.546,12.022,24.591,12.14,24.365z"/>
	<path fill-rule="evenodd" clip-rule="evenodd" fill="#F3F9F8" d="M16.273,7.072c-0.069,0.078-0.139,0.157-0.208,0.235
		C15.966,7.082,16.141,7.095,16.273,7.072z"/>
	<path fill-rule="evenodd" clip-rule="evenodd" fill="#F4F9F8" d="M15.848,26.255c0.017,0.014,0.055,0.028,0.061,0.052
		c0.011,0.044-0.03,0.048-0.059,0.039c-0.027-0.01-0.066-0.029-0.072-0.051C15.767,26.255,15.804,26.25,15.848,26.255z"/>
	<path fill-rule="evenodd" clip-rule="evenodd" fill="#F4F9F8" d="M16.111,26.552c-0.018,0.007-0.037,0.021-0.05,0.018
		c-0.012-0.004-0.018-0.028-0.026-0.043c0.017-0.007,0.036-0.021,0.05-0.019C16.096,26.512,16.102,26.536,16.111,26.552z"/>
	<path fill-rule="evenodd" clip-rule="evenodd" fill="#F3F9F8" d="M15.59,7.316c-0.009-0.004-0.021-0.007-0.023-0.012
		c-0.003-0.007,0.006-0.017,0.01-0.024c0.008,0.004,0.021,0.007,0.023,0.012C15.602,7.298,15.593,7.308,15.59,7.316z"/>
	<path fill-rule="evenodd" clip-rule="evenodd" fill="#F2F8F8" d="M11.588,24.111c0.063,0,0.124,0.007,0.167,0.062
		C11.7,24.152,11.644,24.132,11.588,24.111z"/>
	<path fill-rule="evenodd" clip-rule="evenodd" fill="#F3F9F8" d="M15.123,8.083L15.123,8.083L15.123,8.083z"/>
	<path fill-rule="evenodd" clip-rule="evenodd" fill="#07AA9E" d="M18.361,13.935c0.024,0.002,0.048,0.004,0.071,0.007
		c-0.011,0.012-0.022,0.022-0.033,0.034C18.386,13.963,18.374,13.949,18.361,13.935z"/>
	<path fill-rule="evenodd" clip-rule="evenodd" fill="#02A99C" d="M2.4,16.368c0.023,0,0.046,0,0.069,0
		c-0.011,0.012-0.021,0.023-0.032,0.036C2.425,16.392,2.412,16.38,2.4,16.368z"/>
	<path fill-rule="evenodd" clip-rule="evenodd" fill="#08AA9E" d="M12.652,19.937c-0.012,0.024-0.024,0.049-0.037,0.073
		c-0.006-0.008-0.013-0.015-0.02-0.021c0.019-0.015,0.039-0.029,0.058-0.044C12.654,19.942,12.652,19.937,12.652,19.937z"/>
	<path fill-rule="evenodd" clip-rule="evenodd" fill="#02A99C" d="M7.434,20.223c0.025-0.006,0.049-0.011,0.074-0.017
		c-0.007,0.023-0.014,0.048-0.021,0.071C7.47,20.259,7.452,20.24,7.434,20.223z"/>
	<path fill-rule="evenodd" clip-rule="evenodd" fill="#02A99C" d="M25.376,22.379c-0.029-0.021-0.035-0.045-0.007-0.071
		c0.01,0.013,0.02,0.027,0.03,0.041C25.393,22.358,25.385,22.369,25.376,22.379z"/>
	<polygon fill-rule="evenodd" clip-rule="evenodd" fill="#F2F8F8" points="13.388,23.394 13.389,23.391 13.406,23.404 	"/>
	<path fill-rule="evenodd" clip-rule="evenodd" fill="#F4F9F8" d="M15.385,23.79L15.385,23.79L15.385,23.79z"/>
	<path fill-rule="evenodd" clip-rule="evenodd" fill="#F4F9F8" d="M15.385,23.79L15.385,23.79L15.385,23.79z"/>
	<path fill-rule="evenodd" clip-rule="evenodd" fill="#F7FBFA" d="M11.196,25.426c0.058,0.017,0.102,0.046,0.11,0.11
		C11.241,25.528,11.213,25.482,11.196,25.426z"/>
	<path fill-rule="evenodd" clip-rule="evenodd" fill="#F7FBFA" d="M13.088,23.771c-0.025,0.034-0.051,0.069-0.077,0.105
		C13.037,23.842,13.063,23.807,13.088,23.771z"/>
</g>
</svg>
